<svg width="106" height="109" viewBox="0 0 106 109" fill="none" xmlns="http://www.w3.org/2000/svg">
<g clip-path="url(#clip0_786_6182)">
<path fill-rule="evenodd" clip-rule="evenodd" d="M34.1895 67.2549C48.5773 70.8388 66.8379 86.019 72.9817 106.469C72.3189 106.679 71.663 106.886 71.0094 107.094L69.05 107.714C67.7416 108.128 66.4225 108.546 65.0541 108.98C62.3441 101.46 58.6501 94.7058 52.9652 88.8831C47.3358 94.6499 43.5194 101.372 40.891 109C38.1576 108.132 35.6136 107.324 32.8501 106.446C35.66 97.5507 40.3247 90.0155 46.5039 83.133C42.2632 79.6045 37.4652 77.2597 32.3052 75.2656C32.9435 72.5521 33.5663 69.905 34.1895 67.2549ZM53.0212 95.0521C55.8442 95.0483 57.9514 97.0877 57.9661 99.8375C57.9807 102.59 55.8811 104.777 53.1827 104.82C50.3393 104.865 48.135 102.721 48.1459 99.919C48.1565 97.1719 50.2761 95.0555 53.0212 95.0521Z" fill="#00BDD0"/>
<path fill-rule="evenodd" clip-rule="evenodd" d="M40.6496 0C43.2117 7.87902 47.1979 14.6774 52.9166 20.7333C58.6711 14.8091 62.5922 7.933 65.2728 0.0230248C67.8914 0.84135 70.4249 1.63288 73.1168 2.47423C70.2731 11.5811 65.5903 19.3393 58.9336 26.5907C62.4765 28.6187 65.8049 30.6668 69.2748 32.4352C70.5453 33.0825 70.9294 33.5362 70.4776 34.9324C70.0869 36.1389 69.7932 37.3768 69.5138 38.618L69.2361 39.8592C69.143 40.2726 69.0485 40.6853 68.9495 41.0963C56.0025 38.9203 35.3534 16.8187 32.9717 2.41006C35.5439 1.60268 38.0307 0.8221 40.6496 0ZM53.1646 2.41149C55.8083 2.45188 57.9954 4.79928 57.8884 7.48148C57.7905 9.94439 55.5071 12.1136 53.0475 12.0808C50.418 12.0457 48.2539 9.87946 48.2399 7.2686C48.2261 4.5762 50.4628 2.36997 53.1646 2.41149Z" fill="#8EC735"/>
<path fill-rule="evenodd" clip-rule="evenodd" d="M17.9432 11.3496C24.1755 18.3711 28.214 26.0632 30.9279 34.5692C35.6099 33.1217 39.801 31.0509 43.681 28.3752C44.8769 27.55 45.6048 27.5413 46.6313 28.6884C48.046 30.2692 49.7284 31.6092 51.5743 33.3081C36.0415 44.5288 19.0969 48.1335 0.0466919 44.049C0.659721 41.4567 1.20459 38.9262 1.92005 36.4455C1.99988 36.1685 3.09301 35.9658 3.64466 36.079C9.83521 37.3495 16.0363 37.6787 22.629 36.5018C22.005 34.7961 21.6228 33.0798 20.7959 31.6164C18.3709 27.3236 15.8488 23.0798 13.1854 18.9327C12.4195 17.7407 12.3367 17.0998 13.3646 16.1282C14.9032 14.6735 16.3055 13.0742 17.9432 11.3496ZM12.5241 25.9357C15.2609 25.9609 17.3101 28.1049 17.2705 30.9015C17.231 33.6928 15.1784 35.6582 12.3245 35.6374C9.58845 35.6174 7.41724 33.4078 7.48653 30.7135C7.55506 28.032 9.79179 25.9107 12.5241 25.9357Z" fill="#00BDD0"/>
<path fill-rule="evenodd" clip-rule="evenodd" d="M105.566 65.6354C104.954 68.1904 104.336 70.7737 103.748 73.2302C99.7253 72.8471 95.9462 72.2567 92.1584 72.1911C88.4422 72.1265 84.7166 72.5953 80.6634 72.8509C83.1965 80.6057 87.0121 86.9881 92.3125 92.8545C90.3378 94.7195 88.4001 96.5494 86.3087 98.5247C80.0089 91.8848 75.7094 84.2195 72.6375 75.2439C68.5131 77.4286 64.5627 79.5209 60.4018 81.7245C58.6467 80.0901 56.6483 78.2289 54.6492 76.3669C63.2135 66.5715 90.8443 60.67 105.566 65.6354ZM91.5028 75.1998C94.1327 75.1987 96.3024 77.3136 96.3521 79.9274C96.4022 82.5628 94.3405 84.7404 91.6937 84.848C89.0507 84.9555 86.7835 82.7286 86.779 80.0203C86.7744 77.3445 88.8749 75.2013 91.5028 75.1998Z" fill="#8EC735"/>
<path fill-rule="evenodd" clip-rule="evenodd" d="M86.2659 10.0708C88.3291 11.9853 90.3259 13.8382 92.4862 15.8429C87.1945 21.8323 83.1823 28.3646 80.7897 36.113C82.819 36.4357 84.6829 36.9291 86.5615 36.9936C91.7429 37.1718 96.9401 37.3296 102.034 36.0032C103.201 35.6993 104.048 35.7937 104.333 37.2967C104.749 39.4814 105.368 41.6273 106 44.1966C102.204 44.7371 98.676 45.4875 95.1168 45.6959C87.3338 46.1511 79.6898 45.1829 72.2393 42.7755C71.0317 42.3852 70.4484 41.887 70.7225 40.5606C73.099 29.0572 78.0812 18.8954 86.2659 10.0708ZM91.5123 24.8535C94.4622 24.8339 96.3868 26.7846 96.3759 29.7827C96.3653 32.6295 94.1749 34.8516 91.446 34.7844C88.9495 34.7232 86.5651 32.3067 86.5297 29.8023C86.4913 27.0892 88.7235 24.872 91.5123 24.8535Z" fill="#FF9100"/>
<path fill-rule="evenodd" clip-rule="evenodd" d="M30.5596 65.691C32.1121 66.0998 32.8227 66.4923 32.4292 68.4173C30.2998 78.8249 25.9058 88.1024 19.1353 96.2615C18.8597 96.5937 18.5423 96.8911 17.8001 97.6717C16.0521 95.755 14.4619 93.9949 12.8522 92.253C12.0606 91.3965 12.4176 90.7597 13.0596 89.9825C16.9634 85.2545 19.8331 79.9339 21.9022 74.1698C22.0058 73.881 22.0634 73.5757 22.2566 72.8472C20.21 72.6498 18.2636 72.2217 16.3462 72.3263C12.1747 72.5543 8.00629 72.9615 3.86269 73.4971C2.58881 73.6621 1.99159 73.4922 1.70692 72.2417C1.20798 70.0495 0.648049 67.8708 0 65.2207C3.12125 64.739 6.0339 64.1302 8.97779 63.8671C16.2645 63.2149 23.4638 63.8218 30.5596 65.691ZM18.0438 78.6904C18.0558 81.5206 15.8555 83.7223 13.0457 83.6925C10.1259 83.6611 8.14749 81.6138 8.17084 78.6474C8.1923 75.8938 10.2957 73.725 12.9949 73.6733C15.6981 73.6216 18.032 75.941 18.0438 78.6904Z" fill="#FF9100"/>
<path d="M9.70524 48.5283V59.8963H8.71742L1.43021 50.672V59.8963H0.231873V48.5283H1.21969L8.52309 57.7526V48.5283H9.70524Z" fill="white"/>
<path d="M21.5326 59.9774C20.7121 59.9774 19.9726 59.7907 19.3141 59.4171C18.6555 59.0436 18.1373 58.5267 17.7595 57.8662C17.3816 57.2058 17.1927 56.4588 17.1927 55.6251C17.1927 54.7915 17.3816 54.0444 17.7595 53.384C18.1373 52.7236 18.6555 52.2093 19.3141 51.8412C19.9726 51.4731 20.7121 51.2891 21.5326 51.2891C22.3531 51.2891 23.0926 51.4731 23.7512 51.8412C24.4097 52.2093 24.9252 52.7236 25.2977 53.384C25.6701 54.0444 25.8564 54.7915 25.8564 55.6251C25.8564 56.4588 25.6701 57.2058 25.2977 57.8662C24.9252 58.5267 24.4097 59.0436 23.7512 59.4171C23.0926 59.7907 22.3531 59.9774 21.5326 59.9774ZM21.5326 58.9543C22.1372 58.9543 22.6797 58.8163 23.1601 58.5402C23.6405 58.2641 24.0157 57.8716 24.2856 57.3628C24.5555 56.8539 24.6904 56.2747 24.6904 55.6251C24.6904 54.9755 24.5555 54.3963 24.2856 53.8874C24.0157 53.3786 23.6405 52.9861 23.1601 52.7101C22.6797 52.434 22.1372 52.2959 21.5326 52.2959C20.9281 52.2959 20.3856 52.434 19.9051 52.7101C19.4247 52.9861 19.0469 53.3786 18.7716 53.8874C18.4963 54.3963 18.3586 54.9755 18.3586 55.6251C18.3586 56.2747 18.4963 56.8539 18.7716 57.3628C19.0469 57.8716 19.4247 58.2641 19.9051 58.5402C20.3856 58.8163 20.9281 58.9543 21.5326 58.9543Z" fill="white"/>
<path d="M36.534 60.0585C35.6595 60.0585 34.8148 59.934 33.9997 59.6849C33.1846 59.4359 32.5395 59.1057 32.0645 58.6943L32.7932 57.0541C33.2575 57.4222 33.8269 57.7226 34.5017 57.9554C35.1764 58.1882 35.8539 58.3046 36.534 58.3046C37.3761 58.3046 38.0049 58.1692 38.4206 57.8986C38.8362 57.6279 39.044 57.2706 39.044 56.8267C39.044 56.5019 38.928 56.234 38.6959 56.0228C38.4638 55.8117 38.1696 55.6466 37.8133 55.5275C37.457 55.4084 36.9712 55.2731 36.3559 55.1215C35.4922 54.9158 34.7932 54.7101 34.2588 54.5044C33.7244 54.2987 33.2656 53.9766 32.8823 53.5381C32.499 53.0997 32.3074 52.5069 32.3074 51.7599C32.3074 51.1319 32.4775 50.5608 32.8175 50.0466C33.1576 49.5323 33.6704 49.1236 34.3559 48.8204C35.0415 48.5173 35.8808 48.3657 36.8741 48.3657C37.565 48.3657 38.2451 48.4523 38.9145 48.6256C39.5838 48.7988 40.1614 49.0478 40.6472 49.3726L39.9833 51.0128C39.4867 50.7205 38.9685 50.4986 38.4287 50.347C37.8889 50.1954 37.3653 50.1196 36.8579 50.1196C36.0266 50.1196 35.4085 50.2604 35.0037 50.5419C34.5988 50.8234 34.3964 51.1969 34.3964 51.6624C34.3964 51.9872 34.5125 52.2525 34.7446 52.4582C34.9767 52.6639 35.2709 52.8263 35.6271 52.9454C35.9834 53.0645 36.4692 53.1998 37.0846 53.3514C37.9267 53.5463 38.6176 53.7493 39.1574 53.9604C39.6972 54.1715 40.1587 54.4936 40.542 54.9267C40.9252 55.3597 41.1168 55.9444 41.1168 56.6806C41.1168 57.3085 40.9468 57.8769 40.6067 58.3858C40.2667 58.8946 39.7512 59.3006 39.0602 59.6037C38.3693 59.9069 37.5272 60.0585 36.534 60.0585Z" fill="white"/>
<path d="M53.1061 59.4251C52.8686 59.62 52.5798 59.7661 52.2398 59.8636C51.8997 59.961 51.5407 60.0097 51.1629 60.0097C50.2129 60.0097 49.4787 59.7607 48.9605 59.2627C48.4423 58.7647 48.1832 58.0393 48.1832 57.0865V52.9129H46.7582V51.2889H48.1832V49.3076H50.2075V51.2889H52.5232V52.9129H50.2075V57.0378C50.2075 57.4601 50.31 57.7821 50.5151 58.0041C50.7203 58.226 51.0171 58.337 51.4058 58.337C51.8592 58.337 52.2371 58.2179 52.5394 57.9797L53.1061 59.4251Z" fill="white"/>
<path d="M61.5977 52.4906C62.1806 51.5812 63.2062 51.1265 64.6745 51.1265V53.059C64.5017 53.0265 64.3452 53.0103 64.2049 53.0103C63.4168 53.0103 62.8014 53.2404 62.3588 53.7005C61.9161 54.1606 61.6948 54.8238 61.6948 55.6899V59.896H59.6706V51.2239H61.5977V52.4906Z" fill="white"/>
<path d="M79.3358 55.6087C79.3358 55.7494 79.325 55.9497 79.3034 56.2096H72.5182C72.6369 56.8483 72.9473 57.3545 73.4493 57.728C73.9513 58.1015 74.5748 58.2883 75.3197 58.2883C76.2697 58.2883 77.0524 57.9743 77.6678 57.3464L78.7528 58.5968C78.3641 59.0624 77.8729 59.4142 77.2792 59.6524C76.6854 59.8906 76.016 60.0097 75.2711 60.0097C74.3211 60.0097 73.4844 59.8202 72.7611 59.4413C72.0378 59.0624 71.4791 58.5346 71.085 57.8579C70.691 57.1812 70.494 56.4153 70.494 55.56C70.494 54.7155 70.6856 53.9549 71.0688 53.2783C71.4521 52.6016 71.9838 52.0738 72.6639 51.6949C73.3441 51.3159 74.1106 51.1265 74.9634 51.1265C75.8055 51.1265 76.5585 51.3132 77.2225 51.6867C77.8864 52.0603 78.4046 52.5854 78.7771 53.262C79.1495 53.9387 79.3358 54.7209 79.3358 55.6087ZM74.9634 52.7505C74.3157 52.7505 73.7678 52.9426 73.3198 53.327C72.8717 53.7113 72.5991 54.2229 72.502 54.8616H77.4087C77.3223 54.2337 77.0578 53.7249 76.6152 53.3351C76.1726 52.9453 75.622 52.7505 74.9634 52.7505Z" fill="white"/>
<path d="M88.8474 60.0097C88.1457 60.0097 87.4602 59.9177 86.7908 59.7336C86.1215 59.5496 85.5871 59.3168 85.1876 59.0353L85.9649 57.4925C86.3536 57.7524 86.8205 57.9608 87.3657 58.1178C87.9109 58.2747 88.448 58.3532 88.977 58.3532C90.1861 58.3532 90.7907 58.0338 90.7907 57.3951C90.7907 57.0919 90.6368 56.8808 90.3291 56.7617C90.0215 56.6426 89.5276 56.5289 88.8474 56.4207C88.1349 56.3124 87.5546 56.1879 87.1066 56.0472C86.6586 55.9064 86.2699 55.6601 85.9406 55.3082C85.6114 54.9564 85.4467 54.4665 85.4467 53.8385C85.4467 53.0157 85.7895 52.358 86.475 51.8654C87.1606 51.3728 88.0863 51.1265 89.2523 51.1265C89.846 51.1265 90.4398 51.1941 91.0336 51.3295C91.6274 51.4648 92.1132 51.6461 92.491 51.8735L91.7137 53.4163C90.9796 52.9832 90.1537 52.7667 89.2361 52.7667C88.6423 52.7667 88.1916 52.856 87.8839 53.0347C87.5762 53.2133 87.4224 53.4488 87.4224 53.7411C87.4224 54.0659 87.587 54.296 87.9163 54.4313C88.2456 54.5666 88.7557 54.6938 89.4466 54.8129C90.1375 54.9212 90.7043 55.0457 91.1469 55.1864C91.5896 55.3272 91.9701 55.5654 92.2886 55.901C92.6071 56.2366 92.7663 56.713 92.7663 57.3301C92.7663 58.1421 92.4155 58.7917 91.7137 59.2789C91.012 59.7661 90.0566 60.0097 88.8474 60.0097Z" fill="white"/>
<path d="M102.084 60.0097C101.382 60.0097 100.696 59.9177 100.027 59.7336C99.3577 59.5496 98.8233 59.3168 98.4239 59.0353L99.2012 57.4925C99.5898 57.7524 100.057 57.9608 100.602 58.1178C101.147 58.2747 101.684 58.3532 102.213 58.3532C103.422 58.3532 104.027 58.0338 104.027 57.3951C104.027 57.0919 103.873 56.8808 103.565 56.7617C103.258 56.6426 102.764 56.5289 102.084 56.4207C101.371 56.3124 100.791 56.1879 100.343 56.0472C99.8948 55.9064 99.5062 55.6601 99.1769 55.3082C98.8476 54.9564 98.683 54.4665 98.683 53.8385C98.683 53.0157 99.0258 52.358 99.7113 51.8654C100.397 51.3728 101.323 51.1265 102.489 51.1265C103.082 51.1265 103.676 51.1941 104.27 51.3295C104.864 51.4648 105.349 51.6461 105.727 51.8735L104.95 53.4163C104.216 52.9832 103.39 52.7667 102.472 52.7667C101.879 52.7667 101.428 52.856 101.12 53.0347C100.812 53.2133 100.659 53.4488 100.659 53.7411C100.659 54.0659 100.823 54.296 101.153 54.4313C101.482 54.5666 101.992 54.6938 102.683 54.8129C103.374 54.9212 103.941 55.0457 104.383 55.1864C104.826 55.3272 105.206 55.5654 105.525 55.901C105.843 56.2366 106.003 56.713 106.003 57.3301C106.003 58.1421 105.652 58.7917 104.95 59.2789C104.248 59.7661 103.293 60.0097 102.084 60.0097Z" fill="white"/>
</g>
<defs>
<clipPath id="clip0_786_6182">
<rect width="106" height="109" fill="white"/>
</clipPath>
</defs>
</svg>
