<svg width="32" height="31" viewBox="0 0 32 31" fill="none" xmlns="http://www.w3.org/2000/svg">
<path fill-rule="evenodd" clip-rule="evenodd" d="M10.3474 18.168C14.6856 19.2486 20.1915 23.8257 22.044 29.9917C21.8441 30.055 21.6464 30.1176 21.4493 30.18L20.8585 30.3671C20.464 30.4921 20.0663 30.618 19.6537 30.7488C18.8366 28.4814 17.7227 26.4449 16.0087 24.6893C14.3113 26.4281 13.1606 28.4548 12.3681 30.7549C11.5439 30.4931 10.7768 30.2495 9.94359 29.9847C10.7908 27.3027 12.1973 25.0307 14.0605 22.9555C12.7818 21.8916 11.3351 21.1846 9.7793 20.5834C9.97174 19.7652 10.1595 18.967 10.3474 18.168ZM16.0255 26.5493C16.8767 26.5482 17.5121 27.1631 17.5165 27.9922C17.5209 28.8222 16.8878 29.4815 16.0742 29.4945C15.2169 29.5082 14.5523 28.8615 14.5555 28.0168C14.5587 27.1885 15.1978 26.5504 16.0255 26.5493Z" fill="#00BDD0"/>
<path fill-rule="evenodd" clip-rule="evenodd" d="M12.296 0C13.0685 2.37567 14.2704 4.4255 15.9947 6.25147C17.7298 4.46522 18.9121 2.39194 19.7203 0.00694241C20.5099 0.253682 21.2738 0.492342 22.0855 0.746025C21.228 3.49192 19.8161 5.83117 17.8089 8.01757C18.8772 8.62907 19.8808 9.24661 20.927 9.77981C21.3101 9.97499 21.4259 10.1118 21.2897 10.5328C21.1719 10.8965 21.0833 11.2698 20.9991 11.644L20.9153 12.0183C20.8873 12.1429 20.8588 12.2674 20.8289 12.3913C16.9252 11.7352 10.6991 5.07115 9.98096 0.726677C10.7565 0.483237 11.5063 0.247878 12.296 0ZM16.0695 0.727109C16.8666 0.739287 17.5261 1.44707 17.4938 2.25581C17.4643 2.99842 16.7758 3.65248 16.0342 3.64258C15.2413 3.632 14.5888 2.97884 14.5846 2.19162C14.5804 1.37981 15.2548 0.71459 16.0695 0.727109Z" fill="#8EC735"/>
<path fill-rule="evenodd" clip-rule="evenodd" d="M5.44934 3.42236C7.3285 5.53946 8.5462 7.85879 9.36446 10.4235C10.7762 9.98704 12.0399 9.36268 13.2098 8.55588C13.5704 8.30709 13.7898 8.30447 14.0993 8.65034C14.5259 9.12698 15.0332 9.531 15.5897 10.0433C10.9063 13.4265 5.79722 14.5134 0.0532227 13.2818C0.238062 12.5002 0.402352 11.7372 0.618074 10.9892C0.642144 10.9057 0.971744 10.8446 1.13808 10.8787C3.00464 11.2618 4.87438 11.3611 6.8622 11.0062C6.67407 10.4919 6.55883 9.9744 6.3095 9.53316C5.57832 8.2388 4.81784 6.95924 4.01479 5.70881C3.78385 5.34939 3.75887 5.15614 4.06883 4.8632C4.53275 4.42457 4.95556 3.94236 5.44934 3.42236ZM3.81538 7.82032C4.64057 7.82795 5.25845 8.47439 5.24653 9.31761C5.2346 10.1592 4.61571 10.7518 3.7552 10.7456C2.93024 10.7395 2.27558 10.0733 2.29647 9.26093C2.31713 8.45242 2.99155 7.81281 3.81538 7.82032Z" fill="#00BDD0"/>
<path fill-rule="evenodd" clip-rule="evenodd" d="M31.8695 17.6801C31.6851 18.4504 31.4985 19.2294 31.3212 19.97C30.1084 19.8545 28.9689 19.6765 27.8268 19.6567C26.7063 19.6373 25.583 19.7786 24.3609 19.8557C25.1246 22.1939 26.2751 24.1183 27.8733 25.8871C27.2779 26.4495 26.6936 27.0012 26.063 27.5968C24.1635 25.5948 22.8672 23.2835 21.9409 20.5772C20.6973 21.2359 19.5062 21.8668 18.2516 22.5312C17.7224 22.0384 17.1199 21.4772 16.5171 20.9158C19.0994 17.9623 27.4306 16.1829 31.8695 17.6801ZM27.6291 20.5639C28.4221 20.5636 29.0763 21.2012 29.0913 21.9894C29.1064 22.784 28.4848 23.4406 27.6867 23.473C26.8898 23.5054 26.2062 22.834 26.2048 22.0174C26.2035 21.2106 26.8368 20.5644 27.6291 20.5639Z" fill="#8EC735"/>
<path fill-rule="evenodd" clip-rule="evenodd" d="M26.05 3.03662C26.6721 3.61387 27.2742 4.17256 27.9255 4.777C26.33 6.58294 25.1202 8.55254 24.3988 10.8888C25.0107 10.9861 25.5727 11.1349 26.1391 11.1543C27.7014 11.2081 29.2685 11.2556 30.8043 10.8557C31.1562 10.7641 31.4115 10.7925 31.4977 11.2457C31.6229 11.9045 31.8095 12.5515 32.0002 13.3262C30.8556 13.4892 29.7919 13.7154 28.7187 13.7782C26.372 13.9155 24.0672 13.6236 21.8207 12.8977C21.4566 12.78 21.2807 12.6298 21.3634 12.2298C22.0799 8.76138 23.5821 5.69738 26.05 3.03662ZM27.6319 7.49388C28.5213 7.48796 29.1016 8.07613 29.0983 8.98012C29.0952 9.83847 28.4347 10.5085 27.6119 10.4882C26.8591 10.4698 26.1402 9.74117 26.1295 8.98604C26.118 8.16797 26.791 7.49945 27.6319 7.49388Z" fill="#FF9100"/>
<path fill-rule="evenodd" clip-rule="evenodd" d="M9.25334 17.6961C9.72146 17.8194 9.93571 17.9378 9.81706 18.5182C9.175 21.6563 7.85013 24.4536 5.80872 26.9137C5.72561 27.0139 5.62989 27.1036 5.40611 27.3389C4.87907 26.761 4.3996 26.2303 3.91422 25.7051C3.67557 25.4468 3.7832 25.2548 3.97678 25.0205C5.15383 23.5949 6.0191 21.9906 6.64299 20.2527C6.67422 20.1656 6.69159 20.0735 6.74983 19.8539C6.13275 19.7943 5.54588 19.6653 4.96774 19.6968C3.70997 19.7655 2.4531 19.8883 1.20373 20.0498C0.819635 20.0996 0.639564 20.0484 0.55373 19.6713C0.403292 19.0103 0.234461 18.3534 0.0390625 17.5543C0.980178 17.4091 1.85839 17.2255 2.74603 17.1462C4.9431 16.9495 7.11383 17.1326 9.25334 17.6961ZM5.47959 21.6157C5.4832 22.4691 4.8198 23.1329 3.97258 23.1239C3.09221 23.1145 2.49568 22.4972 2.50272 21.6027C2.50919 20.7725 3.14341 20.1185 3.95725 20.1029C4.77234 20.0874 5.47605 20.7867 5.47959 21.6157Z" fill="#FF9100"/>
</svg>
