<svg width="15" height="16" viewBox="0 0 15 16" fill="none" xmlns="http://www.w3.org/2000/svg">
<path d="M14.5002 14.6668C14.5309 13.2155 14.1185 11.7894 13.3179 10.5785C12.5173 9.36772 11.3665 8.42976 10.0192 7.88976C10.7007 7.36399 11.2006 6.63814 11.4489 5.81395C11.6972 4.98976 11.6813 4.10855 11.4036 3.29382C11.1258 2.47909 10.6001 1.77168 9.90012 1.27075C9.20012 0.769826 8.36092 0.500488 7.50015 0.500488C6.63938 0.500488 5.80017 0.769826 5.10018 1.27075C4.40018 1.77168 3.87447 2.47909 3.59673 3.29382C3.31899 4.10855 3.30314 4.98976 3.55141 5.81395C3.79968 6.63814 4.29962 7.36399 4.98116 7.88976C3.63368 8.42964 2.48285 9.36758 1.68222 10.5784C0.881597 11.7893 0.469245 13.2155 0.500154 14.6668V15.3358H1.84215V14.6668C1.80935 13.9065 1.93007 13.1475 2.1971 12.435C2.46413 11.7224 2.87201 11.071 3.39636 10.5196C3.92072 9.96815 4.55082 9.52803 5.24902 9.2255C5.94723 8.92297 6.69923 8.76423 7.46015 8.75876H7.54915C8.31006 8.76423 9.06208 8.92297 9.76029 9.2255C10.4585 9.52803 11.0886 9.96815 11.6129 10.5196C12.1373 11.071 12.5452 11.7224 12.8122 12.435C13.0792 13.1475 13.1999 13.9065 13.1671 14.6668V15.3358H14.5051L14.5002 14.6668ZM4.71315 4.63477C4.71322 4.08544 4.87563 3.54837 5.17996 3.09106C5.4843 2.63374 5.91699 2.27656 6.42369 2.06438C6.93039 1.85221 7.48849 1.79451 8.02788 1.89853C8.56727 2.00255 9.06389 2.26365 9.45535 2.64903C9.84682 3.03441 10.1157 3.52688 10.2281 4.06458C10.3406 4.60227 10.2916 5.16121 10.0874 5.67117C9.88321 6.18113 9.53285 6.61937 9.08035 6.93083C8.62786 7.2423 8.0934 7.41309 7.54415 7.42176H7.45516C6.72382 7.40995 6.02645 7.11112 5.51347 6.58973C5.0005 6.06834 4.71306 5.36619 4.71315 4.63477Z" fill="white" stroke="white" stroke-width="0.2"/>
</svg>
