<svg width="21" height="22" viewBox="0 0 21 22" fill="none" xmlns="http://www.w3.org/2000/svg">
<mask id="path-1-outside-1_819_3174" maskUnits="userSpaceOnUse" x="0" y="0" width="21" height="22" fill="black">
<rect fill="white" width="21" height="22"/>
<path d="M16.2 6H18.7333C19.0692 5.99967 19.3912 5.86787 19.6286 5.63352C19.8661 5.39917 19.9997 5.08142 20 4.75V2.25C19.9997 1.91858 19.8661 1.60083 19.6286 1.36648C19.3912 1.13213 19.0692 1.00033 18.7333 1H16.2C15.8642 1.00033 15.5422 1.13213 15.3047 1.36648C15.0672 1.60083 14.9337 1.91858 14.9333 2.25V2.875H12.4C11.7284 2.87576 11.0844 3.13939 10.6095 3.60807C10.1346 4.07675 9.86743 4.71219 9.86667 5.375V10.375H6.06667V9.75C6.06633 9.41858 5.93277 9.10083 5.6953 8.86648C5.45782 8.63213 5.13584 8.50033 4.8 8.5H2.26667C1.93083 8.50033 1.60884 8.63213 1.37137 8.86648C1.1339 9.10083 1.00034 9.41858 1 9.75V12.25C1.00034 12.5814 1.1339 12.8992 1.37137 13.1335C1.60884 13.3679 1.93083 13.4997 2.26667 13.5H4.8C5.13584 13.4997 5.45782 13.3679 5.6953 13.1335C5.93277 12.8992 6.06633 12.5814 6.06667 12.25V11.625H9.86667V16.625C9.86743 17.2878 10.1346 17.9233 10.6095 18.3919C11.0844 18.8606 11.7284 19.1242 12.4 19.125H14.9333V19.75C14.9337 20.0814 15.0672 20.3992 15.3047 20.6335C15.5422 20.8679 15.8642 20.9997 16.2 21H18.7333C19.0692 20.9997 19.3912 20.8679 19.6286 20.6335C19.8661 20.3992 19.9997 20.0814 20 19.75V17.25C19.9997 16.9186 19.8661 16.6008 19.6286 16.3665C19.3912 16.1321 19.0692 16.0003 18.7333 16H16.2C15.8642 16.0003 15.5422 16.1321 15.3047 16.3665C15.0672 16.6008 14.9337 16.9186 14.9333 17.25V17.875H12.4C12.0642 17.8747 11.7422 17.7429 11.5047 17.5085C11.2672 17.2742 11.1337 16.9564 11.1333 16.625V11.625H14.9333V12.25C14.9337 12.5814 15.0672 12.8992 15.3047 13.1335C15.5422 13.3679 15.8642 13.4997 16.2 13.5H18.7333C19.0692 13.4997 19.3912 13.3679 19.6286 13.1335C19.8661 12.8992 19.9997 12.5814 20 12.25V9.75C19.9997 9.41858 19.8661 9.10083 19.6286 8.86648C19.3912 8.63213 19.0692 8.50033 18.7333 8.5H16.2C15.8642 8.50033 15.5422 8.63213 15.3047 8.86648C15.0672 9.10083 14.9337 9.41858 14.9333 9.75V10.375H11.1333V5.375C11.1337 5.04358 11.2672 4.72583 11.5047 4.49148C11.7422 4.25713 12.0642 4.12533 12.4 4.125H14.9333V4.75C14.9337 5.08142 15.0672 5.39917 15.3047 5.63352C15.5422 5.86787 15.8642 5.99967 16.2 6ZM4.8 12.25H2.26667V9.75L4.8 9.74875V12.25ZM16.2 17.25L18.7333 17.2487V19.75H16.2V17.25ZM16.2 9.75L18.7333 9.74875V12.25H16.2V9.75ZM18.7333 4.75H16.2V2.25H18.7333"/>
</mask>
<path d="M16.2 6H18.7333C19.0692 5.99967 19.3912 5.86787 19.6286 5.63352C19.8661 5.39917 19.9997 5.08142 20 4.75V2.25C19.9997 1.91858 19.8661 1.60083 19.6286 1.36648C19.3912 1.13213 19.0692 1.00033 18.7333 1H16.2C15.8642 1.00033 15.5422 1.13213 15.3047 1.36648C15.0672 1.60083 14.9337 1.91858 14.9333 2.25V2.875H12.4C11.7284 2.87576 11.0844 3.13939 10.6095 3.60807C10.1346 4.07675 9.86743 4.71219 9.86667 5.375V10.375H6.06667V9.75C6.06633 9.41858 5.93277 9.10083 5.6953 8.86648C5.45782 8.63213 5.13584 8.50033 4.8 8.5H2.26667C1.93083 8.50033 1.60884 8.63213 1.37137 8.86648C1.1339 9.10083 1.00034 9.41858 1 9.75V12.25C1.00034 12.5814 1.1339 12.8992 1.37137 13.1335C1.60884 13.3679 1.93083 13.4997 2.26667 13.5H4.8C5.13584 13.4997 5.45782 13.3679 5.6953 13.1335C5.93277 12.8992 6.06633 12.5814 6.06667 12.25V11.625H9.86667V16.625C9.86743 17.2878 10.1346 17.9233 10.6095 18.3919C11.0844 18.8606 11.7284 19.1242 12.4 19.125H14.9333V19.75C14.9337 20.0814 15.0672 20.3992 15.3047 20.6335C15.5422 20.8679 15.8642 20.9997 16.2 21H18.7333C19.0692 20.9997 19.3912 20.8679 19.6286 20.6335C19.8661 20.3992 19.9997 20.0814 20 19.75V17.25C19.9997 16.9186 19.8661 16.6008 19.6286 16.3665C19.3912 16.1321 19.0692 16.0003 18.7333 16H16.2C15.8642 16.0003 15.5422 16.1321 15.3047 16.3665C15.0672 16.6008 14.9337 16.9186 14.9333 17.25V17.875H12.4C12.0642 17.8747 11.7422 17.7429 11.5047 17.5085C11.2672 17.2742 11.1337 16.9564 11.1333 16.625V11.625H14.9333V12.25C14.9337 12.5814 15.0672 12.8992 15.3047 13.1335C15.5422 13.3679 15.8642 13.4997 16.2 13.5H18.7333C19.0692 13.4997 19.3912 13.3679 19.6286 13.1335C19.8661 12.8992 19.9997 12.5814 20 12.25V9.75C19.9997 9.41858 19.8661 9.10083 19.6286 8.86648C19.3912 8.63213 19.0692 8.50033 18.7333 8.5H16.2C15.8642 8.50033 15.5422 8.63213 15.3047 8.86648C15.0672 9.10083 14.9337 9.41858 14.9333 9.75V10.375H11.1333V5.375C11.1337 5.04358 11.2672 4.72583 11.5047 4.49148C11.7422 4.25713 12.0642 4.12533 12.4 4.125H14.9333V4.75C14.9337 5.08142 15.0672 5.39917 15.3047 5.63352C15.5422 5.86787 15.8642 5.99967 16.2 6ZM4.8 12.25H2.26667V9.75L4.8 9.74875V12.25ZM16.2 17.25L18.7333 17.2487V19.75H16.2V17.25ZM16.2 9.75L18.7333 9.74875V12.25H16.2V9.75ZM18.7333 4.75H16.2V2.25H18.7333" fill="white"/>
<path d="M16.2 6L16.1998 6.2H16.2V6ZM18.7333 6V6.2L18.7335 6.2L18.7333 6ZM20 4.75L20.2 4.7502V4.75H20ZM20 2.25H20.2L20.2 2.2498L20 2.25ZM18.7333 1L18.7335 0.8H18.7333V1ZM16.2 1V0.8L16.1998 0.8L16.2 1ZM14.9333 2.25L14.7333 2.2498V2.25H14.9333ZM14.9333 2.875V3.075H15.1333V2.875H14.9333ZM12.4 2.875V2.675L12.3998 2.675L12.4 2.875ZM9.86667 5.375L9.66667 5.37477V5.375H9.86667ZM9.86667 10.375V10.575H10.0667V10.375H9.86667ZM6.06667 10.375H5.86667V10.575H6.06667V10.375ZM6.06667 9.75H6.26667L6.26667 9.7498L6.06667 9.75ZM4.8 8.5L4.8002 8.3H4.8V8.5ZM2.26667 8.5V8.3L2.26647 8.3L2.26667 8.5ZM1 9.75L0.8 9.7498V9.75H1ZM1 12.25H0.8L0.8 12.2502L1 12.25ZM2.26667 13.5L2.26647 13.7H2.26667V13.5ZM4.8 13.5V13.7H4.8002L4.8 13.5ZM6.06667 12.25L6.26667 12.2502V12.25H6.06667ZM6.06667 11.625V11.425H5.86667V11.625H6.06667ZM9.86667 11.625H10.0667V11.425H9.86667V11.625ZM9.86667 16.625H9.66667L9.66667 16.6252L9.86667 16.625ZM12.4 19.125L12.3998 19.325H12.4V19.125ZM14.9333 19.125H15.1333V18.925H14.9333V19.125ZM14.9333 19.75H14.7333L14.7333 19.7502L14.9333 19.75ZM16.2 21L16.1998 21.2H16.2V21ZM18.7333 21V21.2H18.7335L18.7333 21ZM20 19.75L20.2 19.7502V19.75H20ZM20 17.25H20.2L20.2 17.2498L20 17.25ZM18.7333 16L18.7335 15.8H18.7333V16ZM16.2 16V15.8H16.1998L16.2 16ZM14.9333 17.25L14.7333 17.2498V17.25H14.9333ZM14.9333 17.875V18.075H15.1333V17.875H14.9333ZM12.4 17.875L12.3998 18.075H12.4V17.875ZM11.1333 16.625H10.9333V16.6252L11.1333 16.625ZM11.1333 11.625V11.425H10.9333V11.625H11.1333ZM14.9333 11.625H15.1333V11.425H14.9333V11.625ZM14.9333 12.25H14.7333L14.7333 12.2502L14.9333 12.25ZM16.2 13.5L16.1998 13.7H16.2V13.5ZM18.7333 13.5V13.7H18.7335L18.7333 13.5ZM20 12.25L20.2 12.2502V12.25H20ZM20 9.75H20.2L20.2 9.7498L20 9.75ZM18.7333 8.5L18.7335 8.3H18.7333V8.5ZM16.2 8.5V8.3L16.1998 8.3L16.2 8.5ZM14.9333 9.75L14.7333 9.7498V9.75H14.9333ZM14.9333 10.375V10.575H15.1333V10.375H14.9333ZM11.1333 10.375H10.9333V10.575H11.1333V10.375ZM11.1333 5.375L10.9333 5.3748V5.375H11.1333ZM12.4 4.125V3.925L12.3998 3.925L12.4 4.125ZM14.9333 4.125H15.1333V3.925H14.9333V4.125ZM14.9333 4.75H14.7333L14.7333 4.7502L14.9333 4.75ZM4.8 12.25V12.45H5V12.25H4.8ZM2.26667 12.25H2.06667V12.45H2.26667V12.25ZM2.26667 9.75L2.26657 9.55L2.06667 9.5501V9.75H2.26667ZM4.8 9.74875H5V9.54865L4.7999 9.54875L4.8 9.74875ZM16.2 17.25L16.1999 17.05L16 17.0501V17.25H16.2ZM18.7333 17.2487H18.9333V17.0487L18.7332 17.0487L18.7333 17.2487ZM18.7333 19.75V19.95H18.9333V19.75H18.7333ZM16.2 19.75H16V19.95H16.2V19.75ZM16.2 9.75L16.1999 9.55L16 9.5501V9.75H16.2ZM18.7333 9.74875H18.9333V9.54865L18.7332 9.54875L18.7333 9.74875ZM18.7333 12.25V12.45H18.9333V12.25H18.7333ZM16.2 12.25H16V12.45H16.2V12.25ZM16.2 4.75H16V4.95H16.2V4.75ZM16.2 2.25V2.05H16V2.25H16.2ZM16.2 6.2H18.7333V5.8H16.2V6.2ZM18.7335 6.2C19.1215 6.19962 19.494 6.04738 19.7691 5.77587L19.4881 5.49116C19.2883 5.68835 19.0168 5.79972 18.7331 5.8L18.7335 6.2ZM19.7691 5.77587C20.0443 5.50428 20.1996 5.13546 20.2 4.7502L19.8 4.7498C19.7997 5.02738 19.6879 5.29406 19.4881 5.49116L19.7691 5.77587ZM20.2 4.75V2.25H19.8V4.75H20.2ZM20.2 2.2498C20.1996 1.86454 20.0443 1.49572 19.7691 1.22413L19.4881 1.50884C19.6879 1.70594 19.7997 1.97262 19.8 2.2502L20.2 2.2498ZM19.7691 1.22413C19.494 0.952618 19.1215 0.800382 18.7335 0.8L18.7331 1.2C19.0168 1.20028 19.2883 1.31165 19.4881 1.50884L19.7691 1.22413ZM18.7333 0.8H16.2V1.2H18.7333V0.8ZM16.1998 0.8C15.8118 0.800382 15.4393 0.952618 15.1642 1.22413L15.4452 1.50884C15.645 1.31165 15.9165 1.20028 16.2002 1.2L16.1998 0.8ZM15.1642 1.22413C14.889 1.49572 14.7337 1.86455 14.7333 2.2498L15.1333 2.2502C15.1336 1.97262 15.2455 1.70594 15.4452 1.50884L15.1642 1.22413ZM14.7333 2.25V2.875H15.1333V2.25H14.7333ZM14.9333 2.675H12.4V3.075H14.9333V2.675ZM12.3998 2.675C11.676 2.67582 10.9816 2.95989 10.469 3.46571L10.75 3.75042C11.1873 3.3189 11.7807 3.0757 12.4002 3.075L12.3998 2.675ZM10.469 3.46571C9.95637 3.97163 9.6675 4.65814 9.66667 5.37477L10.0667 5.37523C10.0674 4.76625 10.3128 4.18186 10.75 3.75042L10.469 3.46571ZM9.66667 5.375V10.375H10.0667V5.375H9.66667ZM9.86667 10.175H6.06667V10.575H9.86667V10.175ZM6.26667 10.375V9.75H5.86667V10.375H6.26667ZM6.26667 9.7498C6.26628 9.36454 6.111 8.99572 5.83578 8.72413L5.55482 9.00884C5.75454 9.20594 5.86639 9.47262 5.86667 9.7502L6.26667 9.7498ZM5.83578 8.72413C5.56065 8.45262 5.18816 8.30038 4.8002 8.3L4.7998 8.7C5.08351 8.70028 5.355 8.81165 5.55482 9.00884L5.83578 8.72413ZM4.8 8.3H2.26667V8.7H4.8V8.3ZM2.26647 8.3C1.8785 8.30038 1.50602 8.45262 1.23089 8.72413L1.51185 9.00884C1.71167 8.81165 1.98315 8.70028 2.26686 8.7L2.26647 8.3ZM1.23089 8.72413C0.955668 8.99572 0.80039 9.36454 0.8 9.7498L1.2 9.7502C1.20028 9.47262 1.31212 9.20594 1.51185 9.00884L1.23089 8.72413ZM0.8 9.75V12.25H1.2V9.75H0.8ZM0.8 12.2502C0.80039 12.6355 0.955668 13.0043 1.23089 13.2759L1.51185 12.9912C1.31212 12.7941 1.20028 12.5274 1.2 12.2498L0.8 12.2502ZM1.23089 13.2759C1.50602 13.5474 1.8785 13.6996 2.26647 13.7L2.26686 13.3C1.98315 13.2997 1.71167 13.1884 1.51185 12.9912L1.23089 13.2759ZM2.26667 13.7H4.8V13.3H2.26667V13.7ZM4.8002 13.7C5.18816 13.6996 5.56065 13.5474 5.83578 13.2759L5.55482 12.9912C5.355 13.1884 5.08351 13.2997 4.7998 13.3L4.8002 13.7ZM5.83578 13.2759C6.111 13.0043 6.26628 12.6355 6.26667 12.2502L5.86667 12.2498C5.86639 12.5274 5.75454 12.7941 5.55482 12.9912L5.83578 13.2759ZM6.26667 12.25V11.625H5.86667V12.25H6.26667ZM6.06667 11.825H9.86667V11.425H6.06667V11.825ZM9.66667 11.625V16.625H10.0667V11.625H9.66667ZM9.66667 16.6252C9.6675 17.3419 9.95637 18.0284 10.469 18.5343L10.75 18.2496C10.3128 17.8181 10.0674 17.2338 10.0667 16.6248L9.66667 16.6252ZM10.469 18.5343C10.9816 19.0401 11.676 19.3242 12.3998 19.325L12.4002 18.925C11.7807 18.9243 11.1873 18.6811 10.75 18.2496L10.469 18.5343ZM12.4 19.325H14.9333V18.925H12.4V19.325ZM14.7333 19.125V19.75H15.1333V19.125H14.7333ZM14.7333 19.7502C14.7337 20.1355 14.889 20.5043 15.1642 20.7759L15.4452 20.4912C15.2455 20.2941 15.1336 20.0274 15.1333 19.7498L14.7333 19.7502ZM15.1642 20.7759C15.4393 21.0474 15.8118 21.1996 16.1998 21.2L16.2002 20.8C15.9165 20.7997 15.645 20.6884 15.4452 20.4912L15.1642 20.7759ZM16.2 21.2H18.7333V20.8H16.2V21.2ZM18.7335 21.2C19.1215 21.1996 19.494 21.0474 19.7691 20.7759L19.4881 20.4912C19.2883 20.6884 19.0168 20.7997 18.7331 20.8L18.7335 21.2ZM19.7691 20.7759C20.0443 20.5043 20.1996 20.1355 20.2 19.7502L19.8 19.7498C19.7997 20.0274 19.6879 20.2941 19.4881 20.4912L19.7691 20.7759ZM20.2 19.75V17.25H19.8V19.75H20.2ZM20.2 17.2498C20.1996 16.8645 20.0443 16.4957 19.7691 16.2241L19.4881 16.5088C19.6879 16.7059 19.7997 16.9726 19.8 17.2502L20.2 17.2498ZM19.7691 16.2241C19.494 15.9526 19.1215 15.8004 18.7335 15.8L18.7331 16.2C19.0168 16.2003 19.2883 16.3116 19.4881 16.5088L19.7691 16.2241ZM18.7333 15.8H16.2V16.2H18.7333V15.8ZM16.1998 15.8C15.8118 15.8004 15.4393 15.9526 15.1642 16.2241L15.4452 16.5088C15.645 16.3116 15.9165 16.2003 16.2002 16.2L16.1998 15.8ZM15.1642 16.2241C14.889 16.4957 14.7337 16.8645 14.7333 17.2498L15.1333 17.2502C15.1336 16.9726 15.2455 16.7059 15.4452 16.5088L15.1642 16.2241ZM14.7333 17.25V17.875H15.1333V17.25H14.7333ZM14.9333 17.675H12.4V18.075H14.9333V17.675ZM12.4002 17.675C12.1165 17.6747 11.845 17.5634 11.6452 17.3662L11.3642 17.6509C11.6393 17.9224 12.0118 18.0746 12.3998 18.075L12.4002 17.675ZM11.6452 17.3662C11.4455 17.1691 11.3336 16.9024 11.3333 16.6248L10.9333 16.6252C10.9337 17.0105 11.089 17.3793 11.3642 17.6509L11.6452 17.3662ZM11.3333 16.625V11.625H10.9333V16.625H11.3333ZM11.1333 11.825H14.9333V11.425H11.1333V11.825ZM14.7333 11.625V12.25H15.1333V11.625H14.7333ZM14.7333 12.2502C14.7337 12.6355 14.889 13.0043 15.1642 13.2759L15.4452 12.9912C15.2455 12.7941 15.1336 12.5274 15.1333 12.2498L14.7333 12.2502ZM15.1642 13.2759C15.4393 13.5474 15.8118 13.6996 16.1998 13.7L16.2002 13.3C15.9165 13.2997 15.645 13.1884 15.4452 12.9912L15.1642 13.2759ZM16.2 13.7H18.7333V13.3H16.2V13.7ZM18.7335 13.7C19.1215 13.6996 19.494 13.5474 19.7691 13.2759L19.4881 12.9912C19.2883 13.1884 19.0168 13.2997 18.7331 13.3L18.7335 13.7ZM19.7691 13.2759C20.0443 13.0043 20.1996 12.6355 20.2 12.2502L19.8 12.2498C19.7997 12.5274 19.6879 12.7941 19.4881 12.9912L19.7691 13.2759ZM20.2 12.25V9.75H19.8V12.25H20.2ZM20.2 9.7498C20.1996 9.36454 20.0443 8.99572 19.7691 8.72413L19.4881 9.00884C19.6879 9.20594 19.7997 9.47262 19.8 9.7502L20.2 9.7498ZM19.7691 8.72413C19.494 8.45262 19.1215 8.30038 18.7335 8.3L18.7331 8.7C19.0168 8.70028 19.2883 8.81165 19.4881 9.00884L19.7691 8.72413ZM18.7333 8.3H16.2V8.7H18.7333V8.3ZM16.1998 8.3C15.8118 8.30038 15.4393 8.45262 15.1642 8.72413L15.4452 9.00884C15.645 8.81165 15.9165 8.70028 16.2002 8.7L16.1998 8.3ZM15.1642 8.72413C14.889 8.99572 14.7337 9.36454 14.7333 9.7498L15.1333 9.7502C15.1336 9.47262 15.2455 9.20594 15.4452 9.00884L15.1642 8.72413ZM14.7333 9.75V10.375H15.1333V9.75H14.7333ZM14.9333 10.175H11.1333V10.575H14.9333V10.175ZM11.3333 10.375V5.375H10.9333V10.375H11.3333ZM11.3333 5.3752C11.3336 5.09762 11.4455 4.83094 11.6452 4.63384L11.3642 4.34913C11.089 4.62072 10.9337 4.98955 10.9333 5.3748L11.3333 5.3752ZM11.6452 4.63384C11.845 4.43665 12.1165 4.32528 12.4002 4.325L12.3998 3.925C12.0118 3.92538 11.6393 4.07762 11.3642 4.34913L11.6452 4.63384ZM12.4 4.325H14.9333V3.925H12.4V4.325ZM14.7333 4.125V4.75H15.1333V4.125H14.7333ZM14.7333 4.7502C14.7337 5.13546 14.889 5.50428 15.1642 5.77587L15.4452 5.49116C15.2455 5.29406 15.1336 5.02738 15.1333 4.7498L14.7333 4.7502ZM15.1642 5.77587C15.4393 6.04738 15.8118 6.19962 16.1998 6.2L16.2002 5.8C15.9165 5.79972 15.645 5.68835 15.4452 5.49116L15.1642 5.77587ZM4.8 12.05H2.26667V12.45H4.8V12.05ZM2.46667 12.25V9.75H2.06667V12.25H2.46667ZM2.26677 9.95L4.8001 9.94875L4.7999 9.54875L2.26657 9.55L2.26677 9.95ZM4.6 9.74875V12.25H5V9.74875H4.6ZM16.2001 17.45L18.7334 17.4487L18.7332 17.0487L16.1999 17.05L16.2001 17.45ZM18.5333 17.2487V19.75H18.9333V17.2487H18.5333ZM18.7333 19.55H16.2V19.95H18.7333V19.55ZM16.4 19.75V17.25H16V19.75H16.4ZM16.2001 9.95L18.7334 9.94875L18.7332 9.54875L16.1999 9.55L16.2001 9.95ZM18.5333 9.74875V12.25H18.9333V9.74875H18.5333ZM18.7333 12.05H16.2V12.45H18.7333V12.05ZM16.4 12.25V9.75H16V12.25H16.4ZM18.7333 4.55H16.2V4.95H18.7333V4.55ZM16.4 4.75V2.25H16V4.75H16.4ZM16.2 2.45H18.7333V2.05H16.2V2.45Z" fill="white" mask="url(#path-1-outside-1_819_3174)"/>
</svg>
