<svg width="18" height="16" viewBox="0 0 18 16" fill="none" xmlns="http://www.w3.org/2000/svg">
<path d="M1.125 4.57143H2.25C2.25068 5.17743 2.48795 5.7584 2.90976 6.18691C3.33157 6.61541 3.90347 6.85645 4.5 6.85714H6.75C7.34653 6.85645 7.91843 6.61541 8.34024 6.18691C8.76205 5.7584 8.99932 5.17743 9 4.57143H16.875C17.1734 4.57143 17.4595 4.45102 17.6705 4.23669C17.8815 4.02237 18 3.73168 18 3.42857C18 3.12547 17.8815 2.83478 17.6705 2.62045C17.4595 2.40612 17.1734 2.28571 16.875 2.28571H9C8.99932 1.67972 8.76205 1.09874 8.34024 0.670235C7.91843 0.241731 7.34653 0.000692677 6.75 0H4.5C3.90347 0.000692677 3.33157 0.241731 2.90976 0.670235C2.48795 1.09874 2.25068 1.67972 2.25 2.28571H1.125C0.826631 2.28571 0.540484 2.40612 0.329505 2.62045C0.118527 2.83478 0 3.12547 0 3.42857C0 3.73168 0.118527 4.02237 0.329505 4.23669C0.540484 4.45102 0.826631 4.57143 1.125 4.57143ZM4.5 2.28571H6.75V4.57143H4.5V2.28571ZM16.875 11.4286H15.75C15.7493 10.8226 15.512 10.2416 15.0902 9.81309C14.6684 9.38459 14.0965 9.14355 13.5 9.14286H11.25C10.6535 9.14355 10.0816 9.38459 9.65976 9.81309C9.23795 10.2416 9.00068 10.8226 9 11.4286H1.125C0.826631 11.4286 0.540484 11.549 0.329505 11.7633C0.118527 11.9776 0 12.2683 0 12.5714C0 12.8745 0.118527 13.1652 0.329505 13.3796C0.540484 13.5939 0.826631 13.7143 1.125 13.7143H9C9.00068 14.3203 9.23795 14.9013 9.65976 15.3298C10.0816 15.7583 10.6535 15.9993 11.25 16H13.5C14.0965 15.9993 14.6684 15.7583 15.0902 15.3298C15.512 14.9013 15.7493 14.3203 15.75 13.7143H16.875C17.1734 13.7143 17.4595 13.5939 17.6705 13.3796C17.8815 13.1652 18 12.8745 18 12.5714C18 12.2683 17.8815 11.9776 17.6705 11.7633C17.4595 11.549 17.1734 11.4286 16.875 11.4286ZM13.5 13.7143H11.25V11.4286H13.5V13.7143Z" fill="white"/>
</svg>
