<svg width="22" height="22" viewBox="0 0 22 22" fill="none" xmlns="http://www.w3.org/2000/svg">
<mask id="path-1-outside-1_819_3083" maskUnits="userSpaceOnUse" x="0" y="0" width="22" height="22" fill="black">
<rect fill="white" width="22" height="22"/>
<path fill-rule="evenodd" clip-rule="evenodd" d="M4.12234 20.303C6.38546 20.7636 8.68891 20.9971 10.9984 21C13.3078 20.9982 15.6113 20.7657 17.8745 20.3061C18.4741 20.1859 19.0248 19.8908 19.4569 19.458C19.8891 19.0253 20.1835 18.4743 20.303 17.8745C21.2281 13.3287 21.2281 8.64314 20.303 4.09734C20.1785 3.5027 19.882 2.95779 19.4502 2.53043C19.0183 2.10307 18.4704 1.81214 17.8745 1.69383C13.3287 0.768723 8.64314 0.768723 4.09734 1.69383C3.5027 1.8183 2.95779 2.11489 2.53043 2.54669C2.10307 2.9785 1.81214 3.52644 1.69383 4.12234C0.768723 8.66814 0.768723 13.3537 1.69383 17.8995C1.8183 18.4942 2.11489 19.0391 2.54669 19.4664C2.9785 19.8938 3.52644 20.1847 4.12234 20.303ZM2.93153 4.363C3.00392 4.008 3.17911 3.68212 3.4353 3.42593C3.6915 3.16973 4.01737 2.99454 4.37238 2.92215C8.75315 2.03038 13.2687 2.03038 17.6495 2.92215C18.0045 2.99454 18.3304 3.16973 18.5865 3.42593C18.8427 3.68212 19.0179 4.008 19.0903 4.363C19.9811 8.74388 19.9811 13.2592 19.0903 17.6401C19.0179 17.9951 18.8427 18.321 18.5865 18.5772C18.3304 18.8334 18.0045 19.0086 17.6495 19.0809C13.2686 19.9717 8.75326 19.9717 4.37238 19.0809C4.01737 19.0086 3.6915 18.8334 3.4353 18.5772C3.17911 18.321 3.00392 17.9951 2.93153 17.6401C2.03623 13.259 2.03198 8.7426 2.91903 4.35988L2.93153 4.363ZM8.6251 8.2502H15.5012C15.667 8.2502 15.826 8.18434 15.9432 8.06711C16.0604 7.94988 16.1263 7.79088 16.1263 7.6251C16.1263 7.45931 16.0604 7.30032 15.9432 7.18309C15.826 7.06586 15.667 7 15.5012 7H8.6251C8.45931 7 8.30032 7.06586 8.18309 7.18309C8.06586 7.30032 8 7.45931 8 7.6251C8 7.79088 8.06586 7.94988 8.18309 8.06711C8.30032 8.18434 8.45931 8.2502 8.6251 8.2502ZM6.93523 7.87281C6.93523 8.21804 6.65537 8.49791 6.31014 8.49791C5.9649 8.49791 5.68504 8.21804 5.68504 7.87281C5.68504 7.52758 5.9649 7.24771 6.31014 7.24771C6.65537 7.24771 6.93523 7.52758 6.93523 7.87281ZM8.81058 14.7489H15.6867C15.8524 14.7489 16.0114 14.683 16.1287 14.5658C16.2459 14.4486 16.3118 14.2896 16.3118 14.1238C16.3118 13.958 16.2459 13.799 16.1287 13.6818C16.0114 13.5645 15.8524 13.4987 15.6867 13.4987H8.81058C8.64479 13.4987 8.48579 13.5645 8.36857 13.6818C8.25134 13.799 8.18548 13.958 8.18548 14.1238C8.18548 14.2896 8.25134 14.4486 8.36857 14.5658C8.48579 14.683 8.64479 14.7489 8.81058 14.7489ZM6.93523 14.1238C6.93523 14.469 6.65537 14.7489 6.31014 14.7489C5.9649 14.7489 5.68504 14.469 5.68504 14.1238C5.68504 13.7785 5.9649 13.4987 6.31014 13.4987C6.65537 13.4987 6.93523 13.7785 6.93523 14.1238ZM8.81058 11.6235H15.6867C15.8524 11.6235 16.0114 11.5577 16.1287 11.4404C16.2459 11.3232 16.3118 11.1642 16.3118 10.9984C16.3118 10.8326 16.2459 10.6736 16.1287 10.5564C16.0114 10.4392 15.8524 10.3733 15.6867 10.3733H11.1974C11.1006 10.1535 10.8808 10 10.6251 10C10.3694 10 10.1496 10.1535 10.0528 10.3733H8.81058C8.64479 10.3733 8.48579 10.4392 8.36857 10.5564C8.25134 10.6736 8.18548 10.8326 8.18548 10.9984C8.18548 11.1642 8.25134 11.3232 8.36857 11.4404C8.48579 11.5577 8.64479 11.6235 8.81058 11.6235Z"/>
</mask>
<path fill-rule="evenodd" clip-rule="evenodd" d="M4.12234 20.303C6.38546 20.7636 8.68891 20.9971 10.9984 21C13.3078 20.9982 15.6113 20.7657 17.8745 20.3061C18.4741 20.1859 19.0248 19.8908 19.4569 19.458C19.8891 19.0253 20.1835 18.4743 20.303 17.8745C21.2281 13.3287 21.2281 8.64314 20.303 4.09734C20.1785 3.5027 19.882 2.95779 19.4502 2.53043C19.0183 2.10307 18.4704 1.81214 17.8745 1.69383C13.3287 0.768723 8.64314 0.768723 4.09734 1.69383C3.5027 1.8183 2.95779 2.11489 2.53043 2.54669C2.10307 2.9785 1.81214 3.52644 1.69383 4.12234C0.768723 8.66814 0.768723 13.3537 1.69383 17.8995C1.8183 18.4942 2.11489 19.0391 2.54669 19.4664C2.9785 19.8938 3.52644 20.1847 4.12234 20.303ZM2.93153 4.363C3.00392 4.008 3.17911 3.68212 3.4353 3.42593C3.6915 3.16973 4.01737 2.99454 4.37238 2.92215C8.75315 2.03038 13.2687 2.03038 17.6495 2.92215C18.0045 2.99454 18.3304 3.16973 18.5865 3.42593C18.8427 3.68212 19.0179 4.008 19.0903 4.363C19.9811 8.74388 19.9811 13.2592 19.0903 17.6401C19.0179 17.9951 18.8427 18.321 18.5865 18.5772C18.3304 18.8334 18.0045 19.0086 17.6495 19.0809C13.2686 19.9717 8.75326 19.9717 4.37238 19.0809C4.01737 19.0086 3.6915 18.8334 3.4353 18.5772C3.17911 18.321 3.00392 17.9951 2.93153 17.6401C2.03623 13.259 2.03198 8.7426 2.91903 4.35988L2.93153 4.363ZM8.6251 8.2502H15.5012C15.667 8.2502 15.826 8.18434 15.9432 8.06711C16.0604 7.94988 16.1263 7.79088 16.1263 7.6251C16.1263 7.45931 16.0604 7.30032 15.9432 7.18309C15.826 7.06586 15.667 7 15.5012 7H8.6251C8.45931 7 8.30032 7.06586 8.18309 7.18309C8.06586 7.30032 8 7.45931 8 7.6251C8 7.79088 8.06586 7.94988 8.18309 8.06711C8.30032 8.18434 8.45931 8.2502 8.6251 8.2502ZM6.93523 7.87281C6.93523 8.21804 6.65537 8.49791 6.31014 8.49791C5.9649 8.49791 5.68504 8.21804 5.68504 7.87281C5.68504 7.52758 5.9649 7.24771 6.31014 7.24771C6.65537 7.24771 6.93523 7.52758 6.93523 7.87281ZM8.81058 14.7489H15.6867C15.8524 14.7489 16.0114 14.683 16.1287 14.5658C16.2459 14.4486 16.3118 14.2896 16.3118 14.1238C16.3118 13.958 16.2459 13.799 16.1287 13.6818C16.0114 13.5645 15.8524 13.4987 15.6867 13.4987H8.81058C8.64479 13.4987 8.48579 13.5645 8.36857 13.6818C8.25134 13.799 8.18548 13.958 8.18548 14.1238C8.18548 14.2896 8.25134 14.4486 8.36857 14.5658C8.48579 14.683 8.64479 14.7489 8.81058 14.7489ZM6.93523 14.1238C6.93523 14.469 6.65537 14.7489 6.31014 14.7489C5.9649 14.7489 5.68504 14.469 5.68504 14.1238C5.68504 13.7785 5.9649 13.4987 6.31014 13.4987C6.65537 13.4987 6.93523 13.7785 6.93523 14.1238ZM8.81058 11.6235H15.6867C15.8524 11.6235 16.0114 11.5577 16.1287 11.4404C16.2459 11.3232 16.3118 11.1642 16.3118 10.9984C16.3118 10.8326 16.2459 10.6736 16.1287 10.5564C16.0114 10.4392 15.8524 10.3733 15.6867 10.3733H11.1974C11.1006 10.1535 10.8808 10 10.6251 10C10.3694 10 10.1496 10.1535 10.0528 10.3733H8.81058C8.64479 10.3733 8.48579 10.4392 8.36857 10.5564C8.25134 10.6736 8.18548 10.8326 8.18548 10.9984C8.18548 11.1642 8.25134 11.3232 8.36857 11.4404C8.48579 11.5577 8.64479 11.6235 8.81058 11.6235Z" fill="white"/>
<path d="M10.9984 21L10.9982 21.2H10.9986L10.9984 21ZM4.12234 20.303L4.16223 20.107L4.16129 20.1068L4.12234 20.303ZM17.8745 20.3061L17.8352 20.11L17.8347 20.1101L17.8745 20.3061ZM19.4569 19.458L19.5984 19.5994L19.4569 19.458ZM20.303 17.8745L20.107 17.8346L20.1069 17.8354L20.303 17.8745ZM20.303 4.09734L20.499 4.05745L20.4988 4.05636L20.303 4.09734ZM19.4502 2.53043L19.5908 2.38828V2.38828L19.4502 2.53043ZM17.8745 1.69383L17.8346 1.88982L17.8356 1.89L17.8745 1.69383ZM4.09734 1.69383L4.05745 1.49785L4.05636 1.49807L4.09734 1.69383ZM2.53043 2.54669L2.38828 2.406H2.38828L2.53043 2.54669ZM1.69383 4.12234L1.88982 4.16222L1.89 4.16129L1.69383 4.12234ZM1.69383 17.8995L1.49785 17.9394L1.49807 17.9405L1.69383 17.8995ZM2.54669 19.4664L2.68738 19.3243H2.68738L2.54669 19.4664ZM2.93153 4.363L2.88302 4.55703L3.08574 4.60772L3.12749 4.40296L2.93153 4.363ZM4.37238 2.92215L4.33248 2.72617L4.33242 2.72618L4.37238 2.92215ZM17.6495 2.92215L17.6894 2.72618L17.6894 2.72617L17.6495 2.92215ZM19.0903 4.363L19.2863 4.32315L19.2863 4.32304L19.0903 4.363ZM19.0903 17.6401L19.2863 17.6801L19.2863 17.6799L19.0903 17.6401ZM17.6495 19.0809L17.6893 19.2769L17.6894 19.2769L17.6495 19.0809ZM4.37238 19.0809L4.33242 19.2769L4.33253 19.2769L4.37238 19.0809ZM2.93153 17.6401L3.12749 17.6001L3.12748 17.6001L2.93153 17.6401ZM2.91903 4.35988L2.96753 4.16585L2.76451 4.11509L2.723 4.3202L2.91903 4.35988ZM15.9432 8.06711L15.8018 7.92569L15.9432 8.06711ZM15.9432 7.18309L15.8018 7.32451V7.32451L15.9432 7.18309ZM8.18309 7.18309L8.32451 7.32451L8.32451 7.32451L8.18309 7.18309ZM8.18309 8.06711L8.32451 7.92569L8.32451 7.92569L8.18309 8.06711ZM16.1287 14.5658L15.9873 14.4244L15.9872 14.4244L16.1287 14.5658ZM16.1287 13.6818L15.9873 13.8232L15.9873 13.8232L16.1287 13.6818ZM8.36857 13.6818L8.50999 13.8232H8.50999L8.36857 13.6818ZM8.36857 14.5658L8.50999 14.4244L8.50999 14.4244L8.36857 14.5658ZM16.1287 11.4404L15.9873 11.299L15.9872 11.299L16.1287 11.4404ZM16.1287 10.5564L15.9873 10.6978L15.9873 10.6978L16.1287 10.5564ZM11.1974 10.3733L11.0144 10.454L11.067 10.5733H11.1974V10.3733ZM10.0528 10.3733V10.5733H10.1832L10.2358 10.454L10.0528 10.3733ZM8.36857 10.5564L8.50999 10.6978H8.50999L8.36857 10.5564ZM8.36857 11.4404L8.50999 11.299L8.50999 11.299L8.36857 11.4404ZM10.9987 20.8C8.70247 20.7971 6.4123 20.565 4.16223 20.107L4.08245 20.499C6.35861 20.9623 8.67535 21.1971 10.9982 21.2L10.9987 20.8ZM17.8347 20.1101C15.5845 20.5671 13.2944 20.7982 10.9983 20.8L10.9986 21.2C13.3213 21.1981 15.638 20.9644 17.9143 20.5021L17.8347 20.1101ZM19.3154 19.3167C18.9112 19.7215 18.3961 19.9975 17.8352 20.11L17.9138 20.5022C18.5522 20.3742 19.1384 20.06 19.5984 19.5994L19.3154 19.3167ZM20.1069 17.8354C19.9951 18.3965 19.7197 18.9119 19.3154 19.3167L19.5984 19.5994C20.0585 19.1387 20.3719 18.5521 20.4992 17.9136L20.1069 17.8354ZM20.107 4.13722C21.0268 8.6567 21.0268 13.3151 20.107 17.8346L20.499 17.9144C21.4295 13.3423 21.4295 8.62957 20.499 4.05745L20.107 4.13722ZM19.3095 2.67258C19.7134 3.07234 19.9908 3.58207 20.1073 4.13831L20.4988 4.05636C20.3663 3.42333 20.0505 2.84323 19.5908 2.38828L19.3095 2.67258ZM17.8356 1.89C18.393 2.00067 18.9055 2.27282 19.3095 2.67258L19.5908 2.38828C19.1312 1.93333 18.5478 1.62361 17.9135 1.49766L17.8356 1.89ZM4.13722 1.88981C8.6567 0.970062 13.3151 0.970062 17.8346 1.88981L17.9144 1.49785C13.3423 0.567384 8.62957 0.567384 4.05745 1.49785L4.13722 1.88981ZM2.67258 2.68738C3.07234 2.28346 3.58207 2.00602 4.13831 1.88959L4.05636 1.49807C3.42332 1.63058 2.84323 1.94632 2.38828 2.406L2.67258 2.68738ZM1.89 4.16129C2.00067 3.60387 2.27282 3.0913 2.67258 2.68738L2.38828 2.406C1.93333 2.86569 1.6236 3.44902 1.49766 4.08339L1.89 4.16129ZM1.88981 17.8596C0.970062 13.3401 0.970062 8.68171 1.88981 4.16222L1.49785 4.08246C0.567384 8.65458 0.567384 13.3673 1.49785 17.9394L1.88981 17.8596ZM2.68738 19.3243C2.28346 18.9245 2.00602 18.4148 1.88959 17.8585L1.49807 17.9405C1.63058 18.5735 1.94632 19.1536 2.406 19.6086L2.68738 19.3243ZM4.16129 20.1068C3.60387 19.9962 3.0913 19.724 2.68738 19.3243L2.406 19.6086C2.86569 20.0635 3.44902 20.3732 4.08339 20.4992L4.16129 20.1068ZM3.29388 3.28451C3.00995 3.56844 2.81579 3.9296 2.73556 4.32304L3.12749 4.40296C3.19205 4.0864 3.34827 3.7958 3.57673 3.56735L3.29388 3.28451ZM4.33242 2.72618C3.93898 2.80641 3.57781 3.00057 3.29388 3.28451L3.57673 3.56735C3.80518 3.3389 4.09577 3.18267 4.41234 3.11812L4.33242 2.72618ZM17.6894 2.72617C13.2823 1.82904 8.73958 1.82904 4.33248 2.72617L4.41227 3.11813C8.76672 2.23172 13.2551 2.23172 17.6096 3.11813L17.6894 2.72617ZM18.728 3.28451C18.444 3.00057 18.0829 2.80641 17.6894 2.72618L17.6095 3.11812C17.9261 3.18267 18.2167 3.3389 18.4451 3.56735L18.728 3.28451ZM19.2863 4.32304C19.2061 3.9296 19.0119 3.56844 18.728 3.28451L18.4451 3.56735C18.6736 3.7958 18.8298 4.0864 18.8944 4.40296L19.2863 4.32304ZM19.2863 17.6799C20.1824 13.2728 20.1824 8.73033 19.2863 4.32315L18.8943 4.40285C19.7797 8.75743 19.7797 13.2457 18.8943 17.6002L19.2863 17.6799ZM18.728 18.7186C19.0119 18.4347 19.2061 18.0735 19.2863 17.6801L18.8944 17.6001C18.8298 17.9167 18.6736 18.2073 18.4451 18.4357L18.728 18.7186ZM17.6894 19.2769C18.0829 19.1967 18.444 19.0025 18.728 18.7186L18.4451 18.4357C18.2167 18.6642 17.9261 18.8204 17.6095 18.885L17.6894 19.2769ZM4.33253 19.2769C8.7397 20.173 13.2821 20.173 17.6893 19.2769L17.6096 18.885C13.255 19.7704 8.76681 19.7704 4.41223 18.885L4.33253 19.2769ZM3.29388 18.7186C3.57781 19.0025 3.93898 19.1967 4.33242 19.2769L4.41234 18.885C4.09577 18.8204 3.80518 18.6642 3.57673 18.4358L3.29388 18.7186ZM2.73556 17.6801C2.81579 18.0735 3.00995 18.4347 3.29388 18.7186L3.57673 18.4358C3.34827 18.2073 3.19205 17.9167 3.12749 17.6001L2.73556 17.6801ZM2.723 4.3202C1.83063 8.72924 1.83491 13.2728 2.73558 17.6801L3.12748 17.6001C2.23755 13.2453 2.23333 8.75597 3.11505 4.39955L2.723 4.3202ZM2.98004 4.16898L2.96753 4.16585L2.87052 4.55391L2.88302 4.55703L2.98004 4.16898ZM15.5012 8.0502H8.6251V8.4502H15.5012V8.0502ZM15.8018 7.92569C15.7221 8.00541 15.6139 8.0502 15.5012 8.0502V8.4502C15.72 8.4502 15.9299 8.36327 16.0846 8.20853L15.8018 7.92569ZM15.9263 7.6251C15.9263 7.73784 15.8815 7.84597 15.8018 7.92569L16.0846 8.20853C16.2394 8.05379 16.3263 7.84393 16.3263 7.6251H15.9263ZM15.8018 7.32451C15.8815 7.40423 15.9263 7.51235 15.9263 7.6251H16.3263C16.3263 7.40627 16.2394 7.1964 16.0846 7.04167L15.8018 7.32451ZM15.5012 7.2C15.6139 7.2 15.7221 7.24479 15.8018 7.32451L16.0846 7.04167C15.9299 6.88693 15.72 6.8 15.5012 6.8V7.2ZM8.6251 7.2H15.5012V6.8H8.6251V7.2ZM8.32451 7.32451C8.40423 7.24479 8.51236 7.2 8.6251 7.2V6.8C8.40627 6.8 8.1964 6.88693 8.04167 7.04167L8.32451 7.32451ZM8.2 7.6251C8.2 7.51236 8.24479 7.40423 8.32451 7.32451L8.04167 7.04167C7.88693 7.1964 7.8 7.40627 7.8 7.6251H8.2ZM8.32451 7.92569C8.24479 7.84597 8.2 7.73784 8.2 7.6251H7.8C7.8 7.84393 7.88693 8.0538 8.04167 8.20853L8.32451 7.92569ZM8.6251 8.0502C8.51236 8.0502 8.40423 8.00541 8.32451 7.92569L8.04167 8.20853C8.1964 8.36327 8.40627 8.4502 8.6251 8.4502V8.0502ZM6.31014 8.69791C6.76582 8.69791 7.13523 8.3285 7.13523 7.87281H6.73523C6.73523 8.10758 6.54491 8.29791 6.31014 8.29791V8.69791ZM5.48504 7.87281C5.48504 8.3285 5.85445 8.69791 6.31014 8.69791V8.29791C6.07536 8.29791 5.88504 8.10758 5.88504 7.87281H5.48504ZM6.31014 7.04771C5.85445 7.04771 5.48504 7.41712 5.48504 7.87281H5.88504C5.88504 7.63803 6.07536 7.44771 6.31014 7.44771V7.04771ZM7.13523 7.87281C7.13523 7.41712 6.76582 7.04771 6.31014 7.04771V7.44771C6.54491 7.44771 6.73523 7.63803 6.73523 7.87281H7.13523ZM15.6867 14.5489H8.81058V14.9489H15.6867V14.5489ZM15.9872 14.4244C15.9075 14.5041 15.7994 14.5489 15.6867 14.5489V14.9489C15.9055 14.9489 16.1154 14.8619 16.2701 14.7072L15.9872 14.4244ZM16.1118 14.1238C16.1118 14.2365 16.067 14.3446 15.9873 14.4244L16.2701 14.7072C16.4248 14.5525 16.5118 14.3426 16.5118 14.1238H16.1118ZM15.9873 13.8232C16.067 13.9029 16.1118 14.011 16.1118 14.1238H16.5118C16.5118 13.9049 16.4248 13.6951 16.2701 13.5403L15.9873 13.8232ZM15.6867 13.6987C15.7994 13.6987 15.9075 13.7435 15.9873 13.8232L16.2701 13.5403C16.1154 13.3856 15.9055 13.2987 15.6867 13.2987V13.6987ZM8.81058 13.6987H15.6867V13.2987H8.81058V13.6987ZM8.50999 13.8232C8.58971 13.7435 8.69783 13.6987 8.81058 13.6987V13.2987C8.59175 13.2987 8.38188 13.3856 8.22714 13.5403L8.50999 13.8232ZM8.38548 14.1238C8.38548 14.011 8.43026 13.9029 8.50999 13.8232L8.22714 13.5403C8.07241 13.6951 7.98548 13.9049 7.98548 14.1238H8.38548ZM8.50999 14.4244C8.43026 14.3446 8.38548 14.2365 8.38548 14.1238H7.98548C7.98548 14.3426 8.07241 14.5525 8.22714 14.7072L8.50999 14.4244ZM8.81058 14.5489C8.69783 14.5489 8.58971 14.5041 8.50999 14.4244L8.22714 14.7072C8.38188 14.8619 8.59175 14.9489 8.81058 14.9489V14.5489ZM6.31014 14.9489C6.76583 14.9489 7.13523 14.5795 7.13523 14.1238H6.73523C6.73523 14.3586 6.54491 14.5489 6.31014 14.5489V14.9489ZM5.48504 14.1238C5.48504 14.5795 5.85445 14.9489 6.31014 14.9489V14.5489C6.07536 14.5489 5.88504 14.3586 5.88504 14.1238H5.48504ZM6.31014 13.2987C5.85445 13.2987 5.48504 13.6681 5.48504 14.1238H5.88504C5.88504 13.889 6.07536 13.6987 6.31014 13.6987V13.2987ZM7.13523 14.1238C7.13523 13.6681 6.76582 13.2987 6.31014 13.2987V13.6987C6.54491 13.6987 6.73523 13.889 6.73523 14.1238H7.13523ZM15.6867 11.4235H8.81058V11.8235H15.6867V11.4235ZM15.9872 11.299C15.9075 11.3787 15.7994 11.4235 15.6867 11.4235V11.8235C15.9055 11.8235 16.1154 11.7366 16.2701 11.5819L15.9872 11.299ZM16.1118 10.9984C16.1118 11.1112 16.067 11.2193 15.9873 11.299L16.2701 11.5819C16.4248 11.4271 16.5118 11.2173 16.5118 10.9984H16.1118ZM15.9873 10.6978C16.067 10.7776 16.1118 10.8857 16.1118 10.9984H16.5118C16.5118 10.7796 16.4248 10.5697 16.2701 10.415L15.9873 10.6978ZM15.6867 10.5733C15.7994 10.5733 15.9075 10.6181 15.9873 10.6978L16.2701 10.415C16.1154 10.2603 15.9055 10.1733 15.6867 10.1733V10.5733ZM11.1974 10.5733H15.6867V10.1733H11.1974V10.5733ZM11.3805 10.2927C11.2528 10.0029 10.9629 9.8 10.6251 9.8V10.2C10.7987 10.2 10.9483 10.304 11.0144 10.454L11.3805 10.2927ZM10.6251 9.8C10.2873 9.8 9.9974 10.0029 9.86975 10.2927L10.2358 10.454C10.3018 10.304 10.4515 10.2 10.6251 10.2V9.8ZM8.81058 10.5733H10.0528V10.1733H8.81058V10.5733ZM8.50999 10.6978C8.58971 10.6181 8.69783 10.5733 8.81058 10.5733V10.1733C8.59175 10.1733 8.38188 10.2603 8.22714 10.415L8.50999 10.6978ZM8.38548 10.9984C8.38548 10.8857 8.43026 10.7776 8.50999 10.6978L8.22714 10.415C8.07241 10.5697 7.98548 10.7796 7.98548 10.9984H8.38548ZM8.50999 11.299C8.43026 11.2193 8.38548 11.1112 8.38548 10.9984H7.98548C7.98548 11.2173 8.07241 11.4271 8.22714 11.5819L8.50999 11.299ZM8.81058 11.4235C8.69783 11.4235 8.58971 11.3787 8.50999 11.299L8.22714 11.5819C8.38188 11.7366 8.59175 11.8235 8.81058 11.8235V11.4235Z" fill="white" mask="url(#path-1-outside-1_819_3083)"/>
</svg>
