<svg width="16" height="20" viewBox="0 0 16 20" fill="none" xmlns="http://www.w3.org/2000/svg">
<path d="M15.9936 19.1175C16.0081 19.228 15.9979 19.3402 15.9637 19.4466C15.9295 19.553 15.872 19.6512 15.795 19.7347C15.7181 19.8182 15.6235 19.885 15.5175 19.9308C15.4115 19.9765 15.2965 20.0001 15.1803 20H0.819728C0.70347 20.0001 0.588518 19.9765 0.48252 19.9308C0.376521 19.885 0.281906 19.8182 0.204967 19.7347C0.128029 19.6512 0.0705323 19.553 0.036301 19.4466C0.00206962 19.3402 -0.00811133 19.228 0.0064356 19.1175L0.366655 16.3541C0.429929 15.871 0.648306 15.4187 0.991601 15.0596C1.3349 14.7006 1.78615 14.4525 2.283 14.3498L2.70084 14.257C2.80586 14.2336 2.91466 14.2302 3.02103 14.2471C3.1274 14.264 3.22925 14.3008 3.32074 14.3555C3.41222 14.4102 3.49155 14.4816 3.55419 14.5657C3.61682 14.6497 3.66152 14.7448 3.68574 14.8454C3.70995 14.9461 3.7132 15.0503 3.6953 15.1522C3.6774 15.254 3.6387 15.3515 3.58142 15.439C3.52414 15.5265 3.4494 15.6023 3.36148 15.6621C3.27356 15.7219 3.17419 15.7645 3.06906 15.7874L2.6432 15.8818C2.47705 15.9151 2.32561 15.9965 2.20935 16.115C2.0931 16.2335 2.01765 16.3833 1.99322 16.5442L1.74827 18.4297H7.1803V16.7658C7.1803 16.5576 7.26666 16.3579 7.42038 16.2107C7.5741 16.0634 7.78259 15.9807 7.99998 15.9807C8.21738 15.9807 8.42587 16.0634 8.57959 16.2107C8.73331 16.3579 8.81967 16.5576 8.81967 16.7658V18.4297H14.2517L14.0067 16.5489C13.9838 16.3883 13.9099 16.2384 13.7951 16.1193C13.6803 16.0003 13.5301 15.9179 13.3648 15.8833L12.9309 15.7875C12.8258 15.7646 12.7264 15.722 12.6385 15.6622C12.5506 15.6024 12.4758 15.5266 12.4185 15.4391C12.3613 15.3516 12.3226 15.2541 12.3047 15.1523C12.2868 15.0504 12.29 14.9462 12.3142 14.8455C12.3384 14.7449 12.3831 14.6498 12.4458 14.5657C12.5084 14.4817 12.5877 14.4102 12.6792 14.3556C12.7707 14.3009 12.8726 14.2641 12.9789 14.2472C13.0853 14.2303 13.1941 14.2336 13.2991 14.2571L13.725 14.3514C14.221 14.4554 14.671 14.7045 15.0128 15.064C15.3547 15.4236 15.5715 15.876 15.6333 16.3588L15.9936 19.1175ZM1.28561 2.95278C1.24905 2.76897 1.28239 2.57871 1.37959 2.41641C1.47678 2.25411 1.63142 2.1305 1.81552 2.06794L7.72457 0.0460019C7.90256 -0.015334 8.09731 -0.015334 8.2753 0.0460019L14.1844 2.06794C14.3685 2.1305 14.5231 2.25411 14.6203 2.41641C14.7175 2.57871 14.7509 2.76897 14.7143 2.95278L13.8546 7.3043C13.9509 9.32182 13.2815 11.3045 11.9703 12.8861C11.458 13.394 10.8395 13.7927 10.1554 14.056C9.47123 14.3193 8.73676 14.4414 7.99998 14.4142C7.26319 14.4414 6.52871 14.3193 5.84453 14.056C5.16036 13.7927 4.54192 13.394 4.02962 12.886C2.71839 11.3045 2.04906 9.32179 2.14531 7.3043L1.28561 2.95278ZM12.1871 8.15222C10.7996 8.3471 9.40161 8.46585 7.99998 8.5079C6.59835 8.46585 5.20038 8.3471 3.81289 8.15222C3.85451 9.4863 4.34999 10.7708 5.22393 11.8103C5.58353 12.1615 6.01708 12.4353 6.49574 12.6135C6.97439 12.7917 7.48718 12.8702 7.99998 12.8438C8.51279 12.8702 9.02558 12.7917 9.50424 12.6135C9.9829 12.4353 10.4164 12.1614 10.776 11.8103C11.65 10.7708 12.1454 9.48627 12.1871 8.15222ZM3.02583 3.32081L3.66371 6.54674C5.10022 6.75574 6.54799 6.88623 7.99998 6.93759C9.45198 6.88623 10.8997 6.75574 12.3363 6.54674L12.9741 3.32081L7.99998 1.61862L3.02583 3.32081ZM6.76718 5.24383H7.1803V5.63947C7.1803 5.84771 7.26666 6.04742 7.42038 6.19466C7.5741 6.34191 7.78259 6.42463 7.99998 6.42463C8.21738 6.42463 8.42587 6.34191 8.57959 6.19466C8.73331 6.04742 8.81967 5.84771 8.81967 5.63947V5.24383H9.23279C9.45019 5.24383 9.65868 5.16111 9.8124 5.01386C9.96612 4.86662 10.0525 4.66691 10.0525 4.45868C10.0525 4.25044 9.96612 4.05073 9.8124 3.90349C9.65868 3.75624 9.45019 3.67352 9.23279 3.67352H8.81967V3.27865C8.81967 3.07041 8.73331 2.8707 8.57959 2.72346C8.42587 2.57621 8.21738 2.49349 7.99998 2.49349C7.78259 2.49349 7.5741 2.57621 7.42038 2.72346C7.26666 2.8707 7.1803 3.07041 7.1803 3.27865V3.67352H6.76718C6.54978 3.67352 6.34129 3.75624 6.18757 3.90349C6.03385 4.05073 5.94749 4.25044 5.94749 4.45868C5.94749 4.66691 6.03385 4.86662 6.18757 5.01386C6.34129 5.16111 6.54978 5.24383 6.76718 5.24383Z" fill="white"/>
</svg>
