<svg width="16" height="16" viewBox="0 0 16 16" fill="none" xmlns="http://www.w3.org/2000/svg">
<path d="M12.6668 0.000824712H3.33285C2.89067 -0.0158741 2.44981 0.0589137 2.03787 0.220503C1.62594 0.382093 1.25181 0.627004 0.938918 0.939894C0.626027 1.25278 0.381117 1.62691 0.219527 2.03885C0.0579371 2.45078 -0.0168506 2.89165 -0.000151851 3.33382V12.6628C-0.0168506 13.105 0.0579371 13.5459 0.219527 13.9578C0.381117 14.3697 0.626027 14.7439 0.938918 15.0568C1.25181 15.3696 1.62594 15.6146 2.03787 15.7761C2.44981 15.9377 2.89067 16.0125 3.33285 15.9958H12.6658C13.1081 16.0127 13.5491 15.938 13.9611 15.7765C14.3732 15.6149 14.7474 15.37 15.0604 15.0571C15.3734 14.7442 15.6184 14.3701 15.7801 13.958C15.9417 13.546 16.0166 13.1051 15.9998 12.6628V3.33382C16.0165 2.89165 15.9418 2.45078 15.7802 2.03885C15.6186 1.62691 15.3737 1.25278 15.0608 0.939894C14.7479 0.627004 14.3738 0.382093 13.9618 0.220503C13.5499 0.0589137 13.109 -0.0158741 12.6668 0.000824712ZM14.6668 12.6628C14.6813 12.9293 14.6394 13.1958 14.544 13.4449C14.4486 13.6941 14.3018 13.9204 14.1131 14.1091C13.9245 14.2978 13.6982 14.4446 13.449 14.54C13.1998 14.6354 12.9333 14.6773 12.6668 14.6628H3.33685C3.07041 14.6773 2.80392 14.6354 2.55473 14.54C2.30554 14.4446 2.07924 14.2978 1.89056 14.1091C1.70189 13.9204 1.55507 13.6941 1.45966 13.4449C1.36426 13.1958 1.32241 12.9293 1.33685 12.6628V3.33682C1.32241 3.07039 1.36426 2.8039 1.45966 2.55471C1.55507 2.30552 1.70189 2.07922 1.89056 1.89054C2.07924 1.70186 2.30554 1.55504 2.55473 1.45964C2.80392 1.36424 3.07041 1.32239 3.33685 1.33682H12.6658C12.9323 1.32239 13.1988 1.36424 13.448 1.45964C13.6972 1.55504 13.9235 1.70186 14.1121 1.89054C14.3008 2.07922 14.4476 2.30552 14.543 2.55471C14.6384 2.8039 14.6803 3.07039 14.6658 3.33682L14.6668 12.6628ZM8.66685 7.33382H11.9998V8.66282H8.66685V11.9958H7.33285V8.66282H3.99985V7.33382H7.33285V4.00082H8.66585L8.66685 7.33382Z" fill="#00BDD0"/>
</svg>
