<svg width="22" height="14" viewBox="0 0 22 14" fill="none" xmlns="http://www.w3.org/2000/svg">
<path d="M11 1C6.64706 1 2.88235 3.47059 1 7.09412C2.88235 10.7176 6.64706 13.1882 11 13.1882C15.3529 13.1882 19.1176 10.7176 21 7.09412C19.1176 3.47059 15.3529 1 11 1ZM11 12.2235C7.30588 12.2235 3.91765 10.2706 2.08235 7.07059C3.91765 3.89412 7.30588 1.94118 11 1.94118C14.6941 1.94118 18.0824 3.89412 19.9176 7.09412C18.0824 10.2706 14.6941 12.2235 11 12.2235Z" fill="#00BDD0" stroke="#00BDD0" stroke-width="0.3"/>
<path d="M11.0002 3.02344C8.76489 3.02344 6.95312 4.8352 6.95312 7.0705C6.95312 9.30579 8.76489 11.1176 11.0002 11.1176C13.2355 11.1176 15.0472 9.30579 15.0472 7.0705C15.0472 4.8352 13.2355 3.02344 11.0002 3.02344ZM11.0002 10.1764C9.28254 10.1764 7.8943 8.78814 7.8943 7.0705C7.8943 5.35285 9.28254 3.96461 11.0002 3.96461C12.7178 3.96461 14.1061 5.35285 14.1061 7.0705C14.1061 8.78814 12.7178 10.1764 11.0002 10.1764Z" fill="#00BDD0" stroke="#00BDD0" stroke-width="0.3"/>
</svg>
