<svg xmlns="http://www.w3.org/2000/svg" width="12.2" height="12.2" viewBox="0 0 12.2 12.2">
  <g id="noun-version-control-6150039" transform="translate(-1.9 -1.9)">
    <path id="Path_125339" data-name="Path 125339" d="M9.8,3.8A1.8,1.8,0,1,0,7.6,5.555V8H5.027a2,2,0,0,0-2,1.967l-.021,1.29a1.4,1.4,0,1,0,.8,0l.021-1.28a1.2,1.2,0,0,1,1.2-1.18H7.6v2.4a.4.4,0,0,0,0,.057,1.4,1.4,0,1,0,.792,0,.4.4,0,0,0,0-.057V8.8H11A1.2,1.2,0,0,1,12.2,10v1.258a1.4,1.4,0,1,0,.8,0V10a2,2,0,0,0-2-2H8.4V5.555A1.8,1.8,0,0,0,9.8,3.8ZM8,2.8a1,1,0,1,1-1,1A1,1,0,0,1,8,2.8ZM3.4,12h0a.6.6,0,1,1-.6.6A.6.6,0,0,1,3.4,12ZM8,12a.6.6,0,1,1-.6.6A.6.6,0,0,1,8,12Zm5.2.6a.6.6,0,1,0-.6.6A.6.6,0,0,0,13.2,12.6Z" fill="#574191" stroke="#574191" stroke-width="0.2" fill-rule="evenodd"/>
  </g>
</svg>
