<svg width="22" height="20" viewBox="0 0 22 20" fill="none" xmlns="http://www.w3.org/2000/svg">
<path d="M11.0002 6.02344C8.76489 6.02344 6.95312 7.8352 6.95312 10.0705C6.95312 12.3058 8.76489 14.1176 11.0002 14.1176C13.2355 14.1176 15.0472 12.3058 15.0472 10.0705C15.0472 7.8352 13.2355 6.02344 11.0002 6.02344ZM11.0002 13.1764C9.28254 13.1764 7.8943 11.7881 7.8943 10.0705C7.8943 8.35285 9.28254 6.96461 11.0002 6.96461C12.7178 6.96461 14.1061 8.35285 14.1061 10.0705C14.1061 11.7881 12.7178 13.1764 11.0002 13.1764Z" fill="#00BDD0" stroke="#00BDD0" stroke-width="0.3"/>
<path d="M11 4C6.64706 4 2.88235 6.47059 1 10.0941C2.88235 13.7176 6.64706 16.1882 11 16.1882C15.3529 16.1882 19.1176 13.7176 21 10.0941C19.1176 6.47059 15.3529 4 11 4ZM11 15.2235C7.30588 15.2235 3.91765 13.2706 2.08235 10.0706C3.91765 6.89412 7.30588 4.94118 11 4.94118C14.6941 4.94118 18.0824 6.89412 19.9176 10.0941C18.0824 13.2706 14.6941 15.2235 11 15.2235Z" fill="#00BDD0" stroke="#00BDD0" stroke-width="0.3"/>
<path d="M2.5 1.5L19.5 18.5" stroke="#00BDD0" stroke-width="1.5"/>
</svg>
