<svg width="18" height="18" viewBox="0 0 18 18" fill="none" xmlns="http://www.w3.org/2000/svg">
<path d="M12.6953 5.30539C12.43 5.04013 11.9942 5.04013 11.71 5.30539L9.00052 8.01487L6.2721 5.30539C6.00684 5.04013 5.57105 5.04013 5.28684 5.30539C5.02157 5.57066 5.02157 6.00645 5.28684 6.29066L8.01526 9.00013L5.30579 11.7286C5.04052 11.9938 5.04052 12.4296 5.30579 12.7138C5.43842 12.8464 5.62789 12.9222 5.79842 12.9222C5.96894 12.9222 6.15842 12.8464 6.29105 12.7138L9.00052 9.98539L11.7289 12.7138C11.8616 12.8464 12.051 12.9222 12.2216 12.9222C12.3921 12.9222 12.5816 12.8464 12.7142 12.7138C12.9795 12.4486 12.9795 12.0128 12.7142 11.7286L9.98579 9.00013L12.7142 6.27171C12.9795 6.00645 12.9795 5.57066 12.6953 5.30539Z" fill="#003769"/>
<path d="M9 0C4.03579 0 0 4.03579 0 9C0 13.9642 4.03579 18 9 18C13.9642 18 18 13.9642 18 9C18 4.03579 13.9642 0 9 0ZM9 16.6168C4.79368 16.6168 1.38316 13.2063 1.38316 9C1.38316 4.79368 4.79368 1.38316 9 1.38316C13.2063 1.38316 16.6168 4.79368 16.6168 9C16.6168 13.2063 13.2063 16.6168 9 16.6168Z" fill="#003769"/>
</svg>
