<svg width="14" height="16" viewBox="0 0 14 16" fill="none" xmlns="http://www.w3.org/2000/svg">
<path d="M8.96775 2.09946C9.04063 2.10202 9.11326 2.08956 9.18112 2.06283C9.24897 2.03611 9.3106 1.99571 9.36217 1.94415C9.41373 1.89258 9.45413 1.83095 9.48086 1.7631C9.50758 1.69524 9.52005 1.62261 9.51749 1.54973C9.51749 1.40393 9.45957 1.26411 9.35647 1.16101C9.25338 1.05792 9.11355 1 8.96775 1H4.97303C4.82724 1 4.68741 1.05792 4.58431 1.16101C4.48122 1.26411 4.4233 1.40393 4.4233 1.54973C4.42074 1.62261 4.43321 1.69524 4.45993 1.7631C4.48665 1.83095 4.52705 1.89258 4.57862 1.94415C4.63019 1.99571 4.69181 2.03611 4.75967 2.06283C4.82752 2.08956 4.90015 2.10202 4.97303 2.09946H8.96775Z" fill="#00BDD0" stroke="#00BDD0" stroke-width="0.2"/>
<path d="M13.0907 3.12563H0.850047C0.777166 3.12307 0.704538 3.13554 0.636683 3.16226C0.568829 3.18898 0.5072 3.22938 0.455633 3.28095C0.404067 3.33252 0.363666 3.39415 0.336945 3.462C0.310224 3.52986 0.297756 3.60248 0.300315 3.67536C0.300315 3.82116 0.358233 3.96099 0.461328 4.06408C0.564423 4.16718 0.704249 4.2251 0.850047 4.2251H1.76627L2.55422 13.1674C2.59592 13.6712 2.82712 14.1405 3.2012 14.4806C3.57528 14.8206 4.06439 15.0062 4.5699 14.9998H9.37089C9.8764 15.0062 10.3655 14.8206 10.7396 14.4806C11.1137 14.1405 11.3449 13.6712 11.3866 13.1674L12.1745 4.2251H13.0907C13.2365 4.2251 13.3764 4.16718 13.4795 4.06408C13.5826 3.96099 13.6405 3.82116 13.6405 3.67536C13.643 3.60248 13.6306 3.52986 13.6039 3.462C13.5771 3.39415 13.5367 3.33252 13.4852 3.28095C13.4336 3.22938 13.372 3.18898 13.3041 3.16226C13.2363 3.13554 13.1636 3.12307 13.0907 3.12563ZM10.2871 13.0575C10.2687 13.2875 10.164 13.5022 9.99416 13.6584C9.8243 13.8147 9.60171 13.9011 9.37089 13.9004H4.5699C4.33909 13.9011 4.1165 13.8147 3.94663 13.6584C3.77677 13.5022 3.67214 13.2875 3.65368 13.0575L2.86573 4.2251H11.0751L10.2871 13.0575Z" fill="#00BDD0" stroke="#00BDD0" stroke-width="0.2"/>
</svg>
