<svg width="12" height="8" viewBox="0 0 12 8" fill="none" xmlns="http://www.w3.org/2000/svg">
<path d="M1.20549 1.20599C1.14035 1.27085 1.08867 1.3479 1.05341 1.43273C1.01815 1.51756 1 1.6085 1 1.70035C1 1.79219 1.01815 1.88313 1.05341 1.96796C1.08867 2.05279 1.14035 2.12984 1.20549 2.1947L5.85544 6.83664C5.9072 6.88843 5.96869 6.92951 6.03638 6.95754C6.10408 6.98557 6.17664 7 6.24993 7C6.32321 7 6.39578 6.98557 6.46347 6.95754C6.53116 6.92951 6.59265 6.88843 6.64442 6.83664L11.2944 2.1947C11.5685 1.92099 11.5685 1.4797 11.2944 1.20599C11.0202 0.932275 10.5781 0.932275 10.3039 1.20599L6.24713 5.25023L2.19032 1.2004C1.92173 0.932276 1.47408 0.932275 1.20549 1.20599Z" fill="#003769" stroke="#003769" stroke-width="0.2"/>
</svg>
