<svg width="14" height="14" viewBox="0 0 14 14" fill="none" xmlns="http://www.w3.org/2000/svg">
<path d="M0 11.7089C0 12.3165 0.241392 12.8993 0.671071 13.329C1.10075 13.7586 1.68352 14 2.29118 14H10.5231C11.1307 14 11.7135 13.7586 12.1432 13.329C12.5729 12.8993 12.8142 12.3165 12.8142 11.7089V9.05763C12.8142 8.88402 12.7453 8.71751 12.6225 8.59474C12.4997 8.47198 12.3332 8.40301 12.1596 8.40301C11.986 8.40301 11.8195 8.47198 11.6967 8.59474C11.574 8.71751 11.505 8.88402 11.505 9.05763V11.7089C11.505 11.9693 11.4015 12.219 11.2174 12.4032C11.0332 12.5873 10.7835 12.6908 10.5231 12.6908H2.29118C2.03076 12.6908 1.781 12.5873 1.59685 12.4032C1.4127 12.219 1.30925 11.9693 1.30925 11.7089V3.47697C1.30925 3.21655 1.4127 2.96679 1.59685 2.78264C1.781 2.59849 2.03076 2.49504 2.29118 2.49504H4.9424C5.11602 2.49504 5.28253 2.42607 5.40529 2.3033C5.52806 2.18054 5.59703 2.01403 5.59703 1.84041C5.59703 1.6668 5.52806 1.50029 5.40529 1.37753C5.28253 1.25476 5.11602 1.18579 4.9424 1.18579H2.29118C1.68352 1.18579 1.10075 1.42718 0.671071 1.85686C0.241392 2.28654 0 2.86931 0 3.47697V11.7089Z" fill="#00BDD0"/>
<path d="M13.4525 0.547503C13.0972 0.196703 12.618 0 12.1187 0C11.6194 0 11.1402 0.196703 10.7849 0.547503L4.64784 6.68459C4.56851 6.76682 4.51209 6.86838 4.48418 6.97917L3.96048 8.82848C3.92008 8.97453 3.91402 9.12794 3.94278 9.27672C3.97154 9.42549 4.03434 9.56559 4.12627 9.68605C4.2182 9.80651 4.33676 9.90406 4.47267 9.97106C4.60858 10.0381 4.75816 10.0727 4.90969 10.0723L5.17154 10.0395L7.03721 9.51584C7.14801 9.48793 7.24956 9.43151 7.33179 9.35218L13.4525 3.21509C13.8033 2.85979 14 2.3806 14 1.8813C14 1.382 13.8033 0.902803 13.4525 0.547503ZM12.5197 1.48034C12.6257 1.59017 12.6849 1.73685 12.6849 1.88948C12.6849 2.04211 12.6257 2.18879 12.5197 2.29862H12.5033L11.685 1.48034H11.7014C11.8112 1.37434 11.9579 1.31511 12.1105 1.31511C12.2632 1.31511 12.4099 1.37434 12.5197 1.48034ZM6.51351 8.30479L5.36792 8.61573L5.69524 7.48651L10.7522 2.41318L11.5705 3.23146L6.51351 8.30479Z" fill="#00BDD0"/>
</svg>
