<svg width="8" height="10" viewBox="0 0 8 10" fill="none" xmlns="http://www.w3.org/2000/svg">
<path d="M7.59967 0.5H0.407489C0.18337 0.5 0 0.685436 0 0.91208C0 0.994496 0.0305617 1.07691 0.0713106 1.14903L2.53662 4.72382V8.30891C2.53662 8.48404 2.64868 8.63857 2.80149 8.70039L4.92043 9.47304C5.13436 9.55545 5.36867 9.44213 5.43998 9.22579C5.46036 9.18458 5.46036 9.13307 5.46036 9.08156V4.73412L7.92567 1.15933C8.0581 0.973892 8.00716 0.716342 7.82379 0.582416C7.76267 0.530906 7.68117 0.5 7.59967 0.5ZM4.72687 4.36325C4.67594 4.43536 4.65556 4.51778 4.65556 4.60019V8.50465L3.3516 8.02046V4.60019C3.3516 4.51778 3.32104 4.43536 3.28029 4.36325L1.18172 1.33446H6.81526L4.72687 4.36325Z" fill="black"/>
</svg>
