<svg xmlns="http://www.w3.org/2000/svg" width="10" height="11.25" viewBox="0 0 10 11.25">
  <g id="Vector" transform="translate(0)" fill="#172d76">
    <path d="M 6.330043792724609 11.19999122619629 C 6.275144100189209 11.19999122619629 6.220784187316895 11.18978118896484 6.16849422454834 11.1696310043335 L 3.518984079360962 10.20351123809814 C 3.341264009475708 10.13158130645752 3.220763921737671 9.953551292419434 3.220763921737671 9.761131286621094 L 3.220763921737671 5.279771327972412 L 3.220763921737671 5.264201164245605 L 3.211924076080322 5.251381397247314 L 0.130283996462822 0.7829012870788574 C 0.07780399918556213 0.6896212697029114 0.04999399557709694 0.5982412695884705 0.04999399557709694 0.5151012539863586 C 0.04999399557709694 0.2586412727832794 0.2560639977455139 0.05000127851963043 0.5093539953231812 0.05000127851963043 L 9.499584197998047 0.05000127851963043 C 9.588323593139648 0.05000127851963043 9.678693771362305 0.08326128125190735 9.747513771057129 0.1412512809038162 C 9.960984230041504 0.2973312735557556 10.01309394836426 0.5896812677383423 9.86638355255127 0.7951012849807739 L 6.784274101257324 5.264251232147217 L 6.775434017181396 5.277071475982666 L 6.775434017181396 5.292641162872314 L 6.775434017181396 10.72694110870361 C 6.775434017181396 10.78715133666992 6.775434017181396 10.84403133392334 6.755144119262695 10.88507175445557 L 6.753583908081055 10.88823127746582 L 6.752473831176758 10.89158153533936 C 6.69167423248291 11.07605171203613 6.521903991699219 11.19999122619629 6.330043792724609 11.19999122619629 Z M 1.381683945655823 0.9930712580680847 L 1.436053991317749 1.071551322937012 L 4.059264183044434 4.857541084289551 C 4.11168384552002 4.950721263885498 4.139493942260742 5.042101383209229 4.139493942260742 5.125241279602051 L 4.139493942260742 9.400561332702637 L 4.139493942260742 9.435331344604492 L 4.172093868255615 9.447431564331055 L 5.802063941955566 10.05267143249512 L 5.869463920593262 10.07770156860352 L 5.869463920593262 10.0058012008667 L 5.869463920593262 5.125231266021729 C 5.869463920593262 5.022971153259277 5.896374225616455 4.933021068572998 5.94943380355835 4.857901096343994 L 8.560234069824219 1.071451306343079 L 8.614283561706543 0.9930712580680847 L 8.519074440002441 0.9930712580680847 L 1.477154016494751 0.9930712580680847 L 1.381683945655823 0.9930712580680847 Z" stroke="none"/>
    <path d="M 0.5093536376953125 0.100001335144043 C 0.2836341857910156 0.100001335144043 0.09999370574951172 0.2862110137939453 0.09999370574951172 0.515101432800293 C 0.09999370574951172 0.5874319076538086 0.1256036758422852 0.6714553833007812 0.1740818023681641 0.758336067199707 L 3.270763874053955 5.248631477355957 L 3.270763874053955 9.761131286621094 C 3.270763874053955 9.933391571044922 3.378704071044922 10.09279155731201 3.53611421585083 10.15653133392334 L 6.186464309692383 11.122971534729 C 6.233014106750488 11.14090156555176 6.281313896179199 11.14999103546143 6.330043792724609 11.14999103546143 C 6.500273704528809 11.14999103546143 6.650954246520996 11.03985118865967 6.704994201660156 10.87592124938965 L 6.710324287414551 10.86291122436523 C 6.725434303283691 10.83234119415283 6.725434303283691 10.77876091003418 6.725434303283691 10.72694110870361 L 6.725434303283691 5.261501312255859 L 9.82569408416748 0.7660417556762695 C 9.956543922424316 0.5828208923339844 9.90947437286377 0.3216209411621094 9.72075366973877 0.1837711334228516 L 9.715293884277344 0.1794910430908203 C 9.655344009399414 0.1289710998535156 9.576724052429199 0.100001335144043 9.499584197998047 0.100001335144043 L 0.5093536376953125 0.100001335144043 M 5.919464111328125 10.14960098266602 L 4.089494228363037 9.470101356506348 L 4.089494228363037 5.125241279602051 C 4.089494228363037 5.052946090698242 4.06390905380249 4.968969345092773 4.015478134155273 4.882134914398193 L 1.28620433807373 0.9430713653564453 L 8.709493637084961 0.9430713653564453 L 5.990273952484131 4.886741161346436 C 5.943284034729004 4.953261375427246 5.919464111328125 5.033501148223877 5.919464111328125 5.125231266021729 L 5.919464111328125 10.14960098266602 M 0.5093536376953125 9.5367431640625e-07 L 9.499584197998047 9.5367431640625e-07 C 9.60145378112793 9.5367431640625e-07 9.703333854675293 0.03864097595214844 9.779733657836914 0.1030216217041016 C 10.00894355773926 0.2704410552978516 10.07261371612549 0.5923709869384766 9.907073974609375 0.8241615295410156 L 6.825433731079102 5.292641162872314 L 6.825433731079102 10.72694110870361 C 6.825433731079102 10.79133129119873 6.825433731079102 10.85571098327637 6.79996395111084 10.90723133087158 C 6.710824012756348 11.17765140533447 6.417933940887451 11.31930065155029 6.150524139404297 11.2162914276123 L 3.501853942871094 10.25048160552979 C 3.310833930969238 10.17321109771729 3.170763969421387 9.980051040649414 3.170763969421387 9.761131286621094 L 3.170763969421387 5.279771327972412 L 0.08912372589111328 0.8112812042236328 C 0.03819370269775391 0.7211513519287109 -5.7220458984375e-06 0.6181211471557617 -5.7220458984375e-06 0.515101432800293 C -5.7220458984375e-06 0.2318010330200195 0.2292041778564453 9.5367431640625e-07 0.5093536376953125 9.5367431640625e-07 Z M 5.819464206695557 10.0058012008667 L 5.819464206695557 5.125231266021729 C 5.819464206695557 5.022211074829102 5.844923973083496 4.919191360473633 5.908594131469727 4.829051494598389 L 8.519073486328125 1.043071746826172 L 1.477153778076172 1.043071746826172 L 4.100364208221436 4.829061508178711 C 4.151294231414795 4.919191360473633 4.189494132995605 5.022221088409424 4.189494132995605 5.125241279602051 L 4.189494132995605 9.400561332702637 L 5.819464206695557 10.0058012008667 Z" stroke="none" fill="#dde6f5"/>
  </g>
</svg>
