<svg width="324" height="150" viewBox="0 0 324 150" fill="none" xmlns="http://www.w3.org/2000/svg">
<path fill-rule="evenodd" clip-rule="evenodd" d="M12.9134 22.7588C18.3478 24.1125 25.245 29.8462 27.5656 37.5703C27.3152 37.6496 27.0675 37.728 26.8206 37.8062L26.0805 38.0406C25.5863 38.1971 25.0881 38.3549 24.5712 38.5187C23.5476 35.6784 22.1524 33.1273 20.0051 30.928C17.8788 33.1062 16.4374 35.645 15.4446 38.5263C14.4122 38.1984 13.4513 37.8932 12.4075 37.5616C13.4688 34.2018 15.2307 31.3557 17.5647 28.7561C15.9629 27.4234 14.1506 26.5377 12.2017 25.7845C12.4427 24.7596 12.678 23.7598 12.9134 22.7588ZM20.0263 33.2581C21.0926 33.2567 21.8885 34.027 21.894 35.0656C21.8996 36.1053 21.1065 36.9312 20.0873 36.9475C19.0133 36.9646 18.1807 36.1545 18.1848 35.0964C18.1888 34.0588 18.9894 33.2594 20.0263 33.2581Z" fill="#00BDD0"/>
<path fill-rule="evenodd" clip-rule="evenodd" d="M15.3541 0C16.3219 2.97599 17.8275 5.5438 19.9875 7.83117C22.161 5.59355 23.642 2.99637 24.6546 0.00869671C25.6436 0.317786 26.6005 0.616753 27.6173 0.93454C26.5432 4.3743 24.7745 7.30467 22.2602 10.0436C23.5984 10.8096 24.8555 11.5832 26.1662 12.2511C26.646 12.4956 26.7911 12.667 26.6204 13.1943C26.4729 13.65 26.362 14.1176 26.2564 14.5864L26.1515 15.0552C26.1164 15.2114 26.0807 15.3673 26.0433 15.5225C21.1531 14.7006 13.3537 6.35259 12.4541 0.910303C13.4257 0.605348 14.3649 0.310515 15.3541 0ZM20.0812 0.910845C21.0797 0.9261 21.9058 1.81274 21.8654 2.82583C21.8284 3.75609 20.966 4.57544 20.0369 4.56303C19.0437 4.54978 18.2264 3.73157 18.2211 2.74542C18.2158 1.72848 19.0607 0.895162 20.0812 0.910845Z" fill="#8EC735"/>
<path fill-rule="evenodd" clip-rule="evenodd" d="M6.77725 4.28711C9.13127 6.93918 10.6567 9.84459 11.6817 13.0574C13.4502 12.5106 15.0332 11.7285 16.4987 10.7178C16.9504 10.4062 17.2253 10.4029 17.613 10.8362C18.1474 11.4332 18.7829 11.9394 19.4801 12.5811C13.6132 16.8192 7.21304 18.1807 0.0175781 16.638C0.249125 15.6588 0.45493 14.7031 0.725163 13.7661C0.755315 13.6614 1.1682 13.5849 1.37657 13.6277C3.7148 14.1075 6.05701 14.2319 8.54714 13.7873C8.31147 13.1431 8.16711 12.4948 7.85477 11.9421C6.93882 10.3206 5.98618 8.71773 4.9802 7.15132C4.69091 6.70109 4.65962 6.45901 5.0479 6.09203C5.62905 5.54257 6.1587 4.93851 6.77725 4.28711ZM4.73041 9.7964C5.76412 9.80596 6.53813 10.6157 6.52319 11.672C6.50826 12.7263 5.73297 13.4687 4.65503 13.4609C3.6216 13.4533 2.80151 12.6187 2.82768 11.601C2.85356 10.5882 3.6984 9.78699 4.73041 9.7964Z" fill="#00BDD0"/>
<path fill-rule="evenodd" clip-rule="evenodd" d="M39.8739 22.1479C39.6429 23.113 39.4092 24.0887 39.1871 25.0166C37.6678 24.8719 36.2404 24.6489 34.8097 24.6241C33.4061 24.5997 31.9989 24.7768 30.4679 24.8733C31.4247 27.8024 32.8659 30.2131 34.8679 32.4289C34.122 33.1333 33.3901 33.8245 32.6002 34.5705C30.2207 32.0626 28.5968 29.1673 27.4365 25.7772C25.8786 26.6024 24.3865 27.3926 22.8149 28.2249C22.152 27.6076 21.3972 26.9046 20.6421 26.2013C23.8769 22.5015 34.3133 20.2724 39.8739 22.1479ZM34.5621 25.7605C35.5554 25.7601 36.3749 26.5589 36.3937 27.5462C36.4126 28.5416 35.6339 29.3641 34.6342 29.4047C33.6359 29.4453 32.7795 28.6042 32.7778 27.5812C32.7761 26.5706 33.5695 25.7611 34.5621 25.7605Z" fill="#8EC735"/>
<path fill-rule="evenodd" clip-rule="evenodd" d="M32.5836 3.80371C33.3629 4.52682 34.1171 5.22669 34.9331 5.98388C32.9343 8.24616 31.4189 10.7135 30.5152 13.6401C31.2816 13.762 31.9857 13.9483 32.6952 13.9727C34.6523 14.04 36.6153 14.0996 38.5393 13.5986C38.9802 13.4839 39.2999 13.5195 39.4078 14.0872C39.5647 14.9124 39.7985 15.7229 40.0373 16.6934C38.6035 16.8975 37.271 17.181 35.9267 17.2597C32.987 17.4316 30.0997 17.0659 27.2856 16.1566C26.8295 16.0092 26.6092 15.821 26.7127 15.32C27.6103 10.9751 29.4921 7.13683 32.5836 3.80371ZM34.5652 9.38728C35.6794 9.37987 36.4063 10.1167 36.4022 11.2491C36.3982 12.3243 35.5709 13.1637 34.5402 13.1383C33.5972 13.1152 32.6966 12.2025 32.6832 11.2565C32.6687 10.2317 33.5119 9.39427 34.5652 9.38728Z" fill="#FF9100"/>
<path fill-rule="evenodd" clip-rule="evenodd" d="M11.5427 22.1679C12.1291 22.3223 12.3975 22.4706 12.2488 23.1977C11.4445 27.1287 9.78487 30.6329 7.22761 33.7147C7.1235 33.8401 7.0036 33.9525 6.72327 34.2473C6.06304 33.5234 5.46241 32.8586 4.85439 32.2006C4.55542 31.8771 4.69026 31.6366 4.93276 31.3431C6.40723 29.5572 7.49115 27.5476 8.2727 25.3704C8.31181 25.2613 8.33357 25.146 8.40654 24.8708C7.63353 24.7963 6.89835 24.6346 6.17412 24.6741C4.59852 24.7602 3.02405 24.914 1.45898 25.1164C0.977818 25.1787 0.752245 25.1145 0.64472 24.6422C0.456268 23.8141 0.244775 22.9912 0 21.9902C1.17893 21.8083 2.27906 21.5784 3.391 21.479C6.14326 21.2326 8.86252 21.4619 11.5427 22.1679ZM6.81531 27.0779C6.81984 28.1469 5.9888 28.9785 4.92749 28.9672C3.82466 28.9554 3.07739 28.1821 3.08621 27.0616C3.09431 26.0216 3.8888 25.2024 4.90829 25.1829C5.92935 25.1633 6.81088 26.0394 6.81531 27.0779Z" fill="#FF9100"/>
<path d="M58.7372 13.5583V24.7583H57.7612L50.5612 15.6703V24.7583H49.3772V13.5583H50.3532L57.5692 22.6463V13.5583H58.7372ZM65.5928 24.8383C64.7822 24.8383 64.0515 24.657 63.4008 24.2943C62.7502 23.921 62.2382 23.409 61.8648 22.7583C61.4915 22.1076 61.3048 21.3716 61.3048 20.5503C61.3048 19.729 61.4915 18.993 61.8648 18.3423C62.2382 17.6916 62.7502 17.185 63.4008 16.8223C64.0515 16.4596 64.7822 16.2783 65.5928 16.2783C66.4035 16.2783 67.1342 16.4596 67.7848 16.8223C68.4355 17.185 68.9422 17.6916 69.3048 18.3423C69.6782 18.993 69.8648 19.729 69.8648 20.5503C69.8648 21.3716 69.6782 22.1076 69.3048 22.7583C68.9422 23.409 68.4355 23.921 67.7848 24.2943C67.1342 24.657 66.4035 24.8383 65.5928 24.8383ZM65.5928 23.8303C66.1902 23.8303 66.7235 23.697 67.1928 23.4303C67.6728 23.153 68.0462 22.7636 68.3128 22.2623C68.5795 21.761 68.7128 21.1903 68.7128 20.5503C68.7128 19.9103 68.5795 19.3396 68.3128 18.8383C68.0462 18.337 67.6728 17.953 67.1928 17.6863C66.7235 17.409 66.1902 17.2703 65.5928 17.2703C64.9955 17.2703 64.4568 17.409 63.9768 17.6863C63.5075 17.953 63.1342 18.337 62.8568 18.8383C62.5902 19.3396 62.4568 19.9103 62.4568 20.5503C62.4568 21.1903 62.5902 21.761 62.8568 22.2623C63.1342 22.7636 63.5075 23.153 63.9768 23.4303C64.4568 23.697 64.9955 23.8303 65.5928 23.8303ZM75.5761 24.9183C74.7121 24.9183 73.8748 24.7956 73.0641 24.5503C72.2641 24.305 71.6294 23.9796 71.1601 23.5743L71.8801 21.9583C72.3388 22.321 72.8988 22.6196 73.5601 22.8543C74.2321 23.0783 74.9041 23.1903 75.5761 23.1903C76.4081 23.1903 77.0268 23.057 77.4321 22.7903C77.8481 22.5236 78.0561 22.1716 78.0561 21.7343C78.0561 21.4143 77.9388 21.153 77.7041 20.9503C77.4801 20.737 77.1921 20.5716 76.8401 20.4543C76.4881 20.337 76.0081 20.2036 75.4001 20.0543C74.5468 19.8516 73.8534 19.649 73.3201 19.4463C72.7974 19.2436 72.3441 18.929 71.9601 18.5023C71.5868 18.065 71.4001 17.4783 71.4001 16.7423C71.4001 16.1236 71.5654 15.5636 71.8961 15.0623C72.2374 14.5503 72.7441 14.145 73.4161 13.8463C74.0988 13.5476 74.9308 13.3983 75.9121 13.3983C76.5948 13.3983 77.2668 13.4836 77.9281 13.6543C78.5894 13.825 79.1601 14.0703 79.6401 14.3903L78.9841 16.0063C78.4934 15.7183 77.9814 15.4996 77.4481 15.3503C76.9148 15.201 76.3974 15.1263 75.8961 15.1263C75.0748 15.1263 74.4614 15.265 74.0561 15.5423C73.6614 15.8196 73.4641 16.1876 73.4641 16.6463C73.4641 16.9663 73.5761 17.2276 73.8001 17.4303C74.0348 17.633 74.3281 17.793 74.6801 17.9103C75.0321 18.0276 75.5121 18.161 76.1201 18.3103C76.9521 18.5023 77.6348 18.705 78.1681 18.9183C78.7014 19.121 79.1548 19.4356 79.5281 19.8623C79.9121 20.289 80.1041 20.865 80.1041 21.5903C80.1041 22.209 79.9334 22.769 79.5921 23.2703C79.2614 23.7716 78.7548 24.1716 78.0721 24.4703C77.3894 24.769 76.5574 24.9183 75.5761 24.9183ZM87.1106 24.2943C86.8759 24.4863 86.5879 24.6303 86.2466 24.7263C85.9159 24.8223 85.5639 24.8703 85.1906 24.8703C84.2519 24.8703 83.5266 24.625 83.0146 24.1343C82.5026 23.6436 82.2466 22.929 82.2466 21.9903V17.8783H80.8386V16.2783H82.2466V14.3263H84.2466V16.2783H86.5346V17.8783H84.2466V21.9423C84.2466 22.3583 84.3479 22.6783 84.5506 22.9023C84.7533 23.1156 85.0466 23.2223 85.4306 23.2223C85.8786 23.2223 86.2519 23.105 86.5506 22.8703L87.1106 24.2943ZM90.6598 17.4623C91.2358 16.5663 92.2492 16.1183 93.6998 16.1183V18.0223C93.5292 17.9903 93.3745 17.9743 93.2358 17.9743C92.4572 17.9743 91.8492 18.2036 91.4118 18.6623C90.9745 19.1103 90.7558 19.761 90.7558 20.6143V24.7583H88.7558V16.2143H90.6598V17.4623ZM103.35 20.5343C103.35 20.673 103.34 20.8703 103.318 21.1263H96.6143C96.7317 21.7556 97.0357 22.257 97.5263 22.6303C98.0277 22.993 98.6463 23.1743 99.3823 23.1743C100.321 23.1743 101.094 22.865 101.702 22.2463L102.774 23.4783C102.39 23.937 101.905 24.2836 101.318 24.5183C100.732 24.753 100.07 24.8703 99.3343 24.8703C98.3957 24.8703 97.569 24.6836 96.8543 24.3103C96.1397 23.937 95.585 23.4196 95.1903 22.7583C94.8063 22.0863 94.6143 21.329 94.6143 20.4863C94.6143 19.6543 94.801 18.9076 95.1743 18.2463C95.5583 17.5743 96.0863 17.0516 96.7583 16.6783C97.4303 16.305 98.1877 16.1183 99.0303 16.1183C99.8623 16.1183 100.604 16.305 101.254 16.6783C101.916 17.041 102.428 17.5583 102.79 18.2303C103.164 18.8916 103.35 19.6596 103.35 20.5343ZM99.0303 17.7183C98.3903 17.7183 97.8463 17.9103 97.3983 18.2943C96.961 18.6676 96.6943 19.169 96.5983 19.7983H101.446C101.361 19.1796 101.1 18.6783 100.662 18.2943C100.225 17.9103 99.681 17.7183 99.0303 17.7183ZM107.911 24.8703C107.218 24.8703 106.541 24.7796 105.879 24.5983C105.218 24.417 104.69 24.1876 104.295 23.9103L105.063 22.3903C105.447 22.6463 105.906 22.8543 106.439 23.0143C106.983 23.1636 107.517 23.2383 108.039 23.2383C109.234 23.2383 109.831 22.9236 109.831 22.2943C109.831 21.9956 109.677 21.7876 109.367 21.6703C109.069 21.553 108.583 21.441 107.911 21.3343C107.207 21.2276 106.631 21.105 106.183 20.9663C105.746 20.8276 105.362 20.5876 105.031 20.2463C104.711 19.8943 104.551 19.409 104.551 18.7903C104.551 17.9796 104.887 17.3343 105.559 16.8543C106.242 16.3636 107.159 16.1183 108.311 16.1183C108.898 16.1183 109.485 16.1876 110.071 16.3263C110.658 16.4543 111.138 16.6303 111.511 16.8543L110.743 18.3743C110.018 17.9476 109.202 17.7343 108.295 17.7343C107.709 17.7343 107.261 17.825 106.951 18.0063C106.653 18.177 106.503 18.4063 106.503 18.6943C106.503 19.0143 106.663 19.2436 106.983 19.3823C107.314 19.5103 107.821 19.633 108.503 19.7503C109.186 19.857 109.746 19.9796 110.183 20.1183C110.621 20.257 110.994 20.4916 111.303 20.8223C111.623 21.153 111.783 21.6223 111.783 22.2303C111.783 23.0303 111.437 23.6703 110.743 24.1503C110.05 24.6303 109.106 24.8703 107.911 24.8703ZM116.146 24.8703C115.453 24.8703 114.775 24.7796 114.114 24.5983C113.453 24.417 112.925 24.1876 112.53 23.9103L113.298 22.3903C113.682 22.6463 114.141 22.8543 114.674 23.0143C115.218 23.1636 115.751 23.2383 116.274 23.2383C117.469 23.2383 118.066 22.9236 118.066 22.2943C118.066 21.9956 117.911 21.7876 117.602 21.6703C117.303 21.553 116.818 21.441 116.146 21.3343C115.442 21.2276 114.866 21.105 114.418 20.9663C113.981 20.8276 113.597 20.5876 113.266 20.2463C112.946 19.8943 112.786 19.409 112.786 18.7903C112.786 17.9796 113.122 17.3343 113.794 16.8543C114.477 16.3636 115.394 16.1183 116.546 16.1183C117.133 16.1183 117.719 16.1876 118.306 16.3263C118.893 16.4543 119.373 16.6303 119.746 16.8543L118.978 18.3743C118.253 17.9476 117.437 17.7343 116.53 17.7343C115.943 17.7343 115.495 17.825 115.186 18.0063C114.887 18.177 114.738 18.4063 114.738 18.6943C114.738 19.0143 114.898 19.2436 115.218 19.3823C115.549 19.5103 116.055 19.633 116.738 19.7503C117.421 19.857 117.981 19.9796 118.418 20.1183C118.855 20.257 119.229 20.4916 119.538 20.8223C119.858 21.153 120.018 21.6223 120.018 22.2303C120.018 23.0303 119.671 23.6703 118.978 24.1503C118.285 24.6303 117.341 24.8703 116.146 24.8703Z" fill="#222222"/>
<path d="M3.024 76.786V80.98H7.596V82.33H3.024V86.65H8.136V88H1.386V75.436H8.136V76.786H3.024ZM14.6285 79.486H12.5585V88H10.9205V79.486H9.64252V78.136H10.9205V77.434C10.9205 76.33 11.2025 75.526 11.7665 75.022C12.3425 74.506 13.2605 74.248 14.5205 74.248V75.616C13.8005 75.616 13.2905 75.76 12.9905 76.048C12.7025 76.324 12.5585 76.786 12.5585 77.434V78.136H14.6285V79.486ZM20.5523 79.486H18.4823V88H16.8443V79.486H15.5663V78.136H16.8443V77.434C16.8443 76.33 17.1263 75.526 17.6903 75.022C18.2663 74.506 19.1843 74.248 20.4443 74.248V75.616C19.7243 75.616 19.2143 75.76 18.9143 76.048C18.6263 76.324 18.4823 76.786 18.4823 77.434V78.136H20.5523V79.486ZM26.7642 88.162C25.8402 88.162 25.0002 87.952 24.2442 87.532C23.5002 87.112 22.9122 86.518 22.4802 85.75C22.0602 84.97 21.8502 84.07 21.8502 83.05C21.8502 82.042 22.0662 81.154 22.4982 80.386C22.9422 79.606 23.5422 79.012 24.2982 78.604C25.0542 78.184 25.9002 77.974 26.8362 77.974C27.7722 77.974 28.6182 78.184 29.3742 78.604C30.1302 79.012 30.7242 79.6 31.1562 80.368C31.6002 81.136 31.8222 82.03 31.8222 83.05C31.8222 84.07 31.5942 84.97 31.1382 85.75C30.6942 86.518 30.0882 87.112 29.3202 87.532C28.5522 87.952 27.7002 88.162 26.7642 88.162ZM26.7642 86.722C27.3522 86.722 27.9042 86.584 28.4202 86.308C28.9362 86.032 29.3502 85.618 29.6622 85.066C29.9862 84.514 30.1482 83.842 30.1482 83.05C30.1482 82.258 29.9922 81.586 29.6802 81.034C29.3682 80.482 28.9602 80.074 28.4562 79.81C27.9522 79.534 27.4062 79.396 26.8182 79.396C26.2182 79.396 25.6662 79.534 25.1622 79.81C24.6702 80.074 24.2742 80.482 23.9742 81.034C23.6742 81.586 23.5242 82.258 23.5242 83.05C23.5242 83.854 23.6682 84.532 23.9562 85.084C24.2562 85.636 24.6522 86.05 25.1442 86.326C25.6362 86.59 26.1762 86.722 26.7642 86.722ZM35.6138 79.738C35.9018 79.174 36.3098 78.736 36.8378 78.424C37.3778 78.112 38.0318 77.956 38.7998 77.956V79.648H38.3678C36.5318 79.648 35.6138 80.644 35.6138 82.636V88H33.9758V78.136H35.6138V79.738ZM42.6887 79.486V85.3C42.6887 85.78 42.7907 86.122 42.9947 86.326C43.1987 86.518 43.5527 86.614 44.0567 86.614H45.2627V88H43.7867C42.8747 88 42.1907 87.79 41.7347 87.37C41.2787 86.95 41.0507 86.26 41.0507 85.3V79.486H39.7727V78.136H41.0507V75.652H42.6887V78.136H45.2627V79.486H42.6887ZM48.8853 74.68V88H47.2473V74.68H48.8853ZM60.677 82.69C60.677 83.002 60.659 83.332 60.623 83.68H52.739C52.799 84.652 53.129 85.414 53.729 85.966C54.341 86.506 55.079 86.776 55.943 86.776C56.651 86.776 57.239 86.614 57.707 86.29C58.187 85.954 58.523 85.51 58.715 84.958H60.479C60.215 85.906 59.687 86.68 58.895 87.28C58.103 87.868 57.119 88.162 55.943 88.162C55.007 88.162 54.167 87.952 53.423 87.532C52.691 87.112 52.115 86.518 51.695 85.75C51.275 84.97 51.065 84.07 51.065 83.05C51.065 82.03 51.269 81.136 51.677 80.368C52.085 79.6 52.655 79.012 53.387 78.604C54.131 78.184 54.983 77.974 55.943 77.974C56.879 77.974 57.707 78.178 58.427 78.586C59.147 78.994 59.699 79.558 60.083 80.278C60.479 80.986 60.677 81.79 60.677 82.69ZM58.985 82.348C58.985 81.724 58.847 81.19 58.571 80.746C58.295 80.29 57.917 79.948 57.437 79.72C56.969 79.48 56.447 79.36 55.871 79.36C55.043 79.36 54.335 79.624 53.747 80.152C53.171 80.68 52.841 81.412 52.757 82.348H58.985ZM66.3311 88.162C65.5751 88.162 64.8971 88.036 64.2971 87.784C63.6971 87.52 63.2231 87.16 62.8751 86.704C62.5271 86.236 62.3351 85.702 62.2991 85.102H63.9911C64.0391 85.594 64.2671 85.996 64.6751 86.308C65.0951 86.62 65.6411 86.776 66.3131 86.776C66.9371 86.776 67.4291 86.638 67.7891 86.362C68.1491 86.086 68.3291 85.738 68.3291 85.318C68.3291 84.886 68.1371 84.568 67.7531 84.364C67.3691 84.148 66.7751 83.938 65.9711 83.734C65.2391 83.542 64.6391 83.35 64.1711 83.158C63.7151 82.954 63.3191 82.66 62.9831 82.276C62.6591 81.88 62.4971 81.364 62.4971 80.728C62.4971 80.224 62.6471 79.762 62.9471 79.342C63.2471 78.922 63.6731 78.592 64.2251 78.352C64.7771 78.1 65.4071 77.974 66.1151 77.974C67.2071 77.974 68.0891 78.25 68.7611 78.802C69.4331 79.354 69.7931 80.11 69.8411 81.07H68.2031C68.1671 80.554 67.9571 80.14 67.5731 79.828C67.2011 79.516 66.6971 79.36 66.0611 79.36C65.4731 79.36 65.0051 79.486 64.6571 79.738C64.3091 79.99 64.1351 80.32 64.1351 80.728C64.1351 81.052 64.2371 81.322 64.4411 81.538C64.6571 81.742 64.9211 81.91 65.2331 82.042C65.5571 82.162 66.0011 82.3 66.5651 82.456C67.2731 82.648 67.8491 82.84 68.2931 83.032C68.7371 83.212 69.1151 83.488 69.4271 83.86C69.7511 84.232 69.9191 84.718 69.9311 85.318C69.9311 85.858 69.7811 86.344 69.4811 86.776C69.1811 87.208 68.7551 87.55 68.2031 87.802C67.6631 88.042 67.0391 88.162 66.3311 88.162ZM75.7354 88.162C74.9794 88.162 74.3014 88.036 73.7014 87.784C73.1014 87.52 72.6274 87.16 72.2794 86.704C71.9314 86.236 71.7394 85.702 71.7034 85.102H73.3954C73.4434 85.594 73.6714 85.996 74.0794 86.308C74.4994 86.62 75.0454 86.776 75.7174 86.776C76.3414 86.776 76.8334 86.638 77.1934 86.362C77.5534 86.086 77.7334 85.738 77.7334 85.318C77.7334 84.886 77.5414 84.568 77.1574 84.364C76.7734 84.148 76.1794 83.938 75.3754 83.734C74.6434 83.542 74.0434 83.35 73.5754 83.158C73.1194 82.954 72.7234 82.66 72.3874 82.276C72.0634 81.88 71.9014 81.364 71.9014 80.728C71.9014 80.224 72.0514 79.762 72.3514 79.342C72.6514 78.922 73.0774 78.592 73.6294 78.352C74.1814 78.1 74.8114 77.974 75.5194 77.974C76.6114 77.974 77.4934 78.25 78.1654 78.802C78.8374 79.354 79.1974 80.11 79.2454 81.07H77.6074C77.5714 80.554 77.3614 80.14 76.9774 79.828C76.6054 79.516 76.1014 79.36 75.4654 79.36C74.8774 79.36 74.4094 79.486 74.0614 79.738C73.7134 79.99 73.5394 80.32 73.5394 80.728C73.5394 81.052 73.6414 81.322 73.8454 81.538C74.0614 81.742 74.3254 81.91 74.6374 82.042C74.9614 82.162 75.4054 82.3 75.9694 82.456C76.6774 82.648 77.2534 82.84 77.6974 83.032C78.1414 83.212 78.5194 83.488 78.8314 83.86C79.1554 84.232 79.3234 84.718 79.3354 85.318C79.3354 85.858 79.1854 86.344 78.8854 86.776C78.5854 87.208 78.1594 87.55 77.6074 87.802C77.0674 88.042 76.4434 88.162 75.7354 88.162ZM83.2857 74.68V88H81.6477V74.68H83.2857ZM94.5734 78.136L88.6334 92.644H86.9414L88.8854 87.892L84.9074 78.136H86.7254L89.8214 86.128L92.8814 78.136H94.5734ZM112.881 77.956C113.649 77.956 114.333 78.118 114.933 78.442C115.533 78.754 116.007 79.228 116.355 79.864C116.703 80.5 116.877 81.274 116.877 82.186V88H115.257V82.42C115.257 81.436 115.011 80.686 114.519 80.17C114.039 79.642 113.385 79.378 112.557 79.378C111.705 79.378 111.027 79.654 110.523 80.206C110.019 80.746 109.767 81.532 109.767 82.564V88H108.147V82.42C108.147 81.436 107.901 80.686 107.409 80.17C106.929 79.642 106.275 79.378 105.447 79.378C104.595 79.378 103.917 79.654 103.413 80.206C102.909 80.746 102.657 81.532 102.657 82.564V88H101.019V78.136H102.657V79.558C102.981 79.042 103.413 78.646 103.953 78.37C104.505 78.094 105.111 77.956 105.771 77.956C106.599 77.956 107.331 78.142 107.967 78.514C108.603 78.886 109.077 79.432 109.389 80.152C109.665 79.456 110.121 78.916 110.757 78.532C111.393 78.148 112.101 77.956 112.881 77.956ZM123.866 88.162C122.942 88.162 122.102 87.952 121.346 87.532C120.602 87.112 120.014 86.518 119.582 85.75C119.162 84.97 118.952 84.07 118.952 83.05C118.952 82.042 119.168 81.154 119.6 80.386C120.044 79.606 120.644 79.012 121.4 78.604C122.156 78.184 123.002 77.974 123.938 77.974C124.874 77.974 125.72 78.184 126.476 78.604C127.232 79.012 127.826 79.6 128.258 80.368C128.702 81.136 128.924 82.03 128.924 83.05C128.924 84.07 128.696 84.97 128.24 85.75C127.796 86.518 127.19 87.112 126.422 87.532C125.654 87.952 124.802 88.162 123.866 88.162ZM123.866 86.722C124.454 86.722 125.006 86.584 125.522 86.308C126.038 86.032 126.452 85.618 126.764 85.066C127.088 84.514 127.25 83.842 127.25 83.05C127.25 82.258 127.094 81.586 126.782 81.034C126.47 80.482 126.062 80.074 125.558 79.81C125.054 79.534 124.508 79.396 123.92 79.396C123.32 79.396 122.768 79.534 122.264 79.81C121.772 80.074 121.376 80.482 121.076 81.034C120.776 81.586 120.626 82.258 120.626 83.05C120.626 83.854 120.77 84.532 121.058 85.084C121.358 85.636 121.754 86.05 122.246 86.326C122.738 86.59 123.278 86.722 123.866 86.722ZM135.883 77.956C137.083 77.956 138.055 78.322 138.799 79.054C139.543 79.774 139.915 80.818 139.915 82.186V88H138.295V82.42C138.295 81.436 138.049 80.686 137.557 80.17C137.065 79.642 136.393 79.378 135.541 79.378C134.677 79.378 133.987 79.648 133.471 80.188C132.967 80.728 132.715 81.514 132.715 82.546V88H131.077V78.136H132.715V79.54C133.039 79.036 133.477 78.646 134.029 78.37C134.593 78.094 135.211 77.956 135.883 77.956ZM143.437 76.534C143.125 76.534 142.861 76.426 142.645 76.21C142.429 75.994 142.321 75.73 142.321 75.418C142.321 75.106 142.429 74.842 142.645 74.626C142.861 74.41 143.125 74.302 143.437 74.302C143.737 74.302 143.989 74.41 144.193 74.626C144.409 74.842 144.517 75.106 144.517 75.418C144.517 75.73 144.409 75.994 144.193 76.21C143.989 76.426 143.737 76.534 143.437 76.534ZM144.229 78.136V88H142.591V78.136H144.229ZM149.019 79.486V85.3C149.019 85.78 149.121 86.122 149.325 86.326C149.529 86.518 149.883 86.614 150.387 86.614H151.593V88H150.117C149.205 88 148.521 87.79 148.065 87.37C147.609 86.95 147.381 86.26 147.381 85.3V79.486H146.103V78.136H147.381V75.652H149.019V78.136H151.593V79.486H149.019ZM157.879 88.162C156.955 88.162 156.115 87.952 155.359 87.532C154.615 87.112 154.027 86.518 153.595 85.75C153.175 84.97 152.965 84.07 152.965 83.05C152.965 82.042 153.181 81.154 153.613 80.386C154.057 79.606 154.657 79.012 155.413 78.604C156.169 78.184 157.015 77.974 157.951 77.974C158.887 77.974 159.733 78.184 160.489 78.604C161.245 79.012 161.839 79.6 162.271 80.368C162.715 81.136 162.937 82.03 162.937 83.05C162.937 84.07 162.709 84.97 162.253 85.75C161.809 86.518 161.203 87.112 160.435 87.532C159.667 87.952 158.815 88.162 157.879 88.162ZM157.879 86.722C158.467 86.722 159.019 86.584 159.535 86.308C160.051 86.032 160.465 85.618 160.777 85.066C161.101 84.514 161.263 83.842 161.263 83.05C161.263 82.258 161.107 81.586 160.795 81.034C160.483 80.482 160.075 80.074 159.571 79.81C159.067 79.534 158.521 79.396 157.933 79.396C157.333 79.396 156.781 79.534 156.277 79.81C155.785 80.074 155.389 80.482 155.089 81.034C154.789 81.586 154.639 82.258 154.639 83.05C154.639 83.854 154.783 84.532 155.071 85.084C155.371 85.636 155.767 86.05 156.259 86.326C156.751 86.59 157.291 86.722 157.879 86.722ZM166.729 79.738C167.017 79.174 167.425 78.736 167.953 78.424C168.493 78.112 169.147 77.956 169.915 77.956V79.648H169.483C167.647 79.648 166.729 80.644 166.729 82.636V88H165.091V78.136H166.729V79.738ZM175.993 83.032C175.993 82.024 176.197 81.142 176.605 80.386C177.013 79.618 177.571 79.024 178.279 78.604C178.999 78.184 179.797 77.974 180.673 77.974C181.537 77.974 182.287 78.16 182.923 78.532C183.559 78.904 184.033 79.372 184.345 79.936V78.136H186.001V88H184.345V86.164C184.021 86.74 183.535 87.22 182.887 87.604C182.251 87.976 181.507 88.162 180.655 88.162C179.779 88.162 178.987 87.946 178.279 87.514C177.571 87.082 177.013 86.476 176.605 85.696C176.197 84.916 175.993 84.028 175.993 83.032ZM184.345 83.05C184.345 82.306 184.195 81.658 183.895 81.106C183.595 80.554 183.187 80.134 182.671 79.846C182.167 79.546 181.609 79.396 180.997 79.396C180.385 79.396 179.827 79.54 179.323 79.828C178.819 80.116 178.417 80.536 178.117 81.088C177.817 81.64 177.667 82.288 177.667 83.032C177.667 83.788 177.817 84.448 178.117 85.012C178.417 85.564 178.819 85.99 179.323 86.29C179.827 86.578 180.385 86.722 180.997 86.722C181.609 86.722 182.167 86.578 182.671 86.29C183.187 85.99 183.595 85.564 183.895 85.012C184.195 84.448 184.345 83.794 184.345 83.05ZM193.575 77.956C194.775 77.956 195.747 78.322 196.491 79.054C197.235 79.774 197.607 80.818 197.607 82.186V88H195.987V82.42C195.987 81.436 195.741 80.686 195.249 80.17C194.757 79.642 194.085 79.378 193.233 79.378C192.369 79.378 191.679 79.648 191.163 80.188C190.659 80.728 190.407 81.514 190.407 82.546V88H188.769V78.136H190.407V79.54C190.731 79.036 191.169 78.646 191.721 78.37C192.285 78.094 192.903 77.956 193.575 77.956ZM199.67 83.032C199.67 82.024 199.874 81.142 200.282 80.386C200.69 79.618 201.248 79.024 201.956 78.604C202.676 78.184 203.48 77.974 204.368 77.974C205.136 77.974 205.85 78.154 206.51 78.514C207.17 78.862 207.674 79.324 208.022 79.9V74.68H209.678V88H208.022V86.146C207.698 86.734 207.218 87.22 206.582 87.604C205.946 87.976 205.202 88.162 204.35 88.162C203.474 88.162 202.676 87.946 201.956 87.514C201.248 87.082 200.69 86.476 200.282 85.696C199.874 84.916 199.67 84.028 199.67 83.032ZM208.022 83.05C208.022 82.306 207.872 81.658 207.572 81.106C207.272 80.554 206.864 80.134 206.348 79.846C205.844 79.546 205.286 79.396 204.674 79.396C204.062 79.396 203.504 79.54 203 79.828C202.496 80.116 202.094 80.536 201.794 81.088C201.494 81.64 201.344 82.288 201.344 83.032C201.344 83.788 201.494 84.448 201.794 85.012C202.094 85.564 202.496 85.99 203 86.29C203.504 86.578 204.062 86.722 204.674 86.722C205.286 86.722 205.844 86.578 206.348 86.29C206.864 85.99 207.272 85.564 207.572 85.012C207.872 84.448 208.022 83.794 208.022 83.05ZM229.107 77.956C229.875 77.956 230.559 78.118 231.159 78.442C231.759 78.754 232.233 79.228 232.581 79.864C232.929 80.5 233.103 81.274 233.103 82.186V88H231.483V82.42C231.483 81.436 231.237 80.686 230.745 80.17C230.265 79.642 229.611 79.378 228.783 79.378C227.931 79.378 227.253 79.654 226.749 80.206C226.245 80.746 225.993 81.532 225.993 82.564V88H224.373V82.42C224.373 81.436 224.127 80.686 223.635 80.17C223.155 79.642 222.501 79.378 221.673 79.378C220.821 79.378 220.143 79.654 219.639 80.206C219.135 80.746 218.883 81.532 218.883 82.564V88H217.245V78.136H218.883V79.558C219.207 79.042 219.639 78.646 220.179 78.37C220.731 78.094 221.337 77.956 221.997 77.956C222.825 77.956 223.557 78.142 224.193 78.514C224.829 78.886 225.303 79.432 225.615 80.152C225.891 79.456 226.347 78.916 226.983 78.532C227.619 78.148 228.327 77.956 229.107 77.956ZM235.178 83.032C235.178 82.024 235.382 81.142 235.79 80.386C236.198 79.618 236.756 79.024 237.464 78.604C238.184 78.184 238.982 77.974 239.858 77.974C240.722 77.974 241.472 78.16 242.108 78.532C242.744 78.904 243.218 79.372 243.53 79.936V78.136H245.186V88H243.53V86.164C243.206 86.74 242.72 87.22 242.072 87.604C241.436 87.976 240.692 88.162 239.84 88.162C238.964 88.162 238.172 87.946 237.464 87.514C236.756 87.082 236.198 86.476 235.79 85.696C235.382 84.916 235.178 84.028 235.178 83.032ZM243.53 83.05C243.53 82.306 243.38 81.658 243.08 81.106C242.78 80.554 242.372 80.134 241.856 79.846C241.352 79.546 240.794 79.396 240.182 79.396C239.57 79.396 239.012 79.54 238.508 79.828C238.004 80.116 237.602 80.536 237.302 81.088C237.002 81.64 236.852 82.288 236.852 83.032C236.852 83.788 237.002 84.448 237.302 85.012C237.602 85.564 238.004 85.99 238.508 86.29C239.012 86.578 239.57 86.722 240.182 86.722C240.794 86.722 241.352 86.578 241.856 86.29C242.372 85.99 242.78 85.564 243.08 85.012C243.38 84.448 243.53 83.794 243.53 83.05ZM252.76 77.956C253.96 77.956 254.932 78.322 255.676 79.054C256.42 79.774 256.792 80.818 256.792 82.186V88H255.172V82.42C255.172 81.436 254.926 80.686 254.434 80.17C253.942 79.642 253.27 79.378 252.418 79.378C251.554 79.378 250.864 79.648 250.348 80.188C249.844 80.728 249.592 81.514 249.592 82.546V88H247.954V78.136H249.592V79.54C249.916 79.036 250.354 78.646 250.906 78.37C251.47 78.094 252.088 77.956 252.76 77.956ZM258.856 83.032C258.856 82.024 259.06 81.142 259.468 80.386C259.876 79.618 260.434 79.024 261.142 78.604C261.862 78.184 262.66 77.974 263.536 77.974C264.4 77.974 265.15 78.16 265.786 78.532C266.422 78.904 266.896 79.372 267.208 79.936V78.136H268.864V88H267.208V86.164C266.884 86.74 266.398 87.22 265.75 87.604C265.114 87.976 264.37 88.162 263.518 88.162C262.642 88.162 261.85 87.946 261.142 87.514C260.434 87.082 259.876 86.476 259.468 85.696C259.06 84.916 258.856 84.028 258.856 83.032ZM267.208 83.05C267.208 82.306 267.058 81.658 266.758 81.106C266.458 80.554 266.05 80.134 265.534 79.846C265.03 79.546 264.472 79.396 263.86 79.396C263.248 79.396 262.69 79.54 262.186 79.828C261.682 80.116 261.28 80.536 260.98 81.088C260.68 81.64 260.53 82.288 260.53 83.032C260.53 83.788 260.68 84.448 260.98 85.012C261.28 85.564 261.682 85.99 262.186 86.29C262.69 86.578 263.248 86.722 263.86 86.722C264.472 86.722 265.03 86.578 265.534 86.29C266.05 85.99 266.458 85.564 266.758 85.012C267.058 84.448 267.208 83.794 267.208 83.05ZM275.7 77.974C276.552 77.974 277.296 78.16 277.932 78.532C278.58 78.904 279.06 79.372 279.372 79.936V78.136H281.028V88.216C281.028 89.116 280.836 89.914 280.452 90.61C280.068 91.318 279.516 91.87 278.796 92.266C278.088 92.662 277.26 92.86 276.312 92.86C275.016 92.86 273.936 92.554 273.072 91.942C272.208 91.33 271.698 90.496 271.542 89.44H273.162C273.342 90.04 273.714 90.52 274.278 90.88C274.842 91.252 275.52 91.438 276.312 91.438C277.212 91.438 277.944 91.156 278.508 90.592C279.084 90.028 279.372 89.236 279.372 88.216V86.146C279.048 86.722 278.568 87.202 277.932 87.586C277.296 87.97 276.552 88.162 275.7 88.162C274.824 88.162 274.026 87.946 273.306 87.514C272.598 87.082 272.04 86.476 271.632 85.696C271.224 84.916 271.02 84.028 271.02 83.032C271.02 82.024 271.224 81.142 271.632 80.386C272.04 79.618 272.598 79.024 273.306 78.604C274.026 78.184 274.824 77.974 275.7 77.974ZM279.372 83.05C279.372 82.306 279.222 81.658 278.922 81.106C278.622 80.554 278.214 80.134 277.698 79.846C277.194 79.546 276.636 79.396 276.024 79.396C275.412 79.396 274.854 79.54 274.35 79.828C273.846 80.116 273.444 80.536 273.144 81.088C272.844 81.64 272.694 82.288 272.694 83.032C272.694 83.788 272.844 84.448 273.144 85.012C273.444 85.564 273.846 85.99 274.35 86.29C274.854 86.578 275.412 86.722 276.024 86.722C276.636 86.722 277.194 86.578 277.698 86.29C278.214 85.99 278.622 85.564 278.922 85.012C279.222 84.448 279.372 83.794 279.372 83.05ZM292.796 82.69C292.796 83.002 292.778 83.332 292.742 83.68H284.858C284.918 84.652 285.248 85.414 285.848 85.966C286.46 86.506 287.198 86.776 288.062 86.776C288.77 86.776 289.358 86.614 289.826 86.29C290.306 85.954 290.642 85.51 290.834 84.958H292.598C292.334 85.906 291.806 86.68 291.014 87.28C290.222 87.868 289.238 88.162 288.062 88.162C287.126 88.162 286.286 87.952 285.542 87.532C284.81 87.112 284.234 86.518 283.814 85.75C283.394 84.97 283.184 84.07 283.184 83.05C283.184 82.03 283.388 81.136 283.796 80.368C284.204 79.6 284.774 79.012 285.506 78.604C286.25 78.184 287.102 77.974 288.062 77.974C288.998 77.974 289.826 78.178 290.546 78.586C291.266 78.994 291.818 79.558 292.202 80.278C292.598 80.986 292.796 81.79 292.796 82.69ZM291.104 82.348C291.104 81.724 290.966 81.19 290.69 80.746C290.414 80.29 290.036 79.948 289.556 79.72C289.088 79.48 288.566 79.36 287.99 79.36C287.162 79.36 286.454 79.624 285.866 80.152C285.29 80.68 284.96 81.412 284.876 82.348H291.104ZM2.856 106.401C3.162 105.868 3.61533 105.426 4.216 105.075C4.828 104.712 5.53633 104.531 6.341 104.531C7.16833 104.531 7.91633 104.729 8.585 105.126C9.265 105.523 9.79767 106.084 10.183 106.809C10.5683 107.523 10.761 108.356 10.761 109.308C10.761 110.249 10.5683 111.087 10.183 111.824C9.79767 112.561 9.265 113.133 8.585 113.541C7.91633 113.949 7.16833 114.153 6.341 114.153C5.54767 114.153 4.845 113.977 4.233 113.626C3.63233 113.263 3.17333 112.816 2.856 112.283V118.42H1.309V104.684H2.856V106.401ZM9.18 109.308C9.18 108.605 9.03833 107.993 8.755 107.472C8.47167 106.951 8.08633 106.554 7.599 106.282C7.123 106.01 6.596 105.874 6.018 105.874C5.45133 105.874 4.92433 106.016 4.437 106.299C3.961 106.571 3.57567 106.973 3.281 107.506C2.99767 108.027 2.856 108.634 2.856 109.325C2.856 110.028 2.99767 110.645 3.281 111.178C3.57567 111.699 3.961 112.102 4.437 112.385C4.92433 112.657 5.45133 112.793 6.018 112.793C6.596 112.793 7.123 112.657 7.599 112.385C8.08633 112.102 8.47167 111.699 8.755 111.178C9.03833 110.645 9.18 110.022 9.18 109.308ZM12.2193 109.308C12.2193 108.356 12.4119 107.523 12.7973 106.809C13.1826 106.084 13.7096 105.523 14.3783 105.126C15.0583 104.729 15.8119 104.531 16.6393 104.531C17.4553 104.531 18.1636 104.707 18.7643 105.058C19.3649 105.409 19.8126 105.851 20.1073 106.384V104.684H21.6713V114H20.1073V112.266C19.8013 112.81 19.3423 113.263 18.7303 113.626C18.1296 113.977 17.4269 114.153 16.6223 114.153C15.7949 114.153 15.0469 113.949 14.3783 113.541C13.7096 113.133 13.1826 112.561 12.7973 111.824C12.4119 111.087 12.2193 110.249 12.2193 109.308ZM20.1073 109.325C20.1073 108.622 19.9656 108.01 19.6823 107.489C19.3989 106.968 19.0136 106.571 18.5263 106.299C18.0503 106.016 17.5233 105.874 16.9453 105.874C16.3673 105.874 15.8403 106.01 15.3643 106.282C14.8883 106.554 14.5086 106.951 14.2253 107.472C13.9419 107.993 13.8003 108.605 13.8003 109.308C13.8003 110.022 13.9419 110.645 14.2253 111.178C14.5086 111.699 14.8883 112.102 15.3643 112.385C15.8403 112.657 16.3673 112.793 16.9453 112.793C17.5233 112.793 18.0503 112.657 18.5263 112.385C19.0136 112.102 19.3989 111.699 19.6823 111.178C19.9656 110.645 20.1073 110.028 20.1073 109.325ZM26.1726 105.959V111.45C26.1726 111.903 26.2689 112.226 26.4616 112.419C26.6542 112.6 26.9886 112.691 27.4646 112.691H28.6036V114H27.2096C26.3482 114 25.7022 113.802 25.2716 113.405C24.8409 113.008 24.6256 112.357 24.6256 111.45V105.959H23.4186V104.684H24.6256V102.338H26.1726V104.684H28.6036V105.959H26.1726ZM31.2769 103.171C30.9823 103.171 30.7329 103.069 30.5289 102.865C30.3249 102.661 30.2229 102.412 30.2229 102.117C30.2229 101.822 30.3249 101.573 30.5289 101.369C30.7329 101.165 30.9823 101.063 31.2769 101.063C31.5603 101.063 31.7983 101.165 31.9909 101.369C32.1949 101.573 32.2969 101.822 32.2969 102.117C32.2969 102.412 32.1949 102.661 31.9909 102.865C31.7983 103.069 31.5603 103.171 31.2769 103.171ZM32.0249 104.684V114H30.4779V104.684H32.0249ZM43.1615 108.985C43.1615 109.28 43.1445 109.591 43.1105 109.92H35.6645C35.7212 110.838 36.0329 111.558 36.5995 112.079C37.1775 112.589 37.8745 112.844 38.6905 112.844C39.3592 112.844 39.9145 112.691 40.3565 112.385C40.8099 112.068 41.1272 111.648 41.3085 111.127H42.9745C42.7252 112.022 42.2265 112.753 41.4785 113.32C40.7305 113.875 39.8012 114.153 38.6905 114.153C37.8065 114.153 37.0132 113.955 36.3105 113.558C35.6192 113.161 35.0752 112.6 34.6785 111.875C34.2819 111.138 34.0835 110.288 34.0835 109.325C34.0835 108.362 34.2762 107.517 34.6615 106.792C35.0469 106.067 35.5852 105.511 36.2765 105.126C36.9792 104.729 37.7839 104.531 38.6905 104.531C39.5745 104.531 40.3565 104.724 41.0365 105.109C41.7165 105.494 42.2379 106.027 42.6005 106.707C42.9745 107.376 43.1615 108.135 43.1615 108.985ZM41.5635 108.662C41.5635 108.073 41.4332 107.568 41.1725 107.149C40.9119 106.718 40.5549 106.395 40.1015 106.18C39.6595 105.953 39.1665 105.84 38.6225 105.84C37.8405 105.84 37.1719 106.089 36.6165 106.588C36.0725 107.087 35.7609 107.778 35.6815 108.662H41.5635ZM49.7425 104.514C50.8759 104.514 51.7939 104.86 52.4965 105.551C53.1992 106.231 53.5505 107.217 53.5505 108.509V114H52.0205V108.73C52.0205 107.801 51.7882 107.092 51.3235 106.605C50.8589 106.106 50.2242 105.857 49.4195 105.857C48.6035 105.857 47.9519 106.112 47.4645 106.622C46.9885 107.132 46.7505 107.874 46.7505 108.849V114H45.2035V104.684H46.7505V106.01C47.0565 105.534 47.4702 105.166 47.9915 104.905C48.5242 104.644 49.1079 104.514 49.7425 104.514ZM57.9646 105.959V111.45C57.9646 111.903 58.0609 112.226 58.2536 112.419C58.4462 112.6 58.7806 112.691 59.2566 112.691H60.3956V114H59.0016C58.1402 114 57.4942 113.802 57.0636 113.405C56.6329 113.008 56.4176 112.357 56.4176 111.45V105.959H55.2106V104.684H56.4176V102.338H57.9646V104.684H60.3956V105.959H57.9646ZM70.5932 105.959H68.6382V114H67.0912V105.959H65.8842V104.684H67.0912V104.021C67.0912 102.978 67.3575 102.219 67.8902 101.743C68.4342 101.256 69.3012 101.012 70.4912 101.012V102.304C69.8112 102.304 69.3295 102.44 69.0462 102.712C68.7742 102.973 68.6382 103.409 68.6382 104.021V104.684H70.5932V105.959ZM73.9439 101.42V114H72.3969V101.42H73.9439ZM80.6435 114.153C79.7708 114.153 78.9775 113.955 78.2635 113.558C77.5608 113.161 77.0055 112.6 76.5975 111.875C76.2008 111.138 76.0025 110.288 76.0025 109.325C76.0025 108.373 76.2065 107.534 76.6145 106.809C77.0338 106.072 77.6005 105.511 78.3145 105.126C79.0285 104.729 79.8275 104.531 80.7115 104.531C81.5955 104.531 82.3945 104.729 83.1085 105.126C83.8225 105.511 84.3835 106.067 84.7915 106.792C85.2108 107.517 85.4205 108.362 85.4205 109.325C85.4205 110.288 85.2052 111.138 84.7745 111.875C84.3552 112.6 83.7828 113.161 83.0575 113.558C82.3322 113.955 81.5275 114.153 80.6435 114.153ZM80.6435 112.793C81.1988 112.793 81.7202 112.663 82.2075 112.402C82.6948 112.141 83.0858 111.75 83.3805 111.229C83.6865 110.708 83.8395 110.073 83.8395 109.325C83.8395 108.577 83.6922 107.942 83.3975 107.421C83.1028 106.9 82.7175 106.514 82.2415 106.265C81.7655 106.004 81.2498 105.874 80.6945 105.874C80.1278 105.874 79.6065 106.004 79.1305 106.265C78.6658 106.514 78.2918 106.9 78.0085 107.421C77.7252 107.942 77.5835 108.577 77.5835 109.325C77.5835 110.084 77.7195 110.725 77.9915 111.246C78.2748 111.767 78.6488 112.158 79.1135 112.419C79.5782 112.668 80.0882 112.793 80.6435 112.793ZM99.8645 104.684L96.9575 114H95.3595L93.1155 106.605L90.8715 114H89.2735L86.3495 104.684H87.9305L90.0725 112.504L92.3845 104.684H93.9655L96.2265 112.521L98.3345 104.684H99.8645ZM105.354 109.308C105.354 108.356 105.547 107.523 105.932 106.809C106.317 106.084 106.844 105.523 107.513 105.126C108.193 104.729 108.947 104.531 109.774 104.531C110.59 104.531 111.298 104.707 111.899 105.058C112.5 105.409 112.947 105.851 113.242 106.384V104.684H114.806V114H113.242V112.266C112.936 112.81 112.477 113.263 111.865 113.626C111.264 113.977 110.562 114.153 109.757 114.153C108.93 114.153 108.182 113.949 107.513 113.541C106.844 113.133 106.317 112.561 105.932 111.824C105.547 111.087 105.354 110.249 105.354 109.308ZM113.242 109.325C113.242 108.622 113.1 108.01 112.817 107.489C112.534 106.968 112.148 106.571 111.661 106.299C111.185 106.016 110.658 105.874 110.08 105.874C109.502 105.874 108.975 106.01 108.499 106.282C108.023 106.554 107.643 106.951 107.36 107.472C107.077 107.993 106.935 108.605 106.935 109.308C106.935 110.022 107.077 110.645 107.36 111.178C107.643 111.699 108.023 112.102 108.499 112.385C108.975 112.657 109.502 112.793 110.08 112.793C110.658 112.793 111.185 112.657 111.661 112.385C112.148 112.102 112.534 111.699 112.817 111.178C113.1 110.645 113.242 110.028 113.242 109.325ZM121.959 104.514C123.093 104.514 124.011 104.86 124.713 105.551C125.416 106.231 125.767 107.217 125.767 108.509V114H124.237V108.73C124.237 107.801 124.005 107.092 123.54 106.605C123.076 106.106 122.441 105.857 121.636 105.857C120.82 105.857 120.169 106.112 119.681 106.622C119.205 107.132 118.967 107.874 118.967 108.849V114H117.42V104.684H118.967V106.01C119.273 105.534 119.687 105.166 120.208 104.905C120.741 104.644 121.325 104.514 121.959 104.514ZM127.716 109.308C127.716 108.356 127.909 107.523 128.294 106.809C128.68 106.084 129.207 105.523 129.875 105.126C130.555 104.729 131.315 104.531 132.153 104.531C132.879 104.531 133.553 104.701 134.176 105.041C134.8 105.37 135.276 105.806 135.604 106.35V101.42H137.168V114H135.604V112.249C135.298 112.804 134.845 113.263 134.244 113.626C133.644 113.977 132.941 114.153 132.136 114.153C131.309 114.153 130.555 113.949 129.875 113.541C129.207 113.133 128.68 112.561 128.294 111.824C127.909 111.087 127.716 110.249 127.716 109.308ZM135.604 109.325C135.604 108.622 135.463 108.01 135.179 107.489C134.896 106.968 134.511 106.571 134.023 106.299C133.547 106.016 133.02 105.874 132.442 105.874C131.864 105.874 131.337 106.01 130.861 106.282C130.385 106.554 130.006 106.951 129.722 107.472C129.439 107.993 129.297 108.605 129.297 109.308C129.297 110.022 129.439 110.645 129.722 111.178C130.006 111.699 130.385 112.102 130.861 112.385C131.337 112.657 131.864 112.793 132.442 112.793C133.02 112.793 133.547 112.657 134.023 112.385C134.511 112.102 134.896 111.699 135.179 111.178C135.463 110.645 135.604 110.028 135.604 109.325ZM147.613 114.153C146.899 114.153 146.259 114.034 145.692 113.796C145.125 113.547 144.678 113.207 144.349 112.776C144.02 112.334 143.839 111.83 143.805 111.263H145.403C145.448 111.728 145.664 112.107 146.049 112.402C146.446 112.697 146.961 112.844 147.596 112.844C148.185 112.844 148.65 112.714 148.99 112.453C149.33 112.192 149.5 111.864 149.5 111.467C149.5 111.059 149.319 110.759 148.956 110.566C148.593 110.362 148.032 110.164 147.273 109.971C146.582 109.79 146.015 109.608 145.573 109.427C145.142 109.234 144.768 108.957 144.451 108.594C144.145 108.22 143.992 107.733 143.992 107.132C143.992 106.656 144.134 106.22 144.417 105.823C144.7 105.426 145.103 105.115 145.624 104.888C146.145 104.65 146.74 104.531 147.409 104.531C148.44 104.531 149.273 104.792 149.908 105.313C150.543 105.834 150.883 106.548 150.928 107.455H149.381C149.347 106.968 149.149 106.577 148.786 106.282C148.435 105.987 147.959 105.84 147.358 105.84C146.803 105.84 146.361 105.959 146.032 106.197C145.703 106.435 145.539 106.747 145.539 107.132C145.539 107.438 145.635 107.693 145.828 107.897C146.032 108.09 146.281 108.248 146.576 108.373C146.882 108.486 147.301 108.617 147.834 108.764C148.503 108.945 149.047 109.127 149.466 109.308C149.885 109.478 150.242 109.739 150.537 110.09C150.843 110.441 151.002 110.9 151.013 111.467C151.013 111.977 150.871 112.436 150.588 112.844C150.305 113.252 149.902 113.575 149.381 113.813C148.871 114.04 148.282 114.153 147.613 114.153ZM155.084 105.959V111.45C155.084 111.903 155.18 112.226 155.373 112.419C155.565 112.6 155.9 112.691 156.376 112.691H157.515V114H156.121C155.259 114 154.613 113.802 154.183 113.405C153.752 113.008 153.537 112.357 153.537 111.45V105.959H152.33V104.684H153.537V102.338H155.084V104.684H157.515V105.959H155.084ZM158.811 109.308C158.811 108.356 159.004 107.523 159.389 106.809C159.774 106.084 160.301 105.523 160.97 105.126C161.65 104.729 162.404 104.531 163.231 104.531C164.047 104.531 164.755 104.707 165.356 105.058C165.957 105.409 166.404 105.851 166.699 106.384V104.684H168.263V114H166.699V112.266C166.393 112.81 165.934 113.263 165.322 113.626C164.721 113.977 164.019 114.153 163.214 114.153C162.387 114.153 161.639 113.949 160.97 113.541C160.301 113.133 159.774 112.561 159.389 111.824C159.004 111.087 158.811 110.249 158.811 109.308ZM166.699 109.325C166.699 108.622 166.557 108.01 166.274 107.489C165.991 106.968 165.605 106.571 165.118 106.299C164.642 106.016 164.115 105.874 163.537 105.874C162.959 105.874 162.432 106.01 161.956 106.282C161.48 106.554 161.1 106.951 160.817 107.472C160.534 107.993 160.392 108.605 160.392 109.308C160.392 110.022 160.534 110.645 160.817 111.178C161.1 111.699 161.48 112.102 161.956 112.385C162.432 112.657 162.959 112.793 163.537 112.793C164.115 112.793 164.642 112.657 165.118 112.385C165.605 112.102 165.991 111.699 166.274 111.178C166.557 110.645 166.699 110.028 166.699 109.325ZM172.764 105.959V111.45C172.764 111.903 172.861 112.226 173.053 112.419C173.246 112.6 173.58 112.691 174.056 112.691H175.195V114H173.801C172.94 114 172.294 113.802 171.863 113.405C171.433 113.008 171.217 112.357 171.217 111.45V105.959H170.01V104.684H171.217V102.338H172.764V104.684H175.195V105.959H172.764ZM185.332 104.684V114H183.785V112.623C183.49 113.099 183.076 113.473 182.544 113.745C182.022 114.006 181.444 114.136 180.81 114.136C180.084 114.136 179.433 113.989 178.855 113.694C178.277 113.388 177.818 112.935 177.478 112.334C177.149 111.733 176.985 111.002 176.985 110.141V104.684H178.515V109.937C178.515 110.855 178.747 111.563 179.212 112.062C179.676 112.549 180.311 112.793 181.116 112.793C181.943 112.793 182.595 112.538 183.071 112.028C183.547 111.518 183.785 110.776 183.785 109.801V104.684H185.332ZM191.242 114.153C190.528 114.153 189.887 114.034 189.321 113.796C188.754 113.547 188.306 113.207 187.978 112.776C187.649 112.334 187.468 111.83 187.434 111.263H189.032C189.077 111.728 189.292 112.107 189.678 112.402C190.074 112.697 190.59 112.844 191.225 112.844C191.814 112.844 192.279 112.714 192.619 112.453C192.959 112.192 193.129 111.864 193.129 111.467C193.129 111.059 192.947 110.759 192.585 110.566C192.222 110.362 191.661 110.164 190.902 109.971C190.21 109.79 189.644 109.608 189.202 109.427C188.771 109.234 188.397 108.957 188.08 108.594C187.774 108.22 187.621 107.733 187.621 107.132C187.621 106.656 187.762 106.22 188.046 105.823C188.329 105.426 188.731 105.115 189.253 104.888C189.774 104.65 190.369 104.531 191.038 104.531C192.069 104.531 192.902 104.792 193.537 105.313C194.171 105.834 194.511 106.548 194.557 107.455H193.01C192.976 106.968 192.777 106.577 192.415 106.282C192.063 105.987 191.587 105.84 190.987 105.84C190.431 105.84 189.989 105.959 189.661 106.197C189.332 106.435 189.168 106.747 189.168 107.132C189.168 107.438 189.264 107.693 189.457 107.897C189.661 108.09 189.91 108.248 190.205 108.373C190.511 108.486 190.93 108.617 191.463 108.764C192.131 108.945 192.675 109.127 193.095 109.308C193.514 109.478 193.871 109.739 194.166 110.09C194.472 110.441 194.63 110.9 194.642 111.467C194.642 111.977 194.5 112.436 194.217 112.844C193.933 113.252 193.531 113.575 193.01 113.813C192.5 114.04 191.91 114.153 191.242 114.153ZM202.157 103.171C201.862 103.171 201.613 103.069 201.409 102.865C201.205 102.661 201.103 102.412 201.103 102.117C201.103 101.822 201.205 101.573 201.409 101.369C201.613 101.165 201.862 101.063 202.157 101.063C202.44 101.063 202.678 101.165 202.871 101.369C203.075 101.573 203.177 101.822 203.177 102.117C203.177 102.412 203.075 102.661 202.871 102.865C202.678 103.069 202.44 103.171 202.157 103.171ZM202.905 104.684V114H201.358V104.684H202.905ZM210.08 104.514C211.214 104.514 212.132 104.86 212.834 105.551C213.537 106.231 213.888 107.217 213.888 108.509V114H212.358V108.73C212.358 107.801 212.126 107.092 211.661 106.605C211.197 106.106 210.562 105.857 209.757 105.857C208.941 105.857 208.29 106.112 207.802 106.622C207.326 107.132 207.088 107.874 207.088 108.849V114H205.541V104.684H207.088V106.01C207.394 105.534 207.808 105.166 208.329 104.905C208.862 104.644 209.446 104.514 210.08 104.514ZM225.572 104.514C226.274 104.514 226.909 104.667 227.476 104.973C228.042 105.268 228.484 105.715 228.802 106.316C229.13 106.917 229.295 107.648 229.295 108.509V114H227.765V108.73C227.765 107.801 227.532 107.092 227.068 106.605C226.603 106.106 225.968 105.857 225.164 105.857C224.348 105.857 223.696 106.112 223.209 106.622C222.733 107.132 222.495 107.874 222.495 108.849V114H220.948V101.42H222.495V106.01C222.801 105.534 223.22 105.166 223.753 104.905C224.297 104.644 224.903 104.514 225.572 104.514ZM235.885 114.153C235.012 114.153 234.219 113.955 233.505 113.558C232.802 113.161 232.247 112.6 231.839 111.875C231.442 111.138 231.244 110.288 231.244 109.325C231.244 108.373 231.448 107.534 231.856 106.809C232.275 106.072 232.842 105.511 233.556 105.126C234.27 104.729 235.069 104.531 235.953 104.531C236.837 104.531 237.636 104.729 238.35 105.126C239.064 105.511 239.625 106.067 240.033 106.792C240.452 107.517 240.662 108.362 240.662 109.325C240.662 110.288 240.446 111.138 240.016 111.875C239.596 112.6 239.024 113.161 238.299 113.558C237.573 113.955 236.769 114.153 235.885 114.153ZM235.885 112.793C236.44 112.793 236.961 112.663 237.449 112.402C237.936 112.141 238.327 111.75 238.622 111.229C238.928 110.708 239.081 110.073 239.081 109.325C239.081 108.577 238.933 107.942 238.639 107.421C238.344 106.9 237.959 106.514 237.483 106.265C237.007 106.004 236.491 105.874 235.936 105.874C235.369 105.874 234.848 106.004 234.372 106.265C233.907 106.514 233.533 106.9 233.25 107.421C232.966 107.942 232.825 108.577 232.825 109.325C232.825 110.084 232.961 110.725 233.233 111.246C233.516 111.767 233.89 112.158 234.355 112.419C234.819 112.668 235.329 112.793 235.885 112.793ZM245.994 114.153C245.28 114.153 244.639 114.034 244.073 113.796C243.506 113.547 243.058 113.207 242.73 112.776C242.401 112.334 242.22 111.83 242.186 111.263H243.784C243.829 111.728 244.044 112.107 244.43 112.402C244.826 112.697 245.342 112.844 245.977 112.844C246.566 112.844 247.031 112.714 247.371 112.453C247.711 112.192 247.881 111.864 247.881 111.467C247.881 111.059 247.699 110.759 247.337 110.566C246.974 110.362 246.413 110.164 245.654 109.971C244.962 109.79 244.396 109.608 243.954 109.427C243.523 109.234 243.149 108.957 242.832 108.594C242.526 108.22 242.373 107.733 242.373 107.132C242.373 106.656 242.514 106.22 242.798 105.823C243.081 105.426 243.483 105.115 244.005 104.888C244.526 104.65 245.121 104.531 245.79 104.531C246.821 104.531 247.654 104.792 248.289 105.313C248.923 105.834 249.263 106.548 249.309 107.455H247.762C247.728 106.968 247.529 106.577 247.167 106.282C246.815 105.987 246.339 105.84 245.739 105.84C245.183 105.84 244.741 105.959 244.413 106.197C244.084 106.435 243.92 106.747 243.92 107.132C243.92 107.438 244.016 107.693 244.209 107.897C244.413 108.09 244.662 108.248 244.957 108.373C245.263 108.486 245.682 108.617 246.215 108.764C246.883 108.945 247.427 109.127 247.847 109.308C248.266 109.478 248.623 109.739 248.918 110.09C249.224 110.441 249.382 110.9 249.394 111.467C249.394 111.977 249.252 112.436 248.969 112.844C248.685 113.252 248.283 113.575 247.762 113.813C247.252 114.04 246.662 114.153 245.994 114.153ZM253.125 106.401C253.431 105.868 253.884 105.426 254.485 105.075C255.097 104.712 255.805 104.531 256.61 104.531C257.437 104.531 258.185 104.729 258.854 105.126C259.534 105.523 260.066 106.084 260.452 106.809C260.837 107.523 261.03 108.356 261.03 109.308C261.03 110.249 260.837 111.087 260.452 111.824C260.066 112.561 259.534 113.133 258.854 113.541C258.185 113.949 257.437 114.153 256.61 114.153C255.816 114.153 255.114 113.977 254.502 113.626C253.901 113.263 253.442 112.816 253.125 112.283V118.42H251.578V104.684H253.125V106.401ZM259.449 109.308C259.449 108.605 259.307 107.993 259.024 107.472C258.74 106.951 258.355 106.554 257.868 106.282C257.392 106.01 256.865 105.874 256.287 105.874C255.72 105.874 255.193 106.016 254.706 106.299C254.23 106.571 253.844 106.973 253.55 107.506C253.266 108.027 253.125 108.634 253.125 109.325C253.125 110.028 253.266 110.645 253.55 111.178C253.844 111.699 254.23 112.102 254.706 112.385C255.193 112.657 255.72 112.793 256.287 112.793C256.865 112.793 257.392 112.657 257.868 112.385C258.355 112.102 258.74 111.699 259.024 111.178C259.307 110.645 259.449 110.022 259.449 109.308ZM263.865 103.171C263.57 103.171 263.321 103.069 263.117 102.865C262.913 102.661 262.811 102.412 262.811 102.117C262.811 101.822 262.913 101.573 263.117 101.369C263.321 101.165 263.57 101.063 263.865 101.063C264.148 101.063 264.386 101.165 264.579 101.369C264.783 101.573 264.885 101.822 264.885 102.117C264.885 102.412 264.783 102.661 264.579 102.865C264.386 103.069 264.148 103.171 263.865 103.171ZM264.613 104.684V114H263.066V104.684H264.613ZM269.136 105.959V111.45C269.136 111.903 269.233 112.226 269.425 112.419C269.618 112.6 269.952 112.691 270.428 112.691H271.567V114H270.173C269.312 114 268.666 113.802 268.235 113.405C267.805 113.008 267.589 112.357 267.589 111.45V105.959H266.382V104.684H267.589V102.338H269.136V104.684H271.567V105.959H269.136ZM272.864 109.308C272.864 108.356 273.056 107.523 273.442 106.809C273.827 106.084 274.354 105.523 275.023 105.126C275.703 104.729 276.456 104.531 277.284 104.531C278.1 104.531 278.808 104.707 279.409 105.058C280.009 105.409 280.457 105.851 280.752 106.384V104.684H282.316V114H280.752V112.266C280.446 112.81 279.987 113.263 279.375 113.626C278.774 113.977 278.071 114.153 277.267 114.153C276.439 114.153 275.691 113.949 275.023 113.541C274.354 113.133 273.827 112.561 273.442 111.824C273.056 111.087 272.864 110.249 272.864 109.308ZM280.752 109.325C280.752 108.622 280.61 108.01 280.327 107.489C280.043 106.968 279.658 106.571 279.171 106.299C278.695 106.016 278.168 105.874 277.59 105.874C277.012 105.874 276.485 106.01 276.009 106.282C275.533 106.554 275.153 106.951 274.87 107.472C274.586 107.993 274.445 108.605 274.445 109.308C274.445 110.022 274.586 110.645 274.87 111.178C275.153 111.699 275.533 112.102 276.009 112.385C276.485 112.657 277.012 112.793 277.59 112.793C278.168 112.793 278.695 112.657 279.171 112.385C279.658 112.102 280.043 111.699 280.327 111.178C280.61 110.645 280.752 110.028 280.752 109.325ZM286.477 101.42V114H284.93V101.42H286.477ZM292.412 114.153C291.698 114.153 291.057 114.034 290.491 113.796C289.924 113.547 289.476 113.207 289.148 112.776C288.819 112.334 288.638 111.83 288.604 111.263H290.202C290.247 111.728 290.462 112.107 290.848 112.402C291.244 112.697 291.76 112.844 292.395 112.844C292.984 112.844 293.449 112.714 293.789 112.453C294.129 112.192 294.299 111.864 294.299 111.467C294.299 111.059 294.117 110.759 293.755 110.566C293.392 110.362 292.831 110.164 292.072 109.971C291.38 109.79 290.814 109.608 290.372 109.427C289.941 109.234 289.567 108.957 289.25 108.594C288.944 108.22 288.791 107.733 288.791 107.132C288.791 106.656 288.932 106.22 289.216 105.823C289.499 105.426 289.901 105.115 290.423 104.888C290.944 104.65 291.539 104.531 292.208 104.531C293.239 104.531 294.072 104.792 294.707 105.313C295.341 105.834 295.681 106.548 295.727 107.455H294.18C294.146 106.968 293.947 106.577 293.585 106.282C293.233 105.987 292.757 105.84 292.157 105.84C291.601 105.84 291.159 105.959 290.831 106.197C290.502 106.435 290.338 106.747 290.338 107.132C290.338 107.438 290.434 107.693 290.627 107.897C290.831 108.09 291.08 108.248 291.375 108.373C291.681 108.486 292.1 108.617 292.633 108.764C293.301 108.945 293.845 109.127 294.265 109.308C294.684 109.478 295.041 109.739 295.336 110.09C295.642 110.441 295.8 110.9 295.812 111.467C295.812 111.977 295.67 112.436 295.387 112.844C295.103 113.252 294.701 113.575 294.18 113.813C293.67 114.04 293.08 114.153 292.412 114.153ZM16.14 133.04L12.72 144H10.84L8.2 135.3L5.56 144H3.68L0.24 133.04H2.1L4.62 142.24L7.34 133.04H9.2L11.86 142.26L14.34 133.04H16.14ZM18.8863 131.26C18.5396 131.26 18.2463 131.14 18.0063 130.9C17.7663 130.66 17.6463 130.367 17.6463 130.02C17.6463 129.673 17.7663 129.38 18.0063 129.14C18.2463 128.9 18.5396 128.78 18.8863 128.78C19.2196 128.78 19.4996 128.9 19.7263 129.14C19.9663 129.38 20.0863 129.673 20.0863 130.02C20.0863 130.367 19.9663 130.66 19.7263 130.9C19.4996 131.14 19.2196 131.26 18.8863 131.26ZM19.7663 133.04V144H17.9463V133.04H19.7663ZM25.0881 134.54V141C25.0881 141.533 25.2015 141.913 25.4281 142.14C25.6548 142.353 26.0481 142.46 26.6081 142.46H27.9481V144H26.3081C25.2948 144 24.5348 143.767 24.0281 143.3C23.5215 142.833 23.2681 142.067 23.2681 141V134.54H21.8481V133.04H23.2681V130.28H25.0881V133.04H27.9481V134.54H25.0881ZM35.5933 132.84C36.4199 132.84 37.1666 133.02 37.8333 133.38C38.4999 133.727 39.0199 134.253 39.3933 134.96C39.7799 135.667 39.9733 136.527 39.9733 137.54V144H38.1733V137.8C38.1733 136.707 37.8999 135.873 37.3533 135.3C36.8066 134.713 36.0599 134.42 35.1133 134.42C34.1533 134.42 33.3866 134.72 32.8133 135.32C32.2533 135.92 31.9733 136.793 31.9733 137.94V144H30.1533V129.2H31.9733V134.6C32.3333 134.04 32.8266 133.607 33.4533 133.3C34.0933 132.993 34.8066 132.84 35.5933 132.84ZM53.0583 144.18C52.0316 144.18 51.0983 143.947 50.2583 143.48C49.4316 143.013 48.7783 142.353 48.2983 141.5C47.8316 140.633 47.5983 139.633 47.5983 138.5C47.5983 137.38 47.8383 136.393 48.3183 135.54C48.8116 134.673 49.4783 134.013 50.3183 133.56C51.1583 133.093 52.0983 132.86 53.1383 132.86C54.1783 132.86 55.1183 133.093 55.9583 133.56C56.7983 134.013 57.4583 134.667 57.9383 135.52C58.4316 136.373 58.6783 137.367 58.6783 138.5C58.6783 139.633 58.4249 140.633 57.9183 141.5C57.4249 142.353 56.7516 143.013 55.8983 143.48C55.0449 143.947 54.0983 144.18 53.0583 144.18ZM53.0583 142.58C53.7116 142.58 54.3249 142.427 54.8983 142.12C55.4716 141.813 55.9316 141.353 56.2783 140.74C56.6383 140.127 56.8183 139.38 56.8183 138.5C56.8183 137.62 56.6449 136.873 56.2983 136.26C55.9516 135.647 55.4983 135.193 54.9383 134.9C54.3783 134.593 53.7716 134.44 53.1183 134.44C52.4516 134.44 51.8383 134.593 51.2783 134.9C50.7316 135.193 50.2916 135.647 49.9583 136.26C49.6249 136.873 49.4583 137.62 49.4583 138.5C49.4583 139.393 49.6183 140.147 49.9383 140.76C50.2716 141.373 50.7116 141.833 51.2583 142.14C51.8049 142.433 52.4049 142.58 53.0583 142.58ZM70.7913 133.04V144H68.9713V142.38C68.6246 142.94 68.1379 143.38 67.5113 143.7C66.8979 144.007 66.2179 144.16 65.4713 144.16C64.6179 144.16 63.8513 143.987 63.1713 143.64C62.4913 143.28 61.9513 142.747 61.5513 142.04C61.1646 141.333 60.9713 140.473 60.9713 139.46V133.04H62.7713V139.22C62.7713 140.3 63.0446 141.133 63.5913 141.72C64.1379 142.293 64.8846 142.58 65.8313 142.58C66.8046 142.58 67.5713 142.28 68.1313 141.68C68.6913 141.08 68.9713 140.207 68.9713 139.06V133.04H70.7913ZM75.6842 134.82C76.0042 134.193 76.4576 133.707 77.0442 133.36C77.6442 133.013 78.3709 132.84 79.2242 132.84V134.72H78.7442C76.7042 134.72 75.6842 135.827 75.6842 138.04V144H73.8642V133.04H75.6842V134.82ZM87.5972 131.26C87.2505 131.26 86.9572 131.14 86.7172 130.9C86.4772 130.66 86.3572 130.367 86.3572 130.02C86.3572 129.673 86.4772 129.38 86.7172 129.14C86.9572 128.9 87.2505 128.78 87.5972 128.78C87.9305 128.78 88.2105 128.9 88.4372 129.14C88.6772 129.38 88.7972 129.673 88.7972 130.02C88.7972 130.367 88.6772 130.66 88.4372 130.9C88.2105 131.14 87.9305 131.26 87.5972 131.26ZM88.4772 133.04V144H86.6572V133.04H88.4772ZM96.9191 132.84C98.2524 132.84 99.3324 133.247 100.159 134.06C100.986 134.86 101.399 136.02 101.399 137.54V144H99.5991V137.8C99.5991 136.707 99.3257 135.873 98.7791 135.3C98.2324 134.713 97.4857 134.42 96.5391 134.42C95.5791 134.42 94.8124 134.72 94.2391 135.32C93.6791 135.92 93.3991 136.793 93.3991 137.94V144H91.5791V133.04H93.3991V134.6C93.7591 134.04 94.2457 133.607 94.8591 133.3C95.4857 132.993 96.1724 132.84 96.9191 132.84ZM106.592 134.54V141C106.592 141.533 106.705 141.913 106.932 142.14C107.159 142.353 107.552 142.46 108.112 142.46H109.452V144H107.812C106.799 144 106.039 143.767 105.532 143.3C105.025 142.833 104.772 142.067 104.772 141V134.54H103.352V133.04H104.772V130.28H106.592V133.04H109.452V134.54H106.592ZM121.377 133.04V144H119.557V142.38C119.211 142.94 118.724 143.38 118.097 143.7C117.484 144.007 116.804 144.16 116.057 144.16C115.204 144.16 114.437 143.987 113.757 143.64C113.077 143.28 112.537 142.747 112.137 142.04C111.751 141.333 111.557 140.473 111.557 139.46V133.04H113.357V139.22C113.357 140.3 113.631 141.133 114.177 141.72C114.724 142.293 115.471 142.58 116.417 142.58C117.391 142.58 118.157 142.28 118.717 141.68C119.277 141.08 119.557 140.207 119.557 139.06V133.04H121.377ZM125.39 131.26C125.043 131.26 124.75 131.14 124.51 130.9C124.27 130.66 124.15 130.367 124.15 130.02C124.15 129.673 124.27 129.38 124.51 129.14C124.75 128.9 125.043 128.78 125.39 128.78C125.723 128.78 126.003 128.9 126.23 129.14C126.47 129.38 126.59 129.673 126.59 130.02C126.59 130.367 126.47 130.66 126.23 130.9C126.003 131.14 125.723 131.26 125.39 131.26ZM126.27 133.04V144H124.45V133.04H126.27ZM131.592 134.54V141C131.592 141.533 131.705 141.913 131.932 142.14C132.159 142.353 132.552 142.46 133.112 142.46H134.452V144H132.812C131.799 144 131.039 143.767 130.532 143.3C130.025 142.833 129.772 142.067 129.772 141V134.54H128.352V133.04H129.772V130.28H131.592V133.04H134.452V134.54H131.592ZM137.597 131.26C137.251 131.26 136.957 131.14 136.717 130.9C136.477 130.66 136.357 130.367 136.357 130.02C136.357 129.673 136.477 129.38 136.717 129.14C136.957 128.9 137.251 128.78 137.597 128.78C137.931 128.78 138.211 128.9 138.437 129.14C138.677 129.38 138.797 129.673 138.797 130.02C138.797 130.367 138.677 130.66 138.437 130.9C138.211 131.14 137.931 131.26 137.597 131.26ZM138.477 133.04V144H136.657V133.04H138.477ZM145.659 142.32L149.059 133.04H150.999L146.699 144H144.579L140.279 133.04H142.239L145.659 142.32ZM162.79 138.1C162.79 138.447 162.77 138.813 162.73 139.2H153.97C154.037 140.28 154.403 141.127 155.07 141.74C155.75 142.34 156.57 142.64 157.53 142.64C158.317 142.64 158.97 142.46 159.49 142.1C160.023 141.727 160.397 141.233 160.61 140.62H162.57C162.277 141.673 161.69 142.533 160.81 143.2C159.93 143.853 158.837 144.18 157.53 144.18C156.49 144.18 155.557 143.947 154.73 143.48C153.917 143.013 153.277 142.353 152.81 141.5C152.343 140.633 152.11 139.633 152.11 138.5C152.11 137.367 152.337 136.373 152.79 135.52C153.243 134.667 153.877 134.013 154.69 133.56C155.517 133.093 156.463 132.86 157.53 132.86C158.57 132.86 159.49 133.087 160.29 133.54C161.09 133.993 161.703 134.62 162.13 135.42C162.57 136.207 162.79 137.1 162.79 138.1ZM160.91 137.72C160.91 137.027 160.757 136.433 160.45 135.94C160.143 135.433 159.723 135.053 159.19 134.8C158.67 134.533 158.09 134.4 157.45 134.4C156.53 134.4 155.743 134.693 155.09 135.28C154.45 135.867 154.083 136.68 153.99 137.72H160.91ZM172.744 134.54V141C172.744 141.533 172.858 141.913 173.084 142.14C173.311 142.353 173.704 142.46 174.264 142.46H175.604V144H173.964C172.951 144 172.191 143.767 171.684 143.3C171.178 142.833 170.924 142.067 170.924 141V134.54H169.504V133.04H170.924V130.28H172.744V133.04H175.604V134.54H172.744ZM179.63 134.82C179.95 134.193 180.403 133.707 180.99 133.36C181.59 133.013 182.316 132.84 183.17 132.84V134.72H182.69C180.65 134.72 179.63 135.827 179.63 138.04V144H177.81V133.04H179.63V134.82ZM184.59 138.48C184.59 137.36 184.817 136.38 185.27 135.54C185.724 134.687 186.344 134.027 187.13 133.56C187.93 133.093 188.817 132.86 189.79 132.86C190.75 132.86 191.584 133.067 192.29 133.48C192.997 133.893 193.524 134.413 193.87 135.04V133.04H195.71V144H193.87V141.96C193.51 142.6 192.97 143.133 192.25 143.56C191.544 143.973 190.717 144.18 189.77 144.18C188.797 144.18 187.917 143.94 187.13 143.46C186.344 142.98 185.724 142.307 185.27 141.44C184.817 140.573 184.59 139.587 184.59 138.48ZM193.87 138.5C193.87 137.673 193.704 136.953 193.37 136.34C193.037 135.727 192.584 135.26 192.01 134.94C191.45 134.607 190.83 134.44 190.15 134.44C189.47 134.44 188.85 134.6 188.29 134.92C187.73 135.24 187.284 135.707 186.95 136.32C186.617 136.933 186.45 137.653 186.45 138.48C186.45 139.32 186.617 140.053 186.95 140.68C187.284 141.293 187.73 141.767 188.29 142.1C188.85 142.42 189.47 142.58 190.15 142.58C190.83 142.58 191.45 142.42 192.01 142.1C192.584 141.767 193.037 141.293 193.37 140.68C193.704 140.053 193.87 139.327 193.87 138.5ZM198.106 138.5C198.106 137.367 198.333 136.38 198.786 135.54C199.239 134.687 199.866 134.027 200.666 133.56C201.479 133.093 202.406 132.86 203.446 132.86C204.793 132.86 205.899 133.187 206.766 133.84C207.646 134.493 208.226 135.4 208.506 136.56H206.546C206.359 135.893 205.993 135.367 205.446 134.98C204.913 134.593 204.246 134.4 203.446 134.4C202.406 134.4 201.566 134.76 200.926 135.48C200.286 136.187 199.966 137.193 199.966 138.5C199.966 139.82 200.286 140.84 200.926 141.56C201.566 142.28 202.406 142.64 203.446 142.64C204.246 142.64 204.913 142.453 205.446 142.08C205.979 141.707 206.346 141.173 206.546 140.48H208.506C208.213 141.6 207.626 142.5 206.746 143.18C205.866 143.847 204.766 144.18 203.446 144.18C202.406 144.18 201.479 143.947 200.666 143.48C199.866 143.013 199.239 142.353 198.786 141.5C198.333 140.647 198.106 139.647 198.106 138.5ZM217.055 144L212.755 139.16V144H210.935V129.2H212.755V137.9L216.975 133.04H219.515L214.355 138.5L219.535 144H217.055ZM222.168 131.26C221.821 131.26 221.528 131.14 221.288 130.9C221.048 130.66 220.928 130.367 220.928 130.02C220.928 129.673 221.048 129.38 221.288 129.14C221.528 128.9 221.821 128.78 222.168 128.78C222.501 128.78 222.781 128.9 223.008 129.14C223.248 129.38 223.368 129.673 223.368 130.02C223.368 130.367 223.248 130.66 223.008 130.9C222.781 131.14 222.501 131.26 222.168 131.26ZM223.048 133.04V144H221.228V133.04H223.048ZM231.489 132.84C232.823 132.84 233.903 133.247 234.729 134.06C235.556 134.86 235.969 136.02 235.969 137.54V144H234.169V137.8C234.169 136.707 233.896 135.873 233.349 135.3C232.803 134.713 232.056 134.42 231.109 134.42C230.149 134.42 229.383 134.72 228.809 135.32C228.249 135.92 227.969 136.793 227.969 137.94V144H226.149V133.04H227.969V134.6C228.329 134.04 228.816 133.607 229.429 133.3C230.056 132.993 230.743 132.84 231.489 132.84ZM243.462 132.86C244.409 132.86 245.236 133.067 245.942 133.48C246.662 133.893 247.196 134.413 247.542 135.04V133.04H249.382V144.24C249.382 145.24 249.169 146.127 248.742 146.9C248.316 147.687 247.702 148.3 246.902 148.74C246.116 149.18 245.196 149.4 244.142 149.4C242.702 149.4 241.502 149.06 240.542 148.38C239.582 147.7 239.016 146.773 238.842 145.6H240.642C240.842 146.267 241.256 146.8 241.882 147.2C242.509 147.613 243.262 147.82 244.142 147.82C245.142 147.82 245.956 147.507 246.582 146.88C247.222 146.253 247.542 145.373 247.542 144.24V141.94C247.182 142.58 246.649 143.113 245.942 143.54C245.236 143.967 244.409 144.18 243.462 144.18C242.489 144.18 241.602 143.94 240.802 143.46C240.016 142.98 239.396 142.307 238.942 141.44C238.489 140.573 238.262 139.587 238.262 138.48C238.262 137.36 238.489 136.38 238.942 135.54C239.396 134.687 240.016 134.027 240.802 133.56C241.602 133.093 242.489 132.86 243.462 132.86ZM247.542 138.5C247.542 137.673 247.376 136.953 247.042 136.34C246.709 135.727 246.256 135.26 245.682 134.94C245.122 134.607 244.502 134.44 243.822 134.44C243.142 134.44 242.522 134.6 241.962 134.92C241.402 135.24 240.956 135.707 240.622 136.32C240.289 136.933 240.122 137.653 240.122 138.48C240.122 139.32 240.289 140.053 240.622 140.68C240.956 141.293 241.402 141.767 241.962 142.1C242.522 142.42 243.142 142.58 243.822 142.58C244.502 142.58 245.122 142.42 245.682 142.1C246.256 141.767 246.709 141.293 247.042 140.68C247.376 140.053 247.542 139.327 247.542 138.5ZM257.11 138.48C257.11 137.36 257.337 136.38 257.79 135.54C258.243 134.687 258.863 134.027 259.65 133.56C260.45 133.093 261.337 132.86 262.31 132.86C263.27 132.86 264.103 133.067 264.81 133.48C265.517 133.893 266.043 134.413 266.39 135.04V133.04H268.23V144H266.39V141.96C266.03 142.6 265.49 143.133 264.77 143.56C264.063 143.973 263.237 144.18 262.29 144.18C261.317 144.18 260.437 143.94 259.65 143.46C258.863 142.98 258.243 142.307 257.79 141.44C257.337 140.573 257.11 139.587 257.11 138.48ZM266.39 138.5C266.39 137.673 266.223 136.953 265.89 136.34C265.557 135.727 265.103 135.26 264.53 134.94C263.97 134.607 263.35 134.44 262.67 134.44C261.99 134.44 261.37 134.6 260.81 134.92C260.25 135.24 259.803 135.707 259.47 136.32C259.137 136.933 258.97 137.653 258.97 138.48C258.97 139.32 259.137 140.053 259.47 140.68C259.803 141.293 260.25 141.767 260.81 142.1C261.37 142.42 261.99 142.58 262.67 142.58C263.35 142.58 263.97 142.42 264.53 142.1C265.103 141.767 265.557 141.293 265.89 140.68C266.223 140.053 266.39 139.327 266.39 138.5ZM273.126 135.06C273.486 134.433 274.019 133.913 274.726 133.5C275.446 133.073 276.279 132.86 277.226 132.86C278.199 132.86 279.079 133.093 279.866 133.56C280.666 134.027 281.292 134.687 281.746 135.54C282.199 136.38 282.426 137.36 282.426 138.48C282.426 139.587 282.199 140.573 281.746 141.44C281.292 142.307 280.666 142.98 279.866 143.46C279.079 143.94 278.199 144.18 277.226 144.18C276.292 144.18 275.466 143.973 274.746 143.56C274.039 143.133 273.499 142.607 273.126 141.98V149.2H271.306V133.04H273.126V135.06ZM280.566 138.48C280.566 137.653 280.399 136.933 280.066 136.32C279.732 135.707 279.279 135.24 278.706 134.92C278.146 134.6 277.526 134.44 276.846 134.44C276.179 134.44 275.559 134.607 274.986 134.94C274.426 135.26 273.972 135.733 273.626 136.36C273.292 136.973 273.126 137.687 273.126 138.5C273.126 139.327 273.292 140.053 273.626 140.68C273.972 141.293 274.426 141.767 274.986 142.1C275.559 142.42 276.179 142.58 276.846 142.58C277.526 142.58 278.146 142.42 278.706 142.1C279.279 141.767 279.732 141.293 280.066 140.68C280.399 140.053 280.566 139.32 280.566 138.48ZM286.641 135.06C287.001 134.433 287.535 133.913 288.241 133.5C288.961 133.073 289.795 132.86 290.741 132.86C291.715 132.86 292.595 133.093 293.381 133.56C294.181 134.027 294.808 134.687 295.261 135.54C295.715 136.38 295.941 137.36 295.941 138.48C295.941 139.587 295.715 140.573 295.261 141.44C294.808 142.307 294.181 142.98 293.381 143.46C292.595 143.94 291.715 144.18 290.741 144.18C289.808 144.18 288.981 143.973 288.261 143.56C287.555 143.133 287.015 142.607 286.641 141.98V149.2H284.821V133.04H286.641V135.06ZM294.081 138.48C294.081 137.653 293.915 136.933 293.581 136.32C293.248 135.707 292.795 135.24 292.221 134.92C291.661 134.6 291.041 134.44 290.361 134.44C289.695 134.44 289.075 134.607 288.501 134.94C287.941 135.26 287.488 135.733 287.141 136.36C286.808 136.973 286.641 137.687 286.641 138.5C286.641 139.327 286.808 140.053 287.141 140.68C287.488 141.293 287.941 141.767 288.501 142.1C289.075 142.42 289.695 142.58 290.361 142.58C291.041 142.58 291.661 142.42 292.221 142.1C292.795 141.767 293.248 141.293 293.581 140.68C293.915 140.053 294.081 139.32 294.081 138.48Z" fill="black"/>
</svg>
