<svg xmlns="http://www.w3.org/2000/svg" width="12" height="12" viewBox="0 0 12 12">
  <g id="noun-loop-6825673" transform="translate(-12.503 -12.497)">
    <path id="Path_125338" data-name="Path 125338" d="M24.5,19.54A3.462,3.462,0,0,1,21.045,23H13.937l.482.722a.5.5,0,0,1-.832.554l-1-1.5a.5.5,0,0,1,0-.556l1-1.5a.5.5,0,0,1,.831.556L13.94,22h7.106A2.46,2.46,0,0,0,23.5,19.539a.5.5,0,1,1,1,0ZM13,17.955a.5.5,0,0,0,.5-.5A2.46,2.46,0,0,1,15.96,15h7.106l-.483.722a.5.5,0,0,0,.832.556l1-1.5a.5.5,0,0,0,0-.556l-1-1.5a.5.5,0,1,0-.832.554l.481.722H15.961A3.462,3.462,0,0,0,12.5,17.455a.5.5,0,0,0,.5.5Z" fill="#05944f"/>
  </g>
</svg>
