<svg width="16" height="16" viewBox="0 0 16 16" fill="none" xmlns="http://www.w3.org/2000/svg">
<path fill-rule="evenodd" clip-rule="evenodd" d="M11.6848 10.5308L15.7618 14.6088C15.9043 14.7637 15.9815 14.9678 15.9771 15.1783C15.9727 15.3888 15.8872 15.5894 15.7383 15.7383C15.5894 15.8872 15.3888 15.9727 15.1783 15.9771C14.9678 15.9815 14.7637 15.9043 14.6088 15.7618L10.5308 11.6848C9.21903 12.703 7.56854 13.183 5.9153 13.0272C4.26206 12.8713 2.73036 12.0913 1.632 10.8459C0.533642 9.60044 -0.0488133 7.98325 0.00320706 6.3235C0.0552274 4.66375 0.737813 3.08621 1.91201 1.91201C3.08621 0.737813 4.66375 0.0552274 6.3235 0.00320706C7.98325 -0.0488133 9.60044 0.533642 10.8459 1.632C12.0913 2.73036 12.8713 4.26206 13.0272 5.9153C13.183 7.56854 12.703 9.21903 11.6848 10.5308ZM9.98479 9.98979C10.6709 9.30483 11.1383 8.43175 11.3281 7.48103C11.5178 6.5303 11.4212 5.54467 11.0506 4.64884C10.6799 3.75302 10.0519 2.98727 9.24592 2.4485C8.43994 1.90973 7.49226 1.62215 6.52279 1.62215C5.55332 1.62215 4.60564 1.90973 3.79967 2.4485C2.99369 2.98727 2.36565 3.75302 1.99502 4.64884C1.62438 5.54467 1.52781 6.5303 1.71753 7.48103C1.90724 8.43175 2.37472 9.30483 3.06079 9.98979C3.97979 10.9081 5.22584 11.4238 6.525 11.4236C7.82416 11.4235 9.07006 10.9073 9.98879 9.98879L9.98479 9.98979Z" fill="#172D76"/>
</svg>
