<svg width="16" height="16" viewBox="0 0 16 16" fill="none" xmlns="http://www.w3.org/2000/svg">
<path d="M9.049 14H2.509C2.44296 14.0003 2.37749 13.9876 2.31639 13.9626C2.25529 13.9375 2.19976 13.9006 2.153 13.854C2.05916 13.7604 2.00629 13.6335 2.006 13.501V2.50096C2.00629 2.36847 2.05916 2.2415 2.153 2.14796C2.19976 2.10132 2.25529 2.06441 2.31639 2.03935C2.37749 2.01429 2.44296 2.00158 2.509 2.00196H9.049C9.13728 2.00249 9.22412 1.97964 9.3007 1.93573C9.37728 1.89182 9.44086 1.82841 9.485 1.75196C9.52888 1.67595 9.55199 1.58973 9.55199 1.50196C9.55199 1.41419 9.52888 1.32797 9.485 1.25196C9.44086 1.17551 9.37728 1.11211 9.3007 1.0682C9.22412 1.02429 9.13728 1.00144 9.049 1.00196H2.509C2.10933 1.00172 1.72578 1.15953 1.442 1.44096C1.16013 1.72143 1.00115 2.10233 1 2.49996V13.5C1.00044 13.697 1.03969 13.8921 1.11553 14.0739C1.19137 14.2558 1.30231 14.421 1.442 14.56C1.72578 14.8414 2.10933 14.9992 2.509 14.999H9.049C9.13728 14.9995 9.22412 14.9766 9.3007 14.9327C9.37728 14.8888 9.44086 14.8254 9.485 14.749C9.52888 14.673 9.55199 14.5867 9.55199 14.499C9.55199 14.4112 9.52888 14.325 9.485 14.249C9.44074 14.1727 9.37709 14.1095 9.30052 14.0658C9.22395 14.022 9.13718 13.9993 9.049 14Z" fill="#172D76" stroke="#222222" stroke-width="0.2"/>
<path d="M14.8512 7.64579L11.3302 4.16279C11.2663 4.10855 11.1898 4.07103 11.1078 4.05358C11.0258 4.03613 10.9407 4.03929 10.8602 4.0628C10.78 4.08596 10.7069 4.12885 10.6475 4.18754C10.5881 4.24623 10.5443 4.31886 10.5202 4.3988C10.4963 4.47845 10.493 4.56286 10.5104 4.64416C10.5279 4.72546 10.5657 4.80101 10.6202 4.86379L13.2812 7.5008H4.93622C4.84804 7.50017 4.76126 7.52287 4.68469 7.5666C4.60812 7.61033 4.54448 7.67353 4.50021 7.74979C4.45563 7.82557 4.43213 7.91188 4.43213 7.99979C4.43213 8.08771 4.45563 8.17402 4.50021 8.24979C4.54448 8.32606 4.60812 8.38926 4.68469 8.43299C4.76126 8.47672 4.84804 8.49941 4.93622 8.49879H13.2872L10.6262 11.1308C10.5736 11.175 10.5307 11.2298 10.5005 11.2915C10.4702 11.3533 10.4531 11.4207 10.4504 11.4894C10.4477 11.5581 10.4593 11.6266 10.4846 11.6906C10.5099 11.7545 10.5482 11.8125 10.5972 11.8608C10.6465 11.9093 10.7052 11.9473 10.7697 11.9723C10.8342 11.9973 10.9031 12.0089 10.9723 12.0063C11.0414 12.0037 11.1093 11.9869 11.1717 11.9571C11.2341 11.9272 11.2898 11.8849 11.3352 11.8328L14.8562 8.3498C14.902 8.30357 14.9381 8.24877 14.9627 8.18853C14.9872 8.12829 14.9996 8.06379 14.9991 7.99876C14.9986 7.93372 14.9853 7.86942 14.96 7.80953C14.9346 7.74965 14.8976 7.69536 14.8512 7.64979V7.64579Z" fill="#172D76" stroke="#222222" stroke-width="0.2"/>
</svg>
