<svg width="31" height="33" viewBox="0 0 31 33" fill="none" xmlns="http://www.w3.org/2000/svg">
<path fill-rule="evenodd" clip-rule="evenodd" d="M25.3317 2.92102C24.2702 2.45592 23.1999 1.91399 22.0794 1.51188C20.0078 0.768299 17.862 0.61579 15.6722 0.844358C12.4186 1.18397 9.52572 2.35569 7.0386 4.48483C4.51954 6.64138 2.95858 9.37249 2.402 12.6338C1.81083 16.098 2.32801 19.4269 4.00217 22.5226C5.38213 25.0742 7.30353 27.1261 9.9408 28.4427C11.3889 29.1658 12.7767 29.1532 14.03 28.0674C15.265 26.9973 16.6675 26.8119 18.1991 27.1078C19.5533 27.3695 20.9092 27.622 22.2606 27.8967C22.4441 27.934 22.606 28.0768 22.778 28.1707C22.6125 28.3314 22.4645 28.6038 22.2785 28.6329C21.6077 28.7376 20.9247 28.7856 20.2448 28.8064C19.7147 28.8226 19.1822 28.7667 18.641 28.7983C19.305 29.3773 20.093 29.603 20.9359 29.6496C22.6911 29.7468 24.1544 28.9917 25.5432 28.0334C26.1071 27.6441 26.6563 27.2305 27.2421 26.8777C27.5337 26.7022 27.898 26.3625 28.2364 26.7776C28.5604 27.1748 28.2189 27.4714 27.9767 27.7514C25.6479 30.4444 22.704 32.0475 19.2201 32.701C15.903 33.3231 12.6848 32.9881 9.6287 31.567C5.45582 29.6266 2.57024 26.4748 0.985987 22.129C0.160157 19.8638 -0.125405 17.5306 0.0491162 15.1529C0.265007 12.212 1.2117 9.49533 2.90228 7.0656C5.48304 3.35644 8.9712 1.03961 13.4477 0.25191C17.7063 -0.497567 21.5931 0.447558 25.1797 2.79062C25.247 2.83454 25.303 2.89606 25.3317 2.92102Z" fill="#00BDD0"/>
<path fill-rule="evenodd" clip-rule="evenodd" d="M18.8233 2.05732C21.9103 2.3592 24.5618 3.64757 26.7509 5.89246C28.7304 7.92264 29.9871 10.3314 30.3583 13.1075C31.0183 18.0418 29.4846 22.2288 25.6579 25.4827C25.2396 25.8384 24.7673 26.1299 24.2912 26.4175L24.1006 26.5324C23.8465 26.6858 23.5933 26.8404 23.3484 27.0054C22.8544 27.338 22.3592 27.26 21.8657 27.1526L21.7952 27.1371C21.7717 27.1319 21.7482 27.1267 21.7247 27.1215L21.6543 27.1059C21.5369 27.0802 21.4197 27.0559 21.3026 27.0382C19.7857 26.8087 18.2761 26.531 16.7572 26.318C15.5959 26.1551 14.7004 26.817 13.8221 27.4289C13.5301 27.6323 13.3009 27.6785 12.99 27.5617C11.0111 26.8182 9.36303 25.6104 7.99261 24.0118C7.81976 23.8102 7.7547 23.5938 7.94337 23.3533C8.1348 23.1093 8.35786 23.1938 8.54555 23.3143C9.26869 23.7785 9.96963 24.2774 10.6966 24.7354C11.8889 25.4866 13.1728 25.8603 14.5816 25.5151C14.9454 25.4258 15.2812 25.2223 15.6299 25.0713C15.6205 25.0214 15.6111 24.9714 15.6017 24.9216C15.308 24.8933 15.0142 24.8669 14.7209 24.8365C14.0757 24.7697 13.4272 24.7218 12.7882 24.6167C12.6937 24.6012 12.6142 24.4945 12.5352 24.3854L12.5055 24.3446C12.4758 24.304 12.4459 24.2646 12.415 24.2311C12.5489 24.1682 12.6777 24.0677 12.8177 24.0483C12.9944 24.0239 13.1711 23.999 13.3478 23.9739L14.1428 23.8604C15.1146 23.722 16.0871 23.5886 17.0636 23.5016C17.8263 23.4336 18.5424 23.7478 19.1148 24.2596C20.4095 25.4171 21.7461 25.2216 23.0861 24.4081C25.9581 22.6645 27.6901 20.0875 28.4053 16.8387C28.6234 15.8477 28.7282 14.8047 28.6978 13.7911C28.612 10.9266 27.6151 8.41073 25.5946 6.32886C23.7303 4.40815 21.4434 3.28025 18.8414 2.84168C15.5827 2.29247 12.7259 2.86242 9.81672 4.78883C9.78842 4.75503 9.76022 4.72112 9.73202 4.68732C10.2926 4.32826 10.8387 3.94384 11.4163 3.61455C13.7161 2.30368 16.2175 1.80252 18.8233 2.05732ZM9.5268 23.4475C9.81794 23.481 10.2116 23.7103 10.7077 24.1354C10.992 24.3714 11.2565 24.56 11.5011 24.7015C11.7458 24.8429 12.1193 25.023 12.6219 25.2419C11.7687 25.014 11.0709 24.6945 10.5284 24.2836C9.98592 23.8727 9.582 23.6499 9.31664 23.6152C9.16562 23.4699 9.23567 23.414 9.5268 23.4475ZM10.5918 23.7857C10.7694 23.8058 11.0095 23.9432 11.3122 24.1979C11.4856 24.3393 11.647 24.4524 11.7962 24.5371C11.9455 24.6218 12.1734 24.7298 12.48 24.861C11.9595 24.7244 11.5338 24.533 11.2028 24.2867C10.8719 24.0405 10.6254 23.907 10.4636 23.8862C10.3714 23.7991 10.4142 23.7656 10.5918 23.7857Z" fill="#172D76"/>
<path d="M15.9569 8.3999H14.7189C14.4152 8.3999 14.1689 8.64614 14.1689 8.94988V10.1838C14.1689 10.4875 14.4152 10.7337 14.7189 10.7337H15.9569C16.2606 10.7337 16.5068 10.4875 16.5068 10.1838V8.94988C16.5068 8.64614 16.2606 8.3999 15.9569 8.3999Z" fill="#FF9100"/>
<path d="M16.0529 6.13477H15.1726C14.96 6.13477 14.7876 6.30713 14.7876 6.51975V7.3972C14.7876 7.60982 14.96 7.78218 15.1726 7.78218H16.0529C16.2655 7.78218 16.4379 7.60982 16.4379 7.3972V6.51975C16.4379 6.30713 16.2655 6.13477 16.0529 6.13477Z" fill="#00BDD0"/>
<path d="M17.9179 7.37012H17.2274C17.0573 7.37012 16.9194 7.50801 16.9194 7.6781V8.36633C16.9194 8.53643 17.0573 8.67432 17.2274 8.67432H17.9179C18.088 8.67432 18.2259 8.53643 18.2259 8.36633V7.6781C18.2259 7.50801 18.088 7.37012 17.9179 7.37012Z" fill="#172D76"/>
<path d="M17.8328 5.72266H17.2439C17.1027 5.72266 16.9883 5.83711 16.9883 5.97829V6.5653C16.9883 6.70648 17.1027 6.82093 17.2439 6.82093H17.8328C17.974 6.82093 18.0885 6.70648 18.0885 6.5653V5.97829C18.0885 5.83711 17.974 5.72266 17.8328 5.72266Z" fill="#FF9100"/>
<path d="M16.9213 4.41797H16.4364C16.3235 4.41797 16.2319 4.50953 16.2319 4.62247V5.10582C16.2319 5.21876 16.3235 5.31032 16.4364 5.31032H16.9213C17.0343 5.31032 17.1258 5.21876 17.1258 5.10582V4.62247C17.1258 4.50953 17.0343 4.41797 16.9213 4.41797Z" fill="#172D76"/>
<path d="M18.5938 4.00635H18.1327C18.0322 4.00635 17.9507 4.08784 17.9507 4.18836V4.64805C17.9507 4.74857 18.0322 4.83006 18.1327 4.83006H18.5938C18.6943 4.83006 18.7758 4.74857 18.7758 4.64805V4.18836C18.7758 4.08784 18.6943 4.00635 18.5938 4.00635Z" fill="#00BDD0"/>
<path d="M19.213 5.31104H18.7518C18.6513 5.31104 18.5698 5.39252 18.5698 5.49304V5.95274C18.5698 6.05326 18.6513 6.13474 18.7518 6.13474H19.213C19.3135 6.13474 19.395 6.05326 19.395 5.95274V5.49304C19.395 5.39252 19.3135 5.31104 19.213 5.31104Z" fill="#172D76"/>
<path d="M19.6573 6.61523H19.1315C19.0109 6.61523 18.9131 6.71302 18.9131 6.83364V7.35782C18.9131 7.47844 19.0109 7.57623 19.1315 7.57623H19.6573C19.778 7.57623 19.8757 7.47844 19.8757 7.35782V6.83364C19.8757 6.71302 19.778 6.61523 19.6573 6.61523Z" fill="#00BDD0"/>
<path d="M6.28322 8.62793C6.54139 8.62793 6.75541 8.6381 6.92526 8.65845C7.09511 8.6788 7.23099 8.70593 7.33291 8.73984C7.43482 8.77375 7.50785 8.81783 7.55201 8.87209C7.59618 8.92635 7.61826 8.98739 7.61826 9.05522V16.8278C7.61826 17.35 7.6828 17.8027 7.81189 18.1859C7.94098 18.5691 8.12612 18.8862 8.36731 19.1371C8.6085 19.3881 8.89724 19.5763 9.23355 19.7018C9.56986 19.8272 9.94523 19.89 10.3597 19.89C10.7809 19.89 11.158 19.8255 11.4909 19.6967C11.8238 19.5678 12.1058 19.3796 12.3368 19.132C12.5678 18.8845 12.7461 18.5793 12.8718 18.2164C12.9975 17.8536 13.0603 17.4416 13.0603 16.9804V9.05522C13.0603 8.98739 13.0807 8.92635 13.1215 8.87209C13.1622 8.81783 13.2336 8.77375 13.3355 8.73984C13.4106 8.71483 13.5052 8.69352 13.6191 8.67589L13.6192 10.6639C13.6192 10.9677 13.8654 11.2139 14.1691 11.2139L15.7099 11.2138L15.71 11.7435C15.5174 12.0817 15.3519 12.4513 15.2132 12.8523C14.9298 13.6721 14.7881 14.6105 14.7881 15.6674C14.7881 16.705 14.9169 17.6146 15.1746 18.396C15.2421 18.6009 15.3174 18.7968 15.4005 18.9839C15.3855 19.0287 15.3697 19.0729 15.3533 19.1168C15.1155 19.7543 14.7656 20.2935 14.3036 20.7344C13.8416 21.1752 13.2709 21.5109 12.5915 21.7415C11.9121 21.9721 11.1308 22.0874 10.2476 22.0874C9.41869 22.0874 8.67474 21.984 8.01571 21.7772C7.35668 21.5703 6.79957 21.2566 6.34436 20.8361C5.88916 20.4156 5.54096 19.8917 5.29977 19.2643C5.05858 18.6369 4.93799 17.9028 4.93799 17.0617V9.05522C4.93799 8.98739 4.95837 8.92635 4.99914 8.87209C5.0399 8.81783 5.11294 8.77375 5.21824 8.73984C5.32355 8.70593 5.46113 8.6788 5.63099 8.65845C5.80084 8.6381 6.01825 8.62793 6.28322 8.62793Z" fill="#172D76"/>
<path d="M25.2764 19.6299C25.2764 19.79 25.2715 19.9261 25.2619 20.0382C25.2522 20.1503 25.2377 20.2464 25.2184 20.3264C25.1991 20.4065 25.1733 20.4753 25.1411 20.533C25.1089 20.5906 25.0574 20.6563 24.9865 20.73C24.9156 20.8036 24.4305 21.1059 24.2276 21.2212C24.0247 21.3365 23.7767 21.4469 23.4837 21.5526C23.1906 21.6583 22.8556 21.7464 22.4788 21.8169C22.102 21.8873 21.6946 21.9225 21.2566 21.9225C20.3999 21.9225 19.6269 21.7912 18.9377 21.5286C18.2485 21.266 17.6623 20.8737 17.1792 20.3517C16.6961 19.8296 16.3258 19.1779 16.0681 18.3965C15.8105 17.615 15.6816 16.7055 15.6816 15.6678C15.6816 14.611 15.8233 13.6726 16.1068 12.8527C16.3902 12.0328 16.7863 11.3443 17.2952 10.787C17.804 10.2298 18.4144 9.80702 19.1261 9.51878C19.8379 9.23054 20.6221 9.08643 21.4788 9.08643C21.8266 9.08643 22.1616 9.11525 22.4836 9.1729C22.8057 9.23054 23.1036 9.30581 23.3774 9.39868C23.6511 9.49156 23.8975 9.59885 24.1165 9.72055C24.3355 9.84224 24.976 10.2234 25.063 10.3098C25.15 10.3963 25.2095 10.4684 25.2417 10.526C25.2739 10.5837 25.2997 10.6573 25.319 10.747C25.3384 10.8367 25.3529 10.9424 25.3625 11.0641C25.3722 11.1858 25.377 11.3363 25.377 11.5156C25.377 11.7078 25.3706 11.8711 25.3577 12.0056C25.3448 12.1401 25.3223 12.249 25.29 12.3323C25.2578 12.4156 25.2192 12.4764 25.1741 12.5148C25.129 12.5533 25.0775 12.5725 25.0195 12.5725C24.9229 12.5725 24.313 12.2394 24.1648 12.1273C24.0167 12.0152 23.825 11.8903 23.5899 11.7526C23.3548 11.6149 23.0746 11.49 22.7493 11.3779C22.4241 11.2658 22.036 11.2098 21.5851 11.2098C21.0891 11.2098 20.6463 11.3106 20.2566 11.5124C19.8669 11.7142 19.5351 12.0024 19.2614 12.3771C18.9876 12.7518 18.7799 13.205 18.6382 13.7366C18.4965 14.2683 18.4256 14.8672 18.4256 15.5333C18.4256 16.2635 18.5013 16.896 18.6527 17.4309C18.8041 17.9657 19.0198 18.4061 19.3 18.7519C19.5802 19.0978 19.9184 19.3556 20.3145 19.5254C20.7107 19.6951 21.1567 19.78 21.6527 19.78C22.1036 19.78 22.4933 19.7271 22.8218 19.6215C23.1503 19.5158 23.4321 19.3989 23.6672 19.2708C23.9023 19.1427 24.0956 19.0274 24.2469 18.9249C24.3983 18.8224 24.8641 18.5634 24.9479 18.5634C25.0123 18.5634 25.0638 18.5762 25.1024 18.6018C25.1411 18.6274 25.1733 18.6787 25.1991 18.7555C25.2248 18.8324 25.2442 18.9397 25.257 19.0774C25.2699 19.2151 25.2764 19.3993 25.2764 19.6299Z" fill="#00BDD0"/>
</svg>
