<svg xmlns="http://www.w3.org/2000/svg" width="16" height="16.56" viewBox="0 0 16 16.56">
  <g id="Group_9888" data-name="Group 9888" transform="translate(-11.087 -9.8)">
    <path id="Path_12342" data-name="Path 12342" d="M19.092,36.507h.35c4.114-.186,6.974-3.328,7.468-3.928a.33.33,0,0,0,.144-.186.418.418,0,0,0-.082-.455c-2.613-2.77-5.369-4.093-8.229-3.969-4.114.186-6.974,3.328-7.468,3.928-.021.021-.041.021-.062.041a.42.42,0,0,0-.021.579C13.723,35.163,16.356,36.507,19.092,36.507Zm0-7.442a3.163,3.163,0,1,1-3.147,3.163A3.155,3.155,0,0,1,19.092,29.065Zm2.654,6.14a4.019,4.019,0,0,0,1.317-2.977,3.973,3.973,0,0,0-1.317-2.956,12.107,12.107,0,0,1,4.361,2.956A11.644,11.644,0,0,1,21.746,35.2Zm-5.307-5.954a4.019,4.019,0,0,0-1.317,2.977,3.973,3.973,0,0,0,1.317,2.956,12.107,12.107,0,0,1-4.361-2.956A11.408,11.408,0,0,1,16.438,29.251Z" transform="translate(0 -14.445)" fill="#00bdd0"/>
    <path id="Path_12343" data-name="Path 12343" d="M44.433,44.465A1.433,1.433,0,1,0,43,43.033,1.424,1.424,0,0,0,44.433,44.465Zm0-2.047a.614.614,0,1,1-.614.614A.6.6,0,0,1,44.433,42.419Z" transform="translate(-25.341 -25.251)" fill="#00bdd0"/>
    <path id="Path_12344" data-name="Path 12344" d="M49.219,78.994V77.009a.409.409,0,0,0-.819,0v1.985a.409.409,0,1,0,.819,0Z" transform="translate(-29.635 -53.044)" fill="#00bdd0"/>
    <path id="Path_12345" data-name="Path 12345" d="M48.809,12.727a.411.411,0,0,0,.409-.409V10.209a.409.409,0,1,0-.819,0v2.108A.411.411,0,0,0,48.809,12.727Z" transform="translate(-29.635)" fill="#00bdd0"/>
    <path id="Path_12346" data-name="Path 12346" d="M22.444,69.161a.4.4,0,0,0-.573.02l-1.31,1.371a.4.4,0,0,0,.02.573.4.4,0,0,0,.287.123.372.372,0,0,0,.287-.123l1.31-1.371A.439.439,0,0,0,22.444,69.161Z" transform="translate(-7.445 -47.037)" fill="#00bdd0"/>
    <path id="Path_12347" data-name="Path 12347" d="M70.609,22.228a.4.4,0,0,0,.287-.123l1.351-1.31a.405.405,0,0,0-.573-.573l-1.351,1.31a.4.4,0,0,0,0,.573A.343.343,0,0,0,70.609,22.228Z" transform="translate(-46.933 -8.192)" fill="#00bdd0"/>
    <path id="Path_12348" data-name="Path 12348" d="M71.939,71.366a.372.372,0,0,0,.287-.123.4.4,0,0,0-.02-.573l-1.371-1.31a.405.405,0,1,0-.553.594l1.371,1.31A.489.489,0,0,0,71.939,71.366Z" transform="translate(-46.891 -47.196)" fill="#00bdd0"/>
    <path id="Path_12349" data-name="Path 12349" d="M21.633,22.247a.4.4,0,0,0,.573,0,.4.4,0,0,0,0-.573L20.9,20.323a.405.405,0,1,0-.573.573Z" transform="translate(-7.248 -8.272)" fill="#00bdd0"/>
  </g>
</svg>