<svg xmlns="http://www.w3.org/2000/svg" width="12" height="12" viewBox="0 0 12 12">
  <g id="noun-clock-6841218" transform="translate(-9.375 -9.375)">
    <path id="Path_125337" data-name="Path 125337" d="M15.375,9.375a6.006,6.006,0,1,0,4.241,1.759,6,6,0,0,0-4.241-1.759Zm0,11.077a5.084,5.084,0,1,1,3.588-1.489A5.079,5.079,0,0,1,15.375,20.452Zm3.538-5.077a.467.467,0,0,1-.462.462H15.375a.468.468,0,0,1-.462-.462V11.683a.462.462,0,1,1,.923,0v3.231h2.615A.467.467,0,0,1,18.913,15.375Z" fill="#e11900"/>
  </g>
</svg>
